ply
format ascii 1.0
comment VCGLIB generated
element vertex 176
property float x
property float y
property float z
property float nx
property float ny
property float nz
element face 348
property list uchar int vertex_indices
end_header
20 0 50 1.526037e-08 -1.740428e-15 -1 
20 0 -50 0 0 1 
19.94904 1.426784 -50 0 0 1 
19.94904 1.426784 50 7.500911e-08 5.364758e-09 -1 
19.79643 2.846297 50 -2.349982e-08 -3.378766e-09 -1 
19.79643 2.846297 -50 0 0 1 
19.54294 4.251306 -50 0 0 1 
19.54294 4.251306 50 1.101992e-08 2.397239e-09 -1 
19.18986 5.634651 50 7.513791e-09 2.206248e-09 -1 
19.18986 5.634651 -50 0 0 1 
18.73899 6.989284 50 1.147495e-08 4.279931e-09 -1 
18.73899 6.989284 -50 0 0 1 
18.19264 8.3083 50 1.350832e-08 6.169039e-09 -1 
18.19264 8.3083 -50 0 0 1 
17.55358 9.58498 -50 0 0 1 
17.55358 9.58498 50 -3.062037e-08 -1.671999e-08 -1 
16.82507 10.81282 50 -5.648781e-08 -3.630251e-08 -1 
16.82507 10.81282 -50 0 0 1 
16.01082 11.98555 50 -5.334575e-08 -3.993414e-08 -1 
16.01082 11.98555 -50 0 0 1 
15.11499 13.09721 -50 0 0 1 
15.11499 13.09721 50 -1.495082e-08 -1.295496e-08 -1 
14.14214 14.14214 50 -2.369695e-08 -2.369695e-08 -1 
14.14214 14.14214 -50 0 0 1 
13.09721 15.11499 -50 0 0 1 
13.09721 15.11499 50 -1.597266e-08 -1.843344e-08 -1 
11.98555 16.01082 50 -3.993414e-08 -5.334575e-08 -1 
11.98555 16.01082 -50 0 0 1 
10.81282 16.82507 -50 0 0 1 
10.81282 16.82507 50 2.928903e-08 4.557463e-08 -1 
9.58498 17.55358 -50 0 0 1 
9.58498 17.55358 50 -1.311414e-08 -2.401675e-08 -1 
8.3083 18.19264 50 -1.311416e-09 -2.871596e-09 -1 
8.3083 18.19264 -50 0 0 1 
6.989284 18.73899 -50 0 0 1 
6.989284 18.73899 50 -3.363161e-09 -9.016985e-09 -1 
5.634651 19.18986 -50 0 0 1 
5.634651 19.18986 50 2.514434e-09 8.563378e-09 -1 
4.251306 19.54294 -50 0 0 1 
4.251306 19.54294 50 1.253863e-08 5.763915e-08 -1 
2.846297 19.79643 50 -2.788248e-09 -1.939269e-08 -1 
2.846297 19.79643 -50 0 0 1 
1.426784 19.94904 -50 0 0 1 
1.426784 19.94904 50 6.194845e-09 8.661524e-08 -1 
0 20 -50 0 0 1 
0 20 50 -1.740428e-15 1.526037e-08 -1 
-1.426784 19.94904 -50 0 0 1 
-1.426784 19.94904 50 -6.194845e-09 8.661524e-08 -1 
-2.846297 19.79643 50 2.788248e-09 -1.939269e-08 -1 
-2.846297 19.79643 -50 0 0 1 
-4.251306 19.54294 -50 0 0 1 
-4.251306 19.54294 50 -1.253863e-08 5.763915e-08 -1 
-5.634651 19.18986 -50 0 0 1 
-5.634651 19.18986 50 -2.514434e-09 8.563378e-09 -1 
-6.989284 18.73899 -50 0 0 1 
-6.989284 18.73899 50 3.363161e-09 -9.016985e-09 -1 
-8.3083 18.19264 50 1.311416e-09 -2.871596e-09 -1 
-8.3083 18.19264 -50 0 0 1 
-9.58498 17.55358 -50 0 0 1 
-9.58498 17.55358 50 3.808278e-09 -6.974349e-09 -1 
-10.81282 16.82507 -50 0 0 1 
-10.81282 16.82507 50 -2.928903e-08 4.557463e-08 -1 
-11.98555 16.01082 -50 0 0 1 
-11.98555 16.01082 50 3.993414e-08 -5.334575e-08 -1 
-13.09721 15.11499 -50 0 0 1 
-13.09721 15.11499 50 1.597266e-08 -1.843344e-08 -1 
-14.14214 14.14214 -50 0 0 1 
-14.14214 14.14214 50 2.656825e-08 -2.656826e-08 -1 
-15.11499 13.09721 -50 0 0 1 
-15.11499 13.09721 50 1.495082e-08 -1.295496e-08 -1 
-16.01082 11.98555 -50 0 0 1 
-16.01082 11.98555 50 5.334575e-08 -3.993414e-08 -1 
-16.82507 10.81282 -50 0 0 1 
-16.82507 10.81282 50 -3.846952e-08 2.472286e-08 -1 
-17.55358 9.58498 -50 0 0 1 
-17.55358 9.58498 50 1.32896e-08 -7.256668e-09 -1 
-18.19264 8.3083 -50 0 0 1 
-18.19264 8.3083 50 -1.350832e-08 6.169039e-09 -1 
-18.73899 6.989284 -50 0 0 1 
-18.73899 6.989284 50 -1.147495e-08 4.279931e-09 -1 
-19.18986 5.634651 -50 0 0 1 
-19.18986 5.634651 50 -7.513791e-09 2.206248e-09 -1 
-19.54294 4.251306 -50 0 0 1 
-19.54294 4.251306 50 -3.518128e-08 7.653217e-09 -1 
-19.79643 2.846297 -50 0 0 1 
-19.79643 2.846297 50 2.286633e-08 -3.287684e-09 -1 
-19.94904 1.426784 -50 0 0 1 
-19.94904 1.426784 50 -7.48559e-08 5.353801e-09 -1 
-20 0 -50 0 0 1 
-20 0 50 -1.526037e-08 -1.740428e-15 -1 
-19.94904 -1.426784 -50 0 0 1 
-19.94904 -1.426784 50 -7.48559e-08 -5.353801e-09 -1 
-19.79643 -2.846297 -50 0 0 1 
-19.79643 -2.846297 50 2.286633e-08 3.287684e-09 -1 
-19.54294 -4.251306 -50 0 0 1 
-19.54294 -4.251306 50 -3.518128e-08 -7.653217e-09 -1 
-19.18986 -5.634651 -50 0 0 1 
-19.18986 -5.634651 50 -7.513791e-09 -2.206248e-09 -1 
-18.73899 -6.989284 -50 0 0 1 
-18.73899 -6.989284 50 -1.147495e-08 -4.279931e-09 -1 
-18.19264 -8.3083 -50 0 0 1 
-18.19264 -8.3083 50 -1.350832e-08 -6.169039e-09 -1 
-17.55358 -9.58498 -50 0 0 1 
-17.55358 -9.58498 50 1.32896e-08 7.256668e-09 -1 
-16.82507 -10.81282 -50 0 0 1 
-16.82507 -10.81282 50 -3.846952e-08 -2.472286e-08 -1 
-16.01082 -11.98555 -50 0 0 1 
-16.01082 -11.98555 50 5.334575e-08 3.993414e-08 -1 
-15.11499 -13.09721 -50 0 0 1 
-15.11499 -13.09721 50 1.495082e-08 1.295496e-08 -1 
-14.14214 -14.14214 -50 0 0 1 
-14.14214 -14.14214 50 2.201349e-08 2.201349e-08 -1 
-13.09721 -15.11499 -50 0 0 1 
-13.09721 -15.11499 50 1.597266e-08 1.843344e-08 -1 
-11.98555 -16.01082 -50 0 0 1 
-11.98555 -16.01082 50 3.993414e-08 5.334575e-08 -1 
-10.81282 -16.82507 -50 0 0 1 
-10.81282 -16.82507 50 -1.166709e-08 -1.815435e-08 -1 
-9.58498 -17.55358 50 3.808278e-09 6.974349e-09 -1 
-9.58498 -17.55358 -50 0 0 1 
-8.3083 -18.19264 -50 0 0 1 
-8.3083 -18.19264 50 1.311416e-09 2.871596e-09 -1 
-6.989284 -18.73899 50 3.363161e-09 9.016985e-09 -1 
-6.989284 -18.73899 -50 0 0 1 
-5.634651 -19.18986 50 -2.514434e-09 -8.563378e-09 -1 
-5.634651 -19.18986 -50 0 0 1 
-4.251306 -19.54294 50 -1.253863e-08 -5.763915e-08 -1 
-4.251306 -19.54294 -50 0 0 1 
-2.846297 -19.79643 -50 0 0 1 
-2.846297 -19.79643 50 2.788248e-09 1.939269e-08 -1 
-1.426784 -19.94904 50 -6.194845e-09 -8.661524e-08 -1 
-1.426784 -19.94904 -50 0 0 1 
0 -20 50 1.740428e-15 -1.526037e-08 -1 
0 -20 -50 0 0 1 
1.426784 -19.94904 50 6.194845e-09 -8.661524e-08 -1 
1.426784 -19.94904 -50 0 0 1 
2.846297 -19.79643 -50 0 0 1 
2.846297 -19.79643 50 -2.788248e-09 1.939269e-08 -1 
4.251306 -19.54294 50 -8.089158e-09 3.718528e-08 -1 
4.251306 -19.54294 -50 0 0 1 
5.634651 -19.18986 50 2.514434e-09 -8.563378e-09 -1 
5.634651 -19.18986 -50 0 0 1 
6.989284 -18.73899 50 -3.363161e-09 9.016985e-09 -1 
6.989284 -18.73899 -50 0 0 1 
8.3083 -18.19264 -50 0 0 1 
8.3083 -18.19264 50 -1.311416e-09 2.871596e-09 -1 
9.58498 -17.55358 50 -3.808278e-09 6.974349e-09 -1 
9.58498 -17.55358 -50 0 0 1 
10.81282 -16.82507 50 2.928903e-08 -4.557463e-08 -1 
10.81282 -16.82507 -50 0 0 1 
11.98555 -16.01082 50 -3.993414e-08 5.334575e-08 -1 
11.98555 -16.01082 -50 0 0 1 
13.09721 -15.11499 -50 0 0 1 
13.09721 -15.11499 50 -1.597266e-08 1.843344e-08 -1 
14.14214 -14.14214 50 -3.112302e-08 3.112302e-08 -1 
14.14214 -14.14214 -50 0 0 1 
15.11499 -13.09721 50 -1.495082e-08 1.295496e-08 -1 
15.11499 -13.09721 -50 0 0 1 
16.01082 -11.98555 50 -5.334575e-08 3.993414e-08 -1 
16.01082 -11.98555 -50 0 0 1 
16.82507 -10.81282 -50 0 0 1 
16.82507 -10.81282 50 -5.648781e-08 3.630251e-08 -1 
17.55358 -9.58498 50 -1.32896e-08 7.256668e-09 -1 
17.55358 -9.58498 -50 0 0 1 
18.19264 -8.3083 50 1.350832e-08 -6.169039e-09 -1 
18.19264 -8.3083 -50 0 0 1 
18.73899 -6.989284 50 2.628235e-09 -9.802819e-10 -1 
18.73899 -6.989284 -50 0 0 1 
19.18986 -5.634651 -50 0 0 1 
19.18986 -5.634651 50 7.513791e-09 -2.206248e-09 -1 
19.54294 -4.251306 50 -5.066315e-08 1.102108e-08 -1 
19.54294 -4.251306 -50 0 0 1 
19.79643 -2.846297 50 1.511538e-08 -2.173263e-09 -1 
19.79643 -2.846297 -50 0 0 1 
19.94904 -1.426784 -50 0 0 1 
19.94904 -1.426784 50 7.500911e-08 -5.364758e-09 -1 
3 0 1 2 
3 3 0 2 
3 4 3 2 
3 4 2 5 
3 4 5 6 
3 7 4 6 
3 8 6 9 
3 8 7 6 
3 10 8 9 
3 10 9 11 
3 12 10 11 
3 12 11 13 
3 12 13 14 
3 15 12 14 
3 16 15 14 
3 16 14 17 
3 18 16 17 
3 18 17 19 
3 18 19 20 
3 21 18 20 
3 22 23 24 
3 22 21 20 
3 22 20 23 
3 25 22 24 
3 26 24 27 
3 26 27 28 
3 26 25 24 
3 29 28 30 
3 29 26 28 
3 31 29 30 
3 32 30 33 
3 32 33 34 
3 32 31 30 
3 35 34 36 
3 35 32 34 
3 37 36 38 
3 37 35 36 
3 39 37 38 
3 40 38 41 
3 40 41 42 
3 40 39 38 
3 43 42 44 
3 43 40 42 
3 45 44 46 
3 45 43 44 
3 47 45 46 
3 48 46 49 
3 48 49 50 
3 48 47 46 
3 51 50 52 
3 51 48 50 
3 53 52 54 
3 53 51 52 
3 55 53 54 
3 56 54 57 
3 56 57 58 
3 56 55 54 
3 59 58 60 
3 59 56 58 
3 61 59 60 
3 61 60 62 
3 63 61 62 
3 63 62 64 
3 65 63 64 
3 65 64 66 
3 67 65 66 
3 67 66 68 
3 69 67 68 
3 69 68 70 
3 71 69 70 
3 71 70 72 
3 73 72 74 
3 73 71 72 
3 75 74 76 
3 75 73 74 
3 77 76 78 
3 77 75 76 
3 79 78 80 
3 79 77 78 
3 81 80 82 
3 81 79 80 
3 83 82 84 
3 83 81 82 
3 85 84 86 
3 85 83 84 
3 87 86 88 
3 87 85 86 
3 89 88 90 
3 89 87 88 
3 91 90 92 
3 91 89 90 
3 93 92 94 
3 93 91 92 
3 95 94 96 
3 95 93 94 
3 97 96 98 
3 97 95 96 
3 99 98 100 
3 99 97 98 
3 101 100 102 
3 101 99 100 
3 103 102 104 
3 103 101 102 
3 105 104 106 
3 105 103 104 
3 107 106 108 
3 107 105 106 
3 109 108 110 
3 109 107 108 
3 111 110 112 
3 111 109 110 
3 113 111 112 
3 113 112 114 
3 115 113 114 
3 115 114 116 
3 117 115 116 
3 118 117 116 
3 118 116 119 
3 118 119 120 
3 121 118 120 
3 122 121 120 
3 122 120 123 
3 124 122 123 
3 124 123 125 
3 126 124 125 
3 126 125 127 
3 126 127 128 
3 129 126 128 
3 130 129 128 
3 130 128 131 
3 132 130 131 
3 132 131 133 
3 134 132 133 
3 134 133 135 
3 134 135 136 
3 137 134 136 
3 138 137 136 
3 138 136 139 
3 140 138 139 
3 140 139 141 
3 142 141 143 
3 142 143 144 
3 142 140 141 
3 145 142 144 
3 146 144 147 
3 146 145 144 
3 148 147 149 
3 148 146 147 
3 150 149 151 
3 150 151 152 
3 150 148 149 
3 153 150 152 
3 154 152 155 
3 154 153 152 
3 156 155 157 
3 156 154 155 
3 158 157 159 
3 158 159 160 
3 158 156 157 
3 161 158 160 
3 162 161 160 
3 162 160 163 
3 164 162 163 
3 164 163 165 
3 166 164 165 
3 166 165 167 
3 166 167 168 
3 169 166 168 
3 170 169 168 
3 170 168 171 
3 172 170 171 
3 172 171 173 
3 172 173 174 
3 175 172 174 
3 175 174 1 
3 0 175 1 
3 10 4 8 
3 75 77 79 
3 113 109 111 
3 146 79 87 
3 146 87 142 
3 146 75 79 
3 146 142 145 
3 31 32 35 
3 31 35 37 
3 31 47 4 
3 31 37 47 
3 105 107 109 
3 31 4 10 
3 71 73 75 
3 71 75 146 
3 105 109 113 
3 71 146 148 
3 117 113 115 
3 16 12 15 
3 153 148 150 
3 26 29 31 
3 26 31 10 
3 67 69 71 
3 67 71 148 
3 101 103 105 
3 21 10 12 
3 21 16 18 
3 21 26 10 
3 21 12 16 
3 121 117 118 
3 156 67 148 
3 156 148 153 
3 156 153 154 
3 22 25 26 
3 22 26 21 
3 161 63 65 
3 161 65 67 
3 97 99 101 
3 161 156 158 
3 161 67 156 
3 59 61 63 
3 59 63 161 
3 162 59 161 
3 95 97 101 
3 56 59 162 
3 126 122 124 
3 129 122 126 
3 53 55 56 
3 53 162 164 
3 53 56 162 
3 91 105 113 
3 91 95 101 
3 91 93 95 
3 91 101 105 
3 130 113 117 
3 130 117 121 
3 170 166 169 
3 130 122 129 
3 130 91 113 
3 130 121 122 
3 48 51 53 
3 47 53 164 
3 47 48 53 
3 47 166 170 
3 47 164 166 
3 87 89 91 
3 134 91 130 
3 134 87 91 
3 134 130 132 
3 137 87 134 
3 43 45 47 
3 83 85 87 
3 4 0 3 
3 4 47 170 
3 4 170 172 
3 4 172 175 
3 4 175 0 
3 79 81 83 
3 39 40 43 
3 79 83 87 
3 142 87 137 
3 142 137 138 
3 142 138 140 
3 37 43 47 
3 37 39 43 
3 8 4 7 
3 9 5 11 
3 78 76 74 
3 110 108 112 
3 86 78 147 
3 143 86 147 
3 78 74 147 
3 144 143 147 
3 34 33 30 
3 36 34 30 
3 5 46 30 
3 46 36 30 
3 11 5 30 
3 108 106 104 
3 74 72 70 
3 147 74 70 
3 112 108 104 
3 149 147 70 
3 114 112 116 
3 14 13 17 
3 30 28 27 
3 11 30 27 
3 151 149 152 
3 70 68 66 
3 149 70 66 
3 104 102 100 
3 13 11 20 
3 19 17 20 
3 11 27 20 
3 17 13 20 
3 119 116 120 
3 149 66 157 
3 152 149 157 
3 27 24 23 
3 155 152 157 
3 20 27 23 
3 64 62 160 
3 66 64 160 
3 100 98 96 
3 159 157 160 
3 157 66 160 
3 62 60 58 
3 160 62 58 
3 160 58 163 
3 100 96 94 
3 163 58 57 
3 125 123 127 
3 127 123 128 
3 57 54 52 
3 165 163 52 
3 163 57 52 
3 112 104 90 
3 100 94 90 
3 94 92 90 
3 104 100 90 
3 116 112 131 
3 120 116 131 
3 168 167 171 
3 128 123 131 
3 112 90 131 
3 123 120 131 
3 52 50 49 
3 165 52 46 
3 52 49 46 
3 171 167 46 
3 167 165 46 
3 90 88 86 
3 131 90 135 
3 90 86 135 
3 133 131 135 
3 135 86 136 
3 46 44 42 
3 86 84 82 
3 2 1 5 
3 171 46 5 
3 173 171 5 
3 174 173 5 
3 1 174 5 
3 42 41 38 
3 82 80 78 
3 86 82 78 
3 136 86 143 
3 46 42 36 
3 139 136 143 
3 141 139 143 
3 42 38 36 
3 6 5 9 
