ply
format ascii 1.0
comment VCGLIB generated
element vertex 8
property float x
property float y
property float z
property float nx
property float ny
property float nz
element face 12
property list uchar int vertex_indices
end_header
-52 41.2 25.5 0 0 -1 
-52 41.2 -25.5 0 0 -1 
-52 -41.2 -25.5 0 0 -1 
-52 -41.2 25.5 0 0 -1 
52 -41.2 -25.5 0 0 -1 
52 41.2 -25.5 0 0 -1 
52 41.2 25.5 0 0 -1 
52 -41.2 25.5 0 0 -1 
3 0 1 2 
3 0 2 3 
3 4 5 6 
3 7 4 6 
3 2 4 7 
3 3 2 7 
3 6 5 1 
3 6 1 0 
3 2 1 5 
3 4 2 5 
3 6 0 3 
3 6 3 7 
