ply
format ascii 1.0
comment VCGLIB generated
element vertex 388
property float x
property float y
property float z
property float nx
property float ny
property float nz
element face 776
property list uchar int vertex_indices
end_header
11.95434 1.045869 1 -0.002101381 -0.0001838473 -0.9999978 
12 0 1 -1 0 2.267841e-09 
12 0 -1 -1 0 2.267841e-09 
11.95434 1.045869 -1 0.002101998 0.0001839013 0.9999978 
11.81769 2.083778 1 -0.002483372 -0.0004378865 0.9999968 
11.81769 2.083778 -1 -0.002473543 -0.0004361534 0.9999968 
11.59111 3.105829 1 -0.001411947 -0.0003783307 0.9999989 
11.59111 3.105829 -1 -0.00141061 -0.0003779725 0.9999989 
11.27631 4.104242 1 -0.0009089155 -0.0003308186 0.9999995 
11.27631 4.104242 -1 -0.0006770088 -0.0002464114 0.9999998 
10.87569 5.071419 1 -0.001941194 -0.0009051943 0.9999977 
10.87569 5.071419 -1 -0.001953685 -0.000911019 0.9999977 
10.3923 6 1 -0.8660253 -0.5000001 -2.833695e-08 
10.3923 6 -1 -0.8660253 -0.5000001 -2.833695e-08 
9.829824 6.882917 -1 -0.819152 -0.5735765 -5.750189e-08 
9.829824 6.882917 1 -0.819152 -0.5735765 -5.750189e-08 
9.192533 7.713451 1 -0.0002386576 -0.0002002575 -0.9999999 
9.192533 7.713451 -1 0.0003236205 0.0002715498 0.9999999 
8.485281 8.485281 -1 -0.7071068 -0.7071068 -1.84414e-08 
8.485281 8.485281 1 -0.7071068 -0.7071068 -1.84414e-08 
7.713451 9.192533 -1 0.0002715498 0.0003236205 0.9999999 
7.713451 9.192533 1 -0.0002002575 -0.0002386576 -0.9999999 
6.882917 9.829824 1 -0.5735765 -0.819152 -5.750189e-08 
6.882917 9.829824 -1 -0.5735765 -0.819152 -5.750189e-08 
6 10.3923 -1 -0.5000001 -0.8660253 -2.833695e-08 
6 10.3923 1 -0.5000001 -0.8660253 -2.833695e-08 
5.071419 10.87569 1 -0.0009051943 -0.001941194 0.9999977 
5.071419 10.87569 -1 -0.000911019 -0.001953685 0.9999977 
4.104242 11.27631 1 -0.0003308186 -0.0009089155 0.9999995 
4.104242 11.27631 -1 -0.0002464114 -0.0006770088 0.9999998 
3.105829 11.59111 1 -0.0003783307 -0.001411947 0.9999989 
3.105829 11.59111 -1 -0.0003779725 -0.00141061 0.9999989 
2.083778 11.81769 -1 -0.0004361534 -0.002473543 0.9999968 
2.083778 11.81769 1 -0.0004381501 -0.002484867 0.9999968 
1.045869 11.95434 1 -0.0001838473 -0.002101381 -0.9999978 
1.045869 11.95434 -1 0.0001839013 0.002101998 0.9999978 
0 12 1 0 -1 2.267841e-09 
0 12 -1 0 -1 2.267841e-09 
-1.045869 11.95434 1 0.0001838473 -0.002101381 -0.9999978 
-1.045869 11.95434 -1 -0.0001839013 0.002101998 0.9999978 
-2.083778 11.81769 1 0.0004381501 -0.002484867 0.9999968 
-2.083778 11.81769 -1 0.0004361534 -0.002473543 0.9999968 
-3.105829 11.59111 1 0.0003783307 -0.001411947 0.9999989 
-3.105829 11.59111 -1 0.0003779725 -0.00141061 0.9999989 
-4.104242 11.27631 1 0.0003308186 -0.0009089155 0.9999995 
-4.104242 11.27631 -1 0.0002464114 -0.0006770088 0.9999998 
-5.071419 10.87569 1 0.0009051943 -0.001941194 0.9999977 
-5.071419 10.87569 -1 0.000911019 -0.001953685 0.9999977 
-6 10.3923 -1 0.5000001 -0.8660253 -2.833695e-08 
-6 10.3923 1 0.5000001 -0.8660253 -2.833695e-08 
-6.882917 9.829824 1 0.5735765 -0.819152 -5.750189e-08 
-6.882917 9.829824 -1 0.5735765 -0.819152 -5.750189e-08 
-7.713451 9.192533 -1 -0.0002715498 0.0003236205 0.9999999 
-7.713451 9.192533 1 0.0002002575 -0.0002386576 -0.9999999 
-8.485281 8.485281 1 0.7071068 -0.7071068 -1.84414e-08 
-8.485281 8.485281 -1 0.7071068 -0.7071068 -1.84414e-08 
-9.192533 7.713451 1 0.0002386576 -0.0002002575 -0.9999999 
-9.192533 7.713451 -1 -0.0003236205 0.0002715498 0.9999999 
-9.829824 6.882917 -1 0.819152 -0.5735765 -5.750189e-08 
-9.829824 6.882917 1 0.819152 -0.5735765 -5.750189e-08 
-10.3923 6 -1 0.8660253 -0.5000001 -2.833695e-08 
-10.3923 6 1 0.8660253 -0.5000001 -2.833695e-08 
-10.87569 5.071419 1 0.001941194 -0.0009051943 0.9999977 
-10.87569 5.071419 -1 0.001953685 -0.000911019 0.9999977 
-11.27631 4.104242 1 0.0009089155 -0.0003308186 0.9999995 
-11.27631 4.104242 -1 0.0006770088 -0.0002464114 0.9999998 
-11.59111 3.105829 1 0.001411947 -0.0003783307 0.9999989 
-11.59111 3.105829 -1 0.00141061 -0.0003779725 0.9999989 
-11.81769 2.083778 1 0.002483372 -0.0004378865 0.9999968 
-11.81769 2.083778 -1 0.002472989 -0.0004360556 0.9999968 
-11.95434 1.045869 1 0.002101381 -0.0001838473 -0.9999978 
-11.95434 1.045869 -1 -0.002101998 0.0001839013 0.9999978 
-12 0 1 1 0 2.267841e-09 
-12 0 -1 1 0 2.267841e-09 
-11.95434 -1.045869 1 0.002101381 0.0001838473 -0.9999978 
-11.95434 -1.045869 -1 -0.002101998 -0.0001839013 0.9999978 
-11.81769 -2.083778 1 0.002483372 0.0004378865 0.9999968 
-11.81769 -2.083778 -1 0.002473543 0.0004361534 0.9999968 
-11.59111 -3.105829 -1 0.00141061 0.0003779725 0.9999989 
-11.59111 -3.105829 1 0.001411947 0.0003783307 0.9999989 
-11.27631 -4.104242 1 0.0009089155 0.0003308186 0.9999995 
-11.27631 -4.104242 -1 0.0006770088 0.0002464114 0.9999998 
-10.87569 -5.071419 -1 0.001953685 0.000911019 0.9999977 
-10.87569 -5.071419 1 0.001941194 0.0009051943 0.9999977 
-10.3923 -6 -1 0.8660253 0.5000001 -2.833695e-08 
-10.3923 -6 1 0.8660253 0.5000001 -2.833695e-08 
-9.829824 -6.882917 1 0.819152 0.5735765 -5.750189e-08 
-9.829824 -6.882917 -1 0.819152 0.5735765 -5.750189e-08 
-9.192533 -7.713451 1 0.0002386576 0.0002002575 -0.9999999 
-9.192533 -7.713451 -1 -0.0003236205 -0.0002715498 0.9999999 
-8.485281 -8.485281 1 0.7071068 0.7071068 -1.84414e-08 
-8.485281 -8.485281 -1 0.7071068 0.7071068 -1.84414e-08 
-7.713451 -9.192533 1 0.0002002575 0.0002386576 -0.9999999 
-7.713451 -9.192533 -1 -0.0002715498 -0.0003236205 0.9999999 
-6.882917 -9.829824 1 0.5735765 0.819152 -5.750189e-08 
-6.882917 -9.829824 -1 0.5735765 0.819152 -5.750189e-08 
-6 -10.3923 -1 0.5000001 0.8660253 -2.833695e-08 
-6 -10.3923 1 0.5000001 0.8660253 -2.833695e-08 
-5.071419 -10.87569 -1 0.000911019 0.001953685 0.9999977 
-5.071419 -10.87569 1 0.0009051943 0.001941194 0.9999977 
-4.104242 -11.27631 1 0.0003308186 0.0009089155 0.9999995 
-4.104242 -11.27631 -1 0.0002464114 0.0006770088 0.9999998 
-3.105829 -11.59111 -1 0.0003779725 0.00141061 0.9999989 
-3.105829 -11.59111 1 0.0003782923 0.001411804 0.9999989 
-2.083778 -11.81769 -1 0.0004361534 0.002473543 0.9999968 
-2.083778 -11.81769 1 0.0004381501 0.002484867 0.9999968 
-1.045869 -11.95434 1 0.0001838473 0.002101381 -0.9999978 
-1.045869 -11.95434 -1 -0.0001839013 -0.002101998 0.9999978 
0 -12 -1 0 1 2.267841e-09 
0 -12 1 0 1 2.267841e-09 
1.045869 -11.95434 -1 0.0001839013 -0.002101998 0.9999978 
1.045869 -11.95434 1 -0.0001838473 0.002101381 -0.9999978 
2.083778 -11.81769 1 -0.0004381501 0.002484867 0.9999968 
2.083778 -11.81769 -1 -0.0004361534 0.002473543 0.9999968 
3.105829 -11.59111 -1 -0.0003779725 0.00141061 0.9999989 
3.105829 -11.59111 1 -0.0003782923 0.001411804 0.9999989 
4.104242 -11.27631 1 -0.0003308186 0.0009089155 0.9999995 
4.104242 -11.27631 -1 -0.0002464114 0.0006770088 0.9999998 
5.071419 -10.87569 -1 -0.000911019 0.001953685 0.9999977 
5.071419 -10.87569 1 -0.0009051943 0.001941194 0.9999977 
6 -10.3923 -1 -0.5000001 0.8660253 -2.833695e-08 
6 -10.3923 1 -0.5000001 0.8660253 -2.833695e-08 
6.882917 -9.829824 1 -0.5735765 0.819152 -5.750189e-08 
6.882917 -9.829824 -1 -0.5735765 0.819152 -5.750189e-08 
7.713451 -9.192533 -1 0.0002715498 -0.0003236205 0.9999999 
7.713451 -9.192533 1 -0.0002002575 0.0002386576 -0.9999999 
8.485281 -8.485281 -1 -0.7071068 0.7071068 -2.245041e-08 
8.485281 -8.485281 1 -0.7071068 0.7071068 -2.245041e-08 
9.192533 -7.713451 1 -0.0002386576 0.0002002575 -0.9999999 
9.192533 -7.713451 -1 0.0003236205 -0.0002715498 0.9999999 
9.829824 -6.882917 -1 -0.819152 0.5735765 -5.750189e-08 
9.829824 -6.882917 1 -0.819152 0.5735765 -5.750189e-08 
10.3923 -6 -1 -0.8660253 0.5000001 -2.833695e-08 
10.3923 -6 1 -0.8660253 0.5000001 -2.833695e-08 
10.87569 -5.071419 1 -0.001941194 0.0009051943 0.9999977 
10.87569 -5.071419 -1 -0.001953685 0.000911019 0.9999977 
11.27631 -4.104242 -1 -0.0006770088 0.0002464114 0.9999998 
11.27631 -4.104242 1 -0.0009089155 0.0003308186 0.9999995 
11.59111 -3.105829 -1 -0.00141061 0.0003779725 0.9999989 
11.59111 -3.105829 1 -0.001411947 0.0003783307 0.9999989 
11.81769 -2.083778 1 -0.002483372 0.0004378865 0.9999968 
11.81769 -2.083778 -1 -0.002473543 0.0004361534 0.9999968 
11.95434 -1.045869 -1 0.002101998 -0.0001839013 0.9999978 
11.95434 -1.045869 1 -0.002101381 0.0001838473 -0.9999978 
0.251162 -3.992107 -1 -0.06279046 0.9980265 0.0005801576 
0.251162 -3.992107 1 -0.06279046 0.9980265 0.0005906869 
1.236068 -3.804226 1 -0.309017 0.9510565 -2.511478e-05 
1.236068 -3.804226 -1 -0.3090169 0.9510565 -2.477856e-05 
2.143307 -3.377312 1 -0.5358266 0.844328 -2.599426e-05 
2.143307 -3.377312 -1 -0.5358266 0.844328 -2.535657e-05 
4 0 -1 -1 0 -2.159813e-05 
4 0 1 -1 0 -2.077477e-05 
3.874333 0.99476 1 -0.9685831 -0.24869 -2.78851e-05 
3.874333 0.99476 -1 -0.9685831 -0.24869 -2.878081e-05 
2.915874 -2.738189 1 -0.7289684 0.6845473 0.0001097149 
2.915874 -2.738189 -1 -0.7289684 0.6845473 0.0001126564 
3.505227 -1.927015 -1 -0.8763066 0.4817538 -0.0001450143 
3.505227 -1.927015 1 -0.8763066 0.4817538 -0.0001412072 
3.505227 1.927015 -1 -0.8763066 -0.4817538 -0.0001450143 
3.505227 1.927015 1 -0.8763066 -0.4817538 -0.0001412072 
2.915874 2.738189 -1 -0.7289684 -0.6845473 0.0001126564 
3.874333 -0.99476 1 -0.9685831 0.24869 -2.78851e-05 
3.874333 -0.99476 -1 -0.9685831 0.24869 -2.878081e-05 
2.915874 2.738189 1 -0.7289684 -0.6845473 0.0001097149 
2.143307 3.377312 -1 -0.5358266 -0.844328 -2.535657e-05 
2.143307 3.377312 1 -0.5358266 -0.844328 -2.599426e-05 
1.236068 3.804226 -1 -0.3090169 -0.9510565 -2.477856e-05 
0.251162 3.992107 -1 -0.06279046 -0.9980265 0.0005801574 
1.236068 3.804226 1 -0.309017 -0.9510565 -2.511478e-05 
-0.749525 3.929149 -1 0.1873813 -0.9822873 1.171388e-05 
0.251162 3.992107 1 -0.06279046 -0.9980265 0.0005906869 
-0.749525 3.929149 1 0.1873813 -0.9822873 1.26419e-05 
-1.703117 3.619308 -1 0.4257792 -0.9048271 3.063315e-05 
-1.703117 3.619308 1 0.4257792 -0.9048271 2.922446e-05 
-2.549696 3.082053 -1 0.6374239 -0.7705133 8.480425e-06 
-2.549696 3.082053 1 0.637424 -0.7705132 7.868292e-06 
-3.236068 2.351141 -1 0.8090169 -0.5877853 -2.159465e-05 
-3.236068 2.351141 1 0.8090169 -0.5877853 -2.544397e-05 
-3.719106 1.472498 -1 0.9297765 -0.3681246 1.016012e-05 
-3.719106 1.472498 1 0.9297765 -0.3681246 1.130373e-05 
-3.968459 0.501333 -1 0.9921147 -0.1253333 3.596639e-05 
-3.968459 0.501333 1 0.9921147 -0.1253333 4.433684e-05 
-3.968459 -0.501333 1 0.9921147 0.1253333 4.433684e-05 
-3.968459 -0.501333 -1 0.9921147 0.1253333 3.596639e-05 
-3.719106 -1.472498 1 0.9297765 0.3681246 1.14308e-05 
-3.719106 -1.472498 -1 0.9297765 0.3681246 1.028719e-05 
-3.236068 -2.351141 -1 0.8090169 0.5877853 -2.202235e-05 
-3.236068 -2.351141 1 0.8090169 0.5877853 -2.587168e-05 
-2.549696 -3.082053 1 0.6374239 0.7705133 8.786494e-06 
-2.549696 -3.082053 -1 0.6374239 0.7705133 8.480425e-06 
-1.703117 -3.619308 -1 0.4257793 0.9048271 2.99288e-05 
-1.703117 -3.619308 1 0.4257793 0.9048271 2.957663e-05 
-0.749525 -3.929149 1 0.1873813 0.9822873 1.26419e-05 
-0.749525 -3.929149 -1 0.1873813 0.9822873 1.171388e-05 
11.95434 1.045869 1 -0.002101381 -0.0001838473 -0.9999978 
12 0 1 -1 0 2.267841e-09 
12 0 -1 -1 0 2.267841e-09 
11.95434 1.045869 -1 0.002101998 0.0001839013 0.9999978 
11.81769 2.083778 1 -0.002483372 -0.0004378865 0.9999968 
11.81769 2.083778 -1 -0.002473543 -0.0004361534 0.9999968 
11.59111 3.105829 1 -0.001411947 -0.0003783307 0.9999989 
11.59111 3.105829 -1 -0.00141061 -0.0003779725 0.9999989 
11.27631 4.104242 1 -0.0009089155 -0.0003308186 0.9999995 
11.27631 4.104242 -1 -0.0006770088 -0.0002464114 0.9999998 
10.87569 5.071419 1 -0.001941194 -0.0009051943 0.9999977 
10.87569 5.071419 -1 -0.001953685 -0.000911019 0.9999977 
10.3923 6 1 -0.8660253 -0.5000001 -2.833695e-08 
10.3923 6 -1 -0.8660253 -0.5000001 -2.833695e-08 
9.829824 6.882917 -1 -0.819152 -0.5735765 -5.750189e-08 
9.829824 6.882917 1 -0.819152 -0.5735765 -5.750189e-08 
9.192533 7.713451 1 -0.0002386576 -0.0002002575 -0.9999999 
9.192533 7.713451 -1 0.0003236205 0.0002715498 0.9999999 
8.485281 8.485281 -1 -0.7071068 -0.7071068 -1.84414e-08 
8.485281 8.485281 1 -0.7071068 -0.7071068 -1.84414e-08 
7.713451 9.192533 -1 0.0002715498 0.0003236205 0.9999999 
7.713451 9.192533 1 -0.0002002575 -0.0002386576 -0.9999999 
6.882917 9.829824 1 -0.5735765 -0.819152 -5.750189e-08 
6.882917 9.829824 -1 -0.5735765 -0.819152 -5.750189e-08 
6 10.3923 -1 -0.5000001 -0.8660253 -2.833695e-08 
6 10.3923 1 -0.5000001 -0.8660253 -2.833695e-08 
5.071419 10.87569 1 -0.0009051943 -0.001941194 0.9999977 
5.071419 10.87569 -1 -0.000911019 -0.001953685 0.9999977 
4.104242 11.27631 1 -0.0003308186 -0.0009089155 0.9999995 
4.104242 11.27631 -1 -0.0002464114 -0.0006770088 0.9999998 
3.105829 11.59111 1 -0.0003783307 -0.001411947 0.9999989 
3.105829 11.59111 -1 -0.0003779725 -0.00141061 0.9999989 
2.083778 11.81769 -1 -0.0004361534 -0.002473543 0.9999968 
2.083778 11.81769 1 -0.0004381501 -0.002484867 0.9999968 
1.045869 11.95434 1 -0.0001838473 -0.002101381 -0.9999978 
1.045869 11.95434 -1 0.0001839013 0.002101998 0.9999978 
0 12 1 0 -1 2.267841e-09 
0 12 -1 0 -1 2.267841e-09 
-1.045869 11.95434 1 0.0001838473 -0.002101381 -0.9999978 
-1.045869 11.95434 -1 -0.0001839013 0.002101998 0.9999978 
-2.083778 11.81769 1 0.0004381501 -0.002484867 0.9999968 
-2.083778 11.81769 -1 0.0004361534 -0.002473543 0.9999968 
-3.105829 11.59111 1 0.0003783307 -0.001411947 0.9999989 
-3.105829 11.59111 -1 0.0003779725 -0.00141061 0.9999989 
-4.104242 11.27631 1 0.0003308186 -0.0009089155 0.9999995 
-4.104242 11.27631 -1 0.0002464114 -0.0006770088 0.9999998 
-5.071419 10.87569 1 0.0009051943 -0.001941194 0.9999977 
-5.071419 10.87569 -1 0.000911019 -0.001953685 0.9999977 
-6 10.3923 -1 0.5000001 -0.8660253 -2.833695e-08 
-6 10.3923 1 0.5000001 -0.8660253 -2.833695e-08 
-6.882917 9.829824 1 0.5735765 -0.819152 -5.750189e-08 
-6.882917 9.829824 -1 0.5735765 -0.819152 -5.750189e-08 
-7.713451 9.192533 -1 -0.0002715498 0.0003236205 0.9999999 
-7.713451 9.192533 1 0.0002002575 -0.0002386576 -0.9999999 
-8.485281 8.485281 1 0.7071068 -0.7071068 -1.84414e-08 
-8.485281 8.485281 -1 0.7071068 -0.7071068 -1.84414e-08 
-9.192533 7.713451 1 0.0002386576 -0.0002002575 -0.9999999 
-9.192533 7.713451 -1 -0.0003236205 0.0002715498 0.9999999 
-9.829824 6.882917 -1 0.819152 -0.5735765 -5.750189e-08 
-9.829824 6.882917 1 0.819152 -0.5735765 -5.750189e-08 
-10.3923 6 -1 0.8660253 -0.5000001 -2.833695e-08 
-10.3923 6 1 0.8660253 -0.5000001 -2.833695e-08 
-10.87569 5.071419 1 0.001941194 -0.0009051943 0.9999977 
-10.87569 5.071419 -1 0.001953685 -0.000911019 0.9999977 
-11.27631 4.104242 1 0.0009089155 -0.0003308186 0.9999995 
-11.27631 4.104242 -1 0.0006770088 -0.0002464114 0.9999998 
-11.59111 3.105829 1 0.001411947 -0.0003783307 0.9999989 
-11.59111 3.105829 -1 0.00141061 -0.0003779725 0.9999989 
-11.81769 2.083778 1 0.002483372 -0.0004378865 0.9999968 
-11.81769 2.083778 -1 0.002472989 -0.0004360556 0.9999968 
-11.95434 1.045869 1 0.002101381 -0.0001838473 -0.9999978 
-11.95434 1.045869 -1 -0.002101998 0.0001839013 0.9999978 
-12 0 1 1 0 2.267841e-09 
-12 0 -1 1 0 2.267841e-09 
-11.95434 -1.045869 1 0.002101381 0.0001838473 -0.9999978 
-11.95434 -1.045869 -1 -0.002101998 -0.0001839013 0.9999978 
-11.81769 -2.083778 1 0.002483372 0.0004378865 0.9999968 
-11.81769 -2.083778 -1 0.002473543 0.0004361534 0.9999968 
-11.59111 -3.105829 -1 0.00141061 0.0003779725 0.9999989 
-11.59111 -3.105829 1 0.001411947 0.0003783307 0.9999989 
-11.27631 -4.104242 1 0.0009089155 0.0003308186 0.9999995 
-11.27631 -4.104242 -1 0.0006770088 0.0002464114 0.9999998 
-10.87569 -5.071419 -1 0.001953685 0.000911019 0.9999977 
-10.87569 -5.071419 1 0.001941194 0.0009051943 0.9999977 
-10.3923 -6 -1 0.8660253 0.5000001 -2.833695e-08 
-10.3923 -6 1 0.8660253 0.5000001 -2.833695e-08 
-9.829824 -6.882917 1 0.819152 0.5735765 -5.750189e-08 
-9.829824 -6.882917 -1 0.819152 0.5735765 -5.750189e-08 
-9.192533 -7.713451 1 0.0002386576 0.0002002575 -0.9999999 
-9.192533 -7.713451 -1 -0.0003236205 -0.0002715498 0.9999999 
-8.485281 -8.485281 1 0.7071068 0.7071068 -1.84414e-08 
-8.485281 -8.485281 -1 0.7071068 0.7071068 -1.84414e-08 
-7.713451 -9.192533 1 0.0002002575 0.0002386576 -0.9999999 
-7.713451 -9.192533 -1 -0.0002715498 -0.0003236205 0.9999999 
-6.882917 -9.829824 1 0.5735765 0.819152 -5.750189e-08 
-6.882917 -9.829824 -1 0.5735765 0.819152 -5.750189e-08 
-6 -10.3923 -1 0.5000001 0.8660253 -2.833695e-08 
-6 -10.3923 1 0.5000001 0.8660253 -2.833695e-08 
-5.071419 -10.87569 -1 0.000911019 0.001953685 0.9999977 
-5.071419 -10.87569 1 0.0009051943 0.001941194 0.9999977 
-4.104242 -11.27631 1 0.0003308186 0.0009089155 0.9999995 
-4.104242 -11.27631 -1 0.0002464114 0.0006770088 0.9999998 
-3.105829 -11.59111 -1 0.0003779725 0.00141061 0.9999989 
-3.105829 -11.59111 1 0.0003782923 0.001411804 0.9999989 
-2.083778 -11.81769 -1 0.0004361534 0.002473543 0.9999968 
-2.083778 -11.81769 1 0.0004381501 0.002484867 0.9999968 
-1.045869 -11.95434 1 0.0001838473 0.002101381 -0.9999978 
-1.045869 -11.95434 -1 -0.0001839013 -0.002101998 0.9999978 
0 -12 -1 0 1 2.267841e-09 
0 -12 1 0 1 2.267841e-09 
1.045869 -11.95434 -1 0.0001839013 -0.002101998 0.9999978 
1.045869 -11.95434 1 -0.0001838473 0.002101381 -0.9999978 
2.083778 -11.81769 1 -0.0004381501 0.002484867 0.9999968 
2.083778 -11.81769 -1 -0.0004361534 0.002473543 0.9999968 
3.105829 -11.59111 -1 -0.0003779725 0.00141061 0.9999989 
3.105829 -11.59111 1 -0.0003782923 0.001411804 0.9999989 
4.104242 -11.27631 1 -0.0003308186 0.0009089155 0.9999995 
4.104242 -11.27631 -1 -0.0002464114 0.0006770088 0.9999998 
5.071419 -10.87569 -1 -0.000911019 0.001953685 0.9999977 
5.071419 -10.87569 1 -0.0009051943 0.001941194 0.9999977 
6 -10.3923 -1 -0.5000001 0.8660253 -2.833695e-08 
6 -10.3923 1 -0.5000001 0.8660253 -2.833695e-08 
6.882917 -9.829824 1 -0.5735765 0.819152 -5.750189e-08 
6.882917 -9.829824 -1 -0.5735765 0.819152 -5.750189e-08 
7.713451 -9.192533 -1 0.0002715498 -0.0003236205 0.9999999 
7.713451 -9.192533 1 -0.0002002575 0.0002386576 -0.9999999 
8.485281 -8.485281 -1 -0.7071068 0.7071068 -2.245041e-08 
8.485281 -8.485281 1 -0.7071068 0.7071068 -2.245041e-08 
9.192533 -7.713451 1 -0.0002386576 0.0002002575 -0.9999999 
9.192533 -7.713451 -1 0.0003236205 -0.0002715498 0.9999999 
9.829824 -6.882917 -1 -0.819152 0.5735765 -5.750189e-08 
9.829824 -6.882917 1 -0.819152 0.5735765 -5.750189e-08 
10.3923 -6 -1 -0.8660253 0.5000001 -2.833695e-08 
10.3923 -6 1 -0.8660253 0.5000001 -2.833695e-08 
10.87569 -5.071419 1 -0.001941194 0.0009051943 0.9999977 
10.87569 -5.071419 -1 -0.001953685 0.000911019 0.9999977 
11.27631 -4.104242 -1 -0.0006770088 0.0002464114 0.9999998 
11.27631 -4.104242 1 -0.0009089155 0.0003308186 0.9999995 
11.59111 -3.105829 -1 -0.00141061 0.0003779725 0.9999989 
11.59111 -3.105829 1 -0.001411947 0.0003783307 0.9999989 
11.81769 -2.083778 1 -0.002483372 0.0004378865 0.9999968 
11.81769 -2.083778 -1 -0.002473543 0.0004361534 0.9999968 
11.95434 -1.045869 -1 0.002101998 -0.0001839013 0.9999978 
11.95434 -1.045869 1 -0.002101381 0.0001838473 -0.9999978 
0.251162 -3.992107 -1 -0.06279046 0.9980265 0.0005801576 
0.251162 -3.992107 1 -0.06279046 0.9980265 0.0005906869 
1.236068 -3.804226 1 -0.309017 0.9510565 -2.511478e-05 
1.236068 -3.804226 -1 -0.3090169 0.9510565 -2.477856e-05 
2.143307 -3.377312 1 -0.5358266 0.844328 -2.599426e-05 
2.143307 -3.377312 -1 -0.5358266 0.844328 -2.535657e-05 
4 0 -1 -1 0 -2.159813e-05 
4 0 1 -1 0 -2.077477e-05 
3.874333 0.99476 1 -0.9685831 -0.24869 -2.78851e-05 
3.874333 0.99476 -1 -0.9685831 -0.24869 -2.878081e-05 
2.915874 -2.738189 1 -0.7289684 0.6845473 0.0001097149 
2.915874 -2.738189 -1 -0.7289684 0.6845473 0.0001126564 
3.505227 -1.927015 -1 -0.8763066 0.4817538 -0.0001450143 
3.505227 -1.927015 1 -0.8763066 0.4817538 -0.0001412072 
3.505227 1.927015 -1 -0.8763066 -0.4817538 -0.0001450143 
3.505227 1.927015 1 -0.8763066 -0.4817538 -0.0001412072 
2.915874 2.738189 -1 -0.7289684 -0.6845473 0.0001126564 
3.874333 -0.99476 1 -0.9685831 0.24869 -2.78851e-05 
3.874333 -0.99476 -1 -0.9685831 0.24869 -2.878081e-05 
2.915874 2.738189 1 -0.7289684 -0.6845473 0.0001097149 
2.143307 3.377312 -1 -0.5358266 -0.844328 -2.535657e-05 
2.143307 3.377312 1 -0.5358266 -0.844328 -2.599426e-05 
1.236068 3.804226 -1 -0.3090169 -0.9510565 -2.477856e-05 
0.251162 3.992107 -1 -0.06279046 -0.9980265 0.0005801574 
1.236068 3.804226 1 -0.309017 -0.9510565 -2.511478e-05 
-0.749525 3.929149 -1 0.1873813 -0.9822873 1.171388e-05 
0.251162 3.992107 1 -0.06279046 -0.9980265 0.0005906869 
-0.749525 3.929149 1 0.1873813 -0.9822873 1.26419e-05 
-1.703117 3.619308 -1 0.4257792 -0.9048271 3.063315e-05 
-1.703117 3.619308 1 0.4257792 -0.9048271 2.922446e-05 
-2.549696 3.082053 -1 0.6374239 -0.7705133 8.480425e-06 
-2.549696 3.082053 1 0.637424 -0.7705132 7.868292e-06 
-3.236068 2.351141 -1 0.8090169 -0.5877853 -2.159465e-05 
-3.236068 2.351141 1 0.8090169 -0.5877853 -2.544397e-05 
-3.719106 1.472498 -1 0.9297765 -0.3681246 1.016012e-05 
-3.719106 1.472498 1 0.9297765 -0.3681246 1.130373e-05 
-3.968459 0.501333 -1 0.9921147 -0.1253333 3.596639e-05 
-3.968459 0.501333 1 0.9921147 -0.1253333 4.433684e-05 
-3.968459 -0.501333 1 0.9921147 0.1253333 4.433684e-05 
-3.968459 -0.501333 -1 0.9921147 0.1253333 3.596639e-05 
-3.719106 -1.472498 1 0.9297765 0.3681246 1.14308e-05 
-3.719106 -1.472498 -1 0.9297765 0.3681246 1.028719e-05 
-3.236068 -2.351141 -1 0.8090169 0.5877853 -2.202235e-05 
-3.236068 -2.351141 1 0.8090169 0.5877853 -2.587168e-05 
-2.549696 -3.082053 1 0.6374239 0.7705133 8.786494e-06 
-2.549696 -3.082053 -1 0.6374239 0.7705133 8.480425e-06 
-1.703117 -3.619308 -1 0.4257793 0.9048271 2.99288e-05 
-1.703117 -3.619308 1 0.4257793 0.9048271 2.957663e-05 
-0.749525 -3.929149 1 0.1873813 0.9822873 1.26419e-05 
-0.749525 -3.929149 -1 0.1873813 0.9822873 1.171388e-05 
3 0 1 2 
3 0 2 3 
3 4 0 3 
3 4 3 5 
3 6 4 5 
3 6 5 7 
3 8 6 7 
3 8 7 9 
3 10 8 9 
3 10 9 11 
3 12 10 11 
3 12 11 13 
3 12 13 14 
3 15 12 14 
3 16 15 14 
3 16 14 17 
3 16 17 18 
3 19 18 20 
3 19 16 18 
3 21 19 20 
3 22 20 23 
3 22 23 24 
3 22 21 20 
3 25 22 24 
3 26 24 27 
3 26 25 24 
3 28 26 27 
3 28 27 29 
3 30 28 29 
3 30 29 31 
3 30 31 32 
3 33 30 32 
3 34 33 32 
3 34 32 35 
3 36 34 35 
3 36 35 37 
3 38 36 37 
3 38 37 39 
3 40 38 39 
3 40 39 41 
3 42 40 41 
3 42 41 43 
3 44 42 43 
3 44 43 45 
3 46 44 45 
3 46 45 47 
3 46 47 48 
3 49 46 48 
3 50 49 48 
3 50 48 51 
3 50 51 52 
3 53 50 52 
3 54 52 55 
3 54 53 52 
3 56 55 57 
3 56 57 58 
3 56 54 55 
3 59 56 58 
3 59 58 60 
3 61 59 60 
3 62 60 63 
3 62 61 60 
3 64 63 65 
3 64 62 63 
3 66 65 67 
3 66 64 65 
3 68 67 69 
3 68 66 67 
3 70 69 71 
3 70 68 69 
3 72 71 73 
3 72 70 71 
3 74 73 75 
3 74 72 73 
3 76 74 75 
3 76 75 77 
3 76 77 78 
3 79 76 78 
3 80 78 81 
3 80 81 82 
3 80 79 78 
3 83 82 84 
3 83 80 82 
3 85 83 84 
3 86 84 87 
3 86 85 84 
3 88 87 89 
3 88 86 87 
3 90 89 91 
3 90 88 89 
3 92 91 93 
3 92 90 91 
3 94 93 95 
3 94 95 96 
3 94 92 93 
3 97 96 98 
3 97 94 96 
3 99 97 98 
3 100 98 101 
3 100 101 102 
3 100 99 98 
3 103 100 102 
3 103 102 104 
3 105 103 104 
3 106 104 107 
3 106 107 108 
3 106 105 104 
3 109 108 110 
3 109 106 108 
3 111 109 110 
3 112 110 113 
3 112 113 114 
3 112 111 110 
3 115 112 114 
3 116 114 117 
3 116 117 118 
3 116 115 114 
3 119 118 120 
3 119 116 118 
3 121 119 120 
3 122 120 123 
3 122 123 124 
3 122 121 120 
3 125 124 126 
3 125 122 124 
3 127 125 126 
3 128 126 129 
3 128 129 130 
3 128 127 126 
3 131 128 130 
3 131 130 132 
3 133 131 132 
3 134 133 132 
3 134 132 135 
3 134 135 136 
3 137 134 136 
3 137 136 138 
3 139 137 138 
3 140 139 138 
3 140 138 141 
3 140 141 142 
3 143 140 142 
3 143 142 2 
3 1 143 2 
3 144 145 146 
3 147 144 146 
3 147 146 148 
3 149 147 148 
3 150 151 152 
3 153 150 152 
3 149 148 154 
3 155 149 154 
3 156 155 154 
3 156 154 157 
3 158 153 159 
3 160 158 159 
3 153 152 159 
3 156 157 161 
3 162 156 161 
3 160 159 163 
3 150 162 151 
3 162 161 151 
3 164 160 165 
3 166 164 165 
3 160 163 165 
3 167 166 168 
3 166 165 168 
3 169 167 170 
3 167 168 170 
3 169 170 171 
3 172 169 173 
3 169 171 173 
3 174 172 175 
3 172 173 175 
3 176 174 177 
3 178 176 177 
3 174 175 177 
3 178 177 179 
3 180 178 181 
3 178 179 181 
3 180 181 182 
3 183 180 182 
3 183 182 184 
3 185 183 184 
3 186 185 184 
3 186 184 187 
3 186 187 188 
3 189 186 188 
3 190 189 188 
3 190 188 191 
3 190 191 192 
3 193 190 192 
3 193 192 145 
3 144 193 145 
3 127 128 154 
3 128 131 154 
3 171 40 42 
3 88 187 86 
3 66 179 64 
3 165 21 22 
3 125 154 148 
3 171 42 44 
3 173 171 44 
3 64 179 62 
3 119 121 148 
3 121 122 148 
3 187 184 85 
3 122 125 148 
3 86 187 85 
3 165 22 25 
3 173 44 46 
3 154 131 157 
3 131 133 157 
3 62 179 61 
3 133 134 157 
3 134 137 157 
3 179 177 61 
3 173 46 49 
3 119 148 146 
3 175 173 49 
3 175 49 50 
3 61 177 59 
3 112 115 146 
3 115 116 146 
3 116 119 146 
3 175 50 53 
3 59 177 56 
3 157 137 161 
3 177 175 54 
3 137 139 161 
3 175 53 54 
3 139 140 161 
3 56 177 54 
3 140 143 161 
3 85 184 83 
3 165 25 26 
3 112 146 145 
3 168 165 26 
3 83 184 80 
3 106 109 145 
3 109 111 145 
3 111 112 145 
3 168 26 28 
3 1 0 151 
3 80 184 79 
3 161 143 151 
3 143 1 151 
3 106 145 192 
3 184 182 79 
3 168 28 30 
3 100 103 192 
3 103 105 192 
3 105 106 192 
3 79 182 76 
3 0 4 152 
3 4 6 152 
3 168 30 33 
3 6 8 152 
3 170 168 33 
3 151 0 152 
3 76 182 74 
3 100 192 191 
3 97 99 191 
3 99 100 191 
3 170 33 34 
3 8 10 159 
3 10 12 159 
3 12 15 159 
3 152 8 159 
3 74 182 72 
3 182 181 72 
3 170 34 36 
3 92 94 188 
3 94 97 188 
3 97 191 188 
3 15 16 163 
3 159 15 163 
3 72 181 70 
3 92 188 90 
3 170 36 38 
3 163 16 19 
3 171 170 38 
3 90 188 187 
3 70 181 68 
3 90 187 88 
3 171 38 40 
3 165 163 21 
3 163 19 21 
3 68 181 66 
3 181 179 66 
3 125 127 154 
3 155 129 126 
3 155 130 129 
3 43 41 169 
3 87 186 89 
3 65 178 67 
3 23 20 164 
3 149 155 124 
3 45 43 169 
3 45 169 172 
3 63 178 65 
3 149 120 118 
3 149 123 120 
3 84 185 186 
3 149 124 123 
3 84 186 87 
3 24 23 164 
3 47 45 172 
3 156 130 155 
3 156 132 130 
3 60 178 63 
3 156 135 132 
3 156 136 135 
3 60 176 178 
3 48 47 172 
3 147 149 118 
3 48 172 174 
3 51 48 174 
3 58 176 60 
3 147 114 113 
3 147 117 114 
3 147 118 117 
3 52 51 174 
3 57 176 58 
3 162 136 156 
3 55 174 176 
3 162 138 136 
3 55 52 174 
3 162 141 138 
3 55 176 57 
3 162 142 141 
3 82 185 84 
3 27 24 164 
3 144 147 113 
3 27 164 166 
3 81 185 82 
3 144 108 107 
3 144 110 108 
3 144 113 110 
3 29 27 166 
3 150 3 2 
3 78 185 81 
3 150 142 162 
3 150 2 142 
3 193 144 107 
3 78 183 185 
3 31 29 166 
3 193 102 101 
3 193 104 102 
3 193 107 104 
3 77 183 78 
3 153 5 3 
3 153 7 5 
3 32 31 166 
3 153 9 7 
3 32 166 167 
3 153 3 150 
3 75 183 77 
3 190 193 101 
3 190 98 96 
3 190 101 98 
3 35 32 167 
3 158 11 9 
3 158 13 11 
3 158 14 13 
3 158 9 153 
3 73 183 75 
3 73 180 183 
3 37 35 167 
3 189 95 93 
3 189 96 95 
3 189 190 96 
3 160 17 14 
3 160 14 158 
3 71 180 73 
3 91 189 93 
3 39 37 167 
3 18 17 160 
3 39 167 169 
3 186 189 91 
3 69 180 71 
3 89 186 91 
3 41 39 169 
3 20 160 164 
3 20 18 160 
3 67 180 69 
3 67 178 180 
3 155 126 124 
3 194 195 196 
3 194 196 197 
3 198 194 197 
3 198 197 199 
3 200 198 199 
3 200 199 201 
3 202 200 201 
3 202 201 203 
3 204 202 203 
3 204 203 205 
3 206 204 205 
3 206 205 207 
3 206 207 208 
3 209 206 208 
3 210 209 208 
3 210 208 211 
3 210 211 212 
3 213 212 214 
3 213 210 212 
3 215 213 214 
3 216 214 217 
3 216 217 218 
3 216 215 214 
3 219 216 218 
3 220 218 221 
3 220 219 218 
3 222 220 221 
3 222 221 223 
3 224 222 223 
3 224 223 225 
3 224 225 226 
3 227 224 226 
3 228 227 226 
3 228 226 229 
3 230 228 229 
3 230 229 231 
3 232 230 231 
3 232 231 233 
3 234 232 233 
3 234 233 235 
3 236 234 235 
3 236 235 237 
3 238 236 237 
3 238 237 239 
3 240 238 239 
3 240 239 241 
3 240 241 242 
3 243 240 242 
3 244 243 242 
3 244 242 245 
3 244 245 246 
3 247 244 246 
3 248 246 249 
3 248 247 246 
3 250 249 251 
3 250 251 252 
3 250 248 249 
3 253 250 252 
3 253 252 254 
3 255 253 254 
3 256 254 257 
3 256 255 254 
3 258 257 259 
3 258 256 257 
3 260 259 261 
3 260 258 259 
3 262 261 263 
3 262 260 261 
3 264 263 265 
3 264 262 263 
3 266 265 267 
3 266 264 265 
3 268 267 269 
3 268 266 267 
3 270 268 269 
3 270 269 271 
3 270 271 272 
3 273 270 272 
3 274 272 275 
3 274 275 276 
3 274 273 272 
3 277 276 278 
3 277 274 276 
3 279 277 278 
3 280 278 281 
3 280 279 278 
3 282 281 283 
3 282 280 281 
3 284 283 285 
3 284 282 283 
3 286 285 287 
3 286 284 285 
3 288 287 289 
3 288 289 290 
3 288 286 287 
3 291 290 292 
3 291 288 290 
3 293 291 292 
3 294 292 295 
3 294 295 296 
3 294 293 292 
3 297 294 296 
3 297 296 298 
3 299 297 298 
3 300 298 301 
3 300 301 302 
3 300 299 298 
3 303 302 304 
3 303 300 302 
3 305 303 304 
3 306 304 307 
3 306 307 308 
3 306 305 304 
3 309 306 308 
3 310 308 311 
3 310 311 312 
3 310 309 308 
3 313 312 314 
3 313 310 312 
3 315 313 314 
3 316 314 317 
3 316 317 318 
3 316 315 314 
3 319 318 320 
3 319 316 318 
3 321 319 320 
3 322 320 323 
3 322 323 324 
3 322 321 320 
3 325 322 324 
3 325 324 326 
3 327 325 326 
3 328 327 326 
3 328 326 329 
3 328 329 330 
3 331 328 330 
3 331 330 332 
3 333 331 332 
3 334 333 332 
3 334 332 335 
3 334 335 336 
3 337 334 336 
3 337 336 196 
3 195 337 196 
3 338 339 340 
3 341 338 340 
3 341 340 342 
3 343 341 342 
3 344 345 346 
3 347 344 346 
3 343 342 348 
3 349 343 348 
3 350 349 348 
3 350 348 351 
3 352 347 353 
3 354 352 353 
3 347 346 353 
3 350 351 355 
3 356 350 355 
3 354 353 357 
3 344 356 345 
3 356 355 345 
3 358 354 359 
3 360 358 359 
3 354 357 359 
3 361 360 362 
3 360 359 362 
3 363 361 364 
3 361 362 364 
3 363 364 365 
3 366 363 367 
3 363 365 367 
3 368 366 369 
3 366 367 369 
3 370 368 371 
3 372 370 371 
3 368 369 371 
3 372 371 373 
3 374 372 375 
3 372 373 375 
3 374 375 376 
3 377 374 376 
3 377 376 378 
3 379 377 378 
3 380 379 378 
3 380 378 381 
3 380 381 382 
3 383 380 382 
3 384 383 382 
3 384 382 385 
3 384 385 386 
3 387 384 386 
3 387 386 339 
3 338 387 339 
3 321 322 348 
3 322 325 348 
3 365 234 236 
3 282 381 280 
3 260 373 258 
3 359 215 216 
3 319 348 342 
3 365 236 238 
3 367 365 238 
3 258 373 256 
3 313 315 342 
3 315 316 342 
3 381 378 279 
3 316 319 342 
3 280 381 279 
3 359 216 219 
3 367 238 240 
3 348 325 351 
3 325 327 351 
3 256 373 255 
3 327 328 351 
3 328 331 351 
3 373 371 255 
3 367 240 243 
3 313 342 340 
3 369 367 243 
3 369 243 244 
3 255 371 253 
3 306 309 340 
3 309 310 340 
3 310 313 340 
3 369 244 247 
3 253 371 250 
3 351 331 355 
3 371 369 248 
3 331 333 355 
3 369 247 248 
3 333 334 355 
3 250 371 248 
3 334 337 355 
3 279 378 277 
3 359 219 220 
3 306 340 339 
3 362 359 220 
3 277 378 274 
3 300 303 339 
3 303 305 339 
3 305 306 339 
3 362 220 222 
3 195 194 345 
3 274 378 273 
3 355 337 345 
3 337 195 345 
3 300 339 386 
3 378 376 273 
3 362 222 224 
3 294 297 386 
3 297 299 386 
3 299 300 386 
3 273 376 270 
3 194 198 346 
3 198 200 346 
3 362 224 227 
3 200 202 346 
3 364 362 227 
3 345 194 346 
3 270 376 268 
3 294 386 385 
3 291 293 385 
3 293 294 385 
3 364 227 228 
3 202 204 353 
3 204 206 353 
3 206 209 353 
3 346 202 353 
3 268 376 266 
3 376 375 266 
3 364 228 230 
3 286 288 382 
3 288 291 382 
3 291 385 382 
3 209 210 357 
3 353 209 357 
3 266 375 264 
3 286 382 284 
3 364 230 232 
3 357 210 213 
3 365 364 232 
3 284 382 381 
3 264 375 262 
3 284 381 282 
3 365 232 234 
3 359 357 215 
3 357 213 215 
3 262 375 260 
3 375 373 260 
3 319 321 348 
3 349 323 320 
3 349 324 323 
3 237 235 363 
3 281 380 283 
3 259 372 261 
3 217 214 358 
3 343 349 318 
3 239 237 363 
3 239 363 366 
3 257 372 259 
3 343 314 312 
3 343 317 314 
3 278 379 380 
3 343 318 317 
3 278 380 281 
3 218 217 358 
3 241 239 366 
3 350 324 349 
3 350 326 324 
3 254 372 257 
3 350 329 326 
3 350 330 329 
3 254 370 372 
3 242 241 366 
3 341 343 312 
3 242 366 368 
3 245 242 368 
3 252 370 254 
3 341 308 307 
3 341 311 308 
3 341 312 311 
3 246 245 368 
3 251 370 252 
3 356 330 350 
3 249 368 370 
3 356 332 330 
3 249 246 368 
3 356 335 332 
3 249 370 251 
3 356 336 335 
3 276 379 278 
3 221 218 358 
3 338 341 307 
3 221 358 360 
3 275 379 276 
3 338 302 301 
3 338 304 302 
3 338 307 304 
3 223 221 360 
3 344 197 196 
3 272 379 275 
3 344 336 356 
3 344 196 336 
3 387 338 301 
3 272 377 379 
3 225 223 360 
3 387 296 295 
3 387 298 296 
3 387 301 298 
3 271 377 272 
3 347 199 197 
3 347 201 199 
3 226 225 360 
3 347 203 201 
3 226 360 361 
3 347 197 344 
3 269 377 271 
3 384 387 295 
3 384 292 290 
3 384 295 292 
3 229 226 361 
3 352 205 203 
3 352 207 205 
3 352 208 207 
3 352 203 347 
3 267 377 269 
3 267 374 377 
3 231 229 361 
3 383 289 287 
3 383 290 289 
3 383 384 290 
3 354 211 208 
3 354 208 352 
3 265 374 267 
3 285 383 287 
3 233 231 361 
3 212 211 354 
3 233 361 363 
3 380 383 285 
3 263 374 265 
3 283 380 285 
3 235 233 363 
3 214 354 358 
3 214 212 354 
3 261 374 263 
3 261 372 374 
3 349 320 318 
