ply
format ascii 1.0
comment VCGLIB generated
element vertex 466
property float x
property float y
property float z
property float nx
property float ny
property float nz
element face 940
property list uchar int vertex_indices
end_header
5.007873 -18.66688 -2.841875 0.2416699 0.7778059 0.5801841 
13.67024 -13.65195 -2.841875 -0.02394676 0.07894422 -0.9965914 
12.1378 -20.99372 -2.841875 -0.1262494 0.1952329 -0.9725971 
18.65114 -4.990267 -2.841875 -0.07848275 0.05298835 -0.9955062 
21.00996 -12.10968 -2.841875 -0.2760317 0.1553048 -0.9485183 
0.80374 -15.26649 -2.841875 -0.02290583 0.06038994 0.997912 
1.093453 -15.02682 -2.841875 0.01908626 -0.007418893 -0.9997903 
1.31446 -14.72263 -2.841875 0.02314339 -0.004760658 -0.9997208 
0.463526 -15.42659 -2.841875 -0.01618832 0.07097801 0.9973465 
1.452875 -14.37303 -2.841875 0.09181654 0.03645237 -0.9951085 
0.094186 -15.49704 -2.841875 -0.01182097 0.08216292 0.9965488 
0 -24.25 -2.841875 0.07699736 0.05710356 -0.9953947 
1.5 -14 -2.841875 0.1355663 0.05704985 -0.9891244 
-0.281072 -15.47343 -2.841875 -0.01039495 0.0735001 0.997241 
1.452875 -13.62697 -2.841875 0.1644641 0.07968313 -0.9831592 
1.31446 -13.27737 -2.841875 0.1530461 0.08772895 -0.9843173 
18.63967 4.977365 -2.841875 -0.09388483 0.007115059 -0.9955577 
24.25 0 -2.841875 -0.3147472 -0.01023465 -0.9491203 
-5.007873 -18.66688 -2.841875 -0.1573013 0.0313054 -0.9870543 
-0.638669 -15.35724 -2.841875 -0.007615376 -0.01063843 -0.9999144 
-0.956136 -15.15577 -2.841875 -0.01362503 0.00180535 -0.9999055 
-1.213526 -14.88168 -2.841875 -0.01871315 0.001944763 -0.999823 
-1.394665 -14.55219 -2.841875 -0.02395915 0.003805706 -0.9997057 
-1.488172 -14.188 -2.841875 -0.05162999 0.02634187 -0.9983188 
-1.488172 -13.812 -2.841875 -0.1271463 0.06598634 -0.9896866 
4.143256 -5.008336 -2.841875 -0.5373527 0.6442136 0.5442802 
4.738296 -4.449556 -2.841875 -0.6090831 0.5771073 0.5440266 
5.25861 -3.820604 -2.841875 -0.6767732 0.495508 0.5444722 
3.482874 -5.488132 -2.841875 -0.4517033 0.7066268 0.5446491 
5.695993 -3.131399 -2.841875 -0.7336574 0.4061131 0.544811 
2.767565 -5.881376 -2.841875 -0.3589255 0.7577647 0.5449451 
1.093453 -12.97318 -2.841875 0.1091277 0.09253153 -0.9897116 
6.043547 -2.39281 -2.841875 -0.7788364 0.3103051 0.5450915 
2.00861 -6.181867 -2.841875 -0.2604685 0.796809 0.5452078 
0.80374 -12.73351 -2.841875 0.03832928 0.08034089 -0.9960302 
6.295791 -1.616484 -2.841875 -0.8158982 0.2106851 0.538444 
1.217979 -6.384867 -2.841875 -0.1594178 0.8308941 0.5331051 
0.463526 -12.57341 -2.841875 0.04392296 0.09254603 -0.9947392 
6.448746 -0.814666 -2.841875 -0.8416205 0.1070108 0.5293615 
0.408138 -6.487174 -2.841875 -0.05385084 0.8480912 0.5271066 
0.094186 -12.50296 -2.841875 0.004426061 0.06982256 -0.9975496 
6.5 0 -2.841875 -0.8502783 0.0002973648 0.5263334 
-0.408138 -6.487174 -2.841875 0.05385084 0.8480912 0.5271066 
-0.281072 -12.52657 -2.841875 -0.03065419 0.09231199 -0.9952582 
6.448746 0.814666 -2.841875 -0.8416205 -0.1070108 0.5293615 
-1.217979 -6.384867 -2.841875 0.1594178 0.8308941 0.5331051 
-0.638669 -12.64276 -2.841875 -0.05674822 0.0910576 -0.9942274 
6.295791 1.616484 -2.841875 -0.8158982 -0.2106851 0.538444 
-2.00861 -6.181867 -2.841875 0.2604685 0.796809 0.5452078 
-0.956136 -12.84423 -2.841875 -0.04990885 0.0804076 -0.9955118 
6.043547 2.39281 -2.841875 -0.7788364 -0.3103051 0.5450915 
-2.767565 -5.881376 -2.841875 0.3589255 0.7577647 0.5449451 
-1.213526 -13.11832 -2.841875 -0.1241652 0.09076741 -0.9881014 
5.695993 3.131399 -2.841875 -0.7336649 -0.4061252 0.5447918 
-3.482874 -5.488132 -2.841875 0.4517033 0.7066268 0.5446491 
-1.394665 -13.44781 -2.841875 -0.1647862 0.08798201 -0.9823974 
13.67407 13.59228 -2.841875 -0.05554764 -0.03652531 -0.9977877 
21.02187 12.08898 -2.841875 -0.2684533 -0.1618205 -0.9496036 
5.25861 3.820604 -2.841875 -0.6767732 -0.495508 0.5444722 
4.738296 4.449556 -2.841875 -0.6090831 -0.5771073 0.5440266 
-13.67024 -13.65195 -2.841875 0.05576782 0.03754064 -0.9977378 
-12.1378 -20.99372 -2.841875 0.0858622 0.2504772 -0.9643075 
-4.143256 -5.008336 -2.841875 0.5373527 0.6442136 0.5442802 
-4.738296 -4.449556 -2.841875 0.6090831 0.5771073 0.5440266 
4.143256 5.008336 -2.841875 -0.5373527 -0.6442136 0.5442802 
-5.25861 -3.820604 -2.841875 0.6767732 0.495508 0.5444722 
3.482874 5.488132 -2.841875 -0.4517033 -0.7066268 0.5446491 
-5.695993 -3.131399 -2.841875 0.7336574 0.4061131 0.544811 
1.093453 12.97318 -2.841875 0.110779 -0.09357942 -0.9894296 
2.767565 5.881376 -2.841875 -0.3589255 -0.7577647 0.5449451 
2.00861 6.181867 -2.841875 -0.2604685 -0.796809 0.5452078 
0.80374 12.73351 -2.841875 0.03832928 -0.08034089 -0.9960302 
1.217979 6.384867 -2.841875 -0.1594178 -0.8308941 0.5331051 
1.31446 13.27737 -2.841875 0.1460474 -0.08768939 -0.9853835 
0.463526 12.57341 -2.841875 0.04392296 -0.09254603 -0.9947392 
0.408138 6.487174 -2.841875 -0.05385084 -0.8480912 0.5271066 
1.452875 13.62697 -2.841875 0.1549366 -0.07951574 -0.9847192 
0.094186 12.50296 -2.841875 0.004426061 -0.06982256 -0.9975496 
-0.408138 6.487174 -2.841875 0.05385084 -0.8480912 0.5271066 
-0.281072 12.52657 -2.841875 -0.03065419 -0.09231199 -0.9952582 
-1.217979 6.384867 -2.841875 0.1594178 -0.8308941 0.5331051 
-0.638669 12.64276 -2.841875 -0.05674822 -0.0910576 -0.9942274 
-2.00861 6.181867 -2.841875 0.2604685 -0.796809 0.5452078 
5.096512 18.58702 -2.841875 0.1401711 -0.00158085 -0.990126 
1.452875 14.37303 -2.841875 0.04220274 -0.02214442 -0.9988636 
1.31446 14.72263 -2.841875 0.02048397 -0.002994543 -0.9997857 
1.5 14 -2.841875 0.0584117 -0.03261121 -0.9977598 
12.21488 20.94897 -2.841875 -0.09049283 -0.2103842 -0.9734216 
-18.65114 -4.990267 -2.841875 0.09460101 -0.007158588 -0.9954895 
-21.00996 -12.10968 -2.841875 0.2688076 0.1627827 -0.9493389 
-6.043547 -2.39281 -2.841875 0.7788364 0.3103051 0.5450915 
-6.295791 -1.616484 -2.841875 0.8158982 0.2106851 0.538444 
-6.448746 -0.814666 -2.841875 0.8416205 0.1070108 0.5293615 
-6.5 0 -2.841875 0.8502783 0.0002973648 0.5263334 
-0.956136 12.84423 -2.841875 -0.09385693 -0.0947486 -0.9910669 
-2.767565 5.881376 -2.841875 0.3589255 -0.7577647 0.5449451 
1.093453 15.02682 -2.841875 0.01556515 -0.00251768 -0.9998757 
-1.213526 13.11832 -2.841875 -0.1216896 -0.08984716 -0.9884934 
-3.482874 5.488132 -2.841875 0.4517033 -0.7066268 0.5446491 
0.80374 15.26649 -2.841875 0.009291788 -0.003234732 -0.9999516 
-1.394665 13.44781 -2.841875 -0.1653292 -0.08783814 -0.9823191 
0.463526 15.42659 -2.841875 0.008080026 -0.07543987 0.9971176 
0.094186 15.49704 -2.841875 0.01099577 -0.080048 0.9967304 
-18.63967 4.977365 -2.841875 0.07725935 -0.05306288 -0.995598 
-6.448746 0.814666 -2.841875 0.8416205 -0.1070108 0.5293615 
-6.295791 1.616484 -2.841875 0.8158982 -0.2106851 0.538444 
-6.043547 2.39281 -2.841875 0.7788364 -0.3103051 0.5450915 
-5.695993 3.131399 -2.841875 0.7336649 -0.4061252 0.5447918 
-5.096512 18.58702 -2.841875 -0.254327 -0.7813454 0.5699273 
-1.488172 14.188 -2.841875 -0.1139021 -0.0458768 -0.9924322 
-1.488172 13.812 -2.841875 -0.1321746 -0.06530973 -0.9890726 
-1.394665 14.55219 -2.841875 -0.02531477 0.001922668 -0.9996777 
-1.213526 14.88168 -2.841875 -0.02102062 0.006016438 -0.9997609 
-0.956136 15.15577 -2.841875 0.02752114 -0.05492635 0.9981111 
-0.638669 15.35724 -2.841875 0.01899547 -0.0694012 0.997408 
-0.281072 15.47343 -2.841875 0.01284933 -0.0836941 0.9964086 
0 24.25 -2.841875 0.3792948 -0.10685 0.9190857 
-24.25 0 -2.841875 0.314741 -0.0007806045 -0.9491773 
-13.67407 13.59228 -2.841875 0.0249803 -0.07998453 -0.996483 
-5.25861 3.820604 -2.841875 0.6767732 -0.495508 0.5444722 
-4.738296 4.449556 -2.841875 0.6090831 -0.5771073 0.5440266 
-4.143256 5.008336 -2.841875 0.5373527 -0.6442136 0.5442802 
-21.02187 12.08898 -2.841875 0.2745371 -0.1541002 -0.9491483 
-12.21488 20.94897 -2.841875 0.128517 -0.2000735 -0.9713156 
-12.34336 -20.0089 -1.841874 0.08110858 0.1753009 -0.9811682 
-12.1378 -20.99372 -1.841874 0.08459965 0.2590941 -0.9621399 
-13.67024 -13.65195 -1.841874 0.0580216 0.03849795 -0.9975728 
-5.007873 -18.66688 -1.841874 -0.1361222 -0.03044184 -0.9902242 
-21.00996 -12.10968 -1.841874 0.2656924 0.1638381 -0.950034 
-0.671668 -23.50118 -1.841874 -0.1669183 0.110895 0.9797145 
0 -24.25 -1.841874 -0.07545545 0.02243443 -0.9968967 
-20.69343 -11.15435 -1.841874 0.2467166 0.1456476 -0.9580802 
-18.65114 -4.990267 -1.841874 0.09368882 -0.006220515 -0.9955821 
5.007873 -18.66688 -1.841874 0.2211937 0.7926413 0.5681489 
-24.25 0 -1.841874 0.3095083 0.007566832 -0.9508666 
11.18139 -20.6816 -1.841874 -0.04813947 0.1764788 -0.9831266 
12.1378 -20.99372 -1.841874 -0.1299356 0.1958272 -0.971992 
-23.4968 0.668227 -1.841874 0.2872419 -0.00399828 -0.9578497 
-18.63967 4.977365 -1.841874 0.07708947 -0.05187756 -0.9956736 
13.67024 -13.65195 -1.841874 -0.02718487 0.08021934 -0.9964064 
-21.02187 12.08898 -1.841874 0.2711718 -0.1529295 -0.9503044 
20.02506 -12.31663 -1.841874 -0.2345341 0.1421776 -0.9616544 
21.00996 -12.10968 -1.841874 -0.2727273 0.1541794 -0.9496571 
-20.0349 12.29091 -1.841874 0.2384499 -0.1395807 -0.9610717 
-13.67407 13.59228 -1.841874 0.02475212 -0.07963519 -0.9965167 
18.65114 -4.990267 -1.841874 -0.07832988 0.0518151 -0.99558 
-12.21488 20.94897 -1.841874 0.1298486 -0.2037012 -0.970384 
23.49833 -0.669959 -1.841874 -0.2774319 0.00806111 -0.9607115 
24.25 0 -1.841874 -0.3110629 -0.002480268 -0.9503861 
-11.25836 20.63158 -1.841874 0.05281728 -0.1947078 -0.9794382 
-5.096512 18.58702 -1.841874 -0.2351174 -0.8057543 0.5435805 
18.63967 4.977365 -1.841874 -0.09294757 0.006175732 -0.9956518 
0 24.25 -1.841874 0.2516114 -0.1028294 0.9623502 
20.70189 11.13374 -1.841874 -0.246033 -0.1390342 -0.9592379 
21.02187 12.08898 -1.841874 -0.2652632 -0.1628212 -0.9503287 
5.096512 18.58702 -1.841874 0.1390538 0.002075456 -0.9902827 
0.672671 23.50256 -1.841874 0.1817027 -0.0872567 0.9794745 
13.67407 13.59228 -1.841874 -0.05771481 -0.03687816 -0.9976518 
12.21488 20.94897 -1.841874 -0.08697554 -0.2558974 -0.9627833 
12.41096 19.96041 -1.841874 -0.08139669 -0.184336 -0.979487 
0.094186 -12.50296 -1.841874 0.007272029 0.1163254 -0.9931845 
0.463526 -12.57341 -1.841874 0.03565066 0.1134789 -0.9929006 
0.80374 -12.73351 -1.841874 0.07468171 0.1224057 -0.9896663 
1.452875 -14.37303 -1.841874 0.1192659 0.05460523 -0.9913597 
1.5 -14 -1.841874 0.1483958 0.0775878 -0.9858797 
1.31446 -14.72263 -1.841874 0.02459169 0.006586574 -0.9996759 
1.093453 -12.97318 -1.841874 0.177518 0.1189465 -0.9769028 
1.31446 -13.27737 -1.841874 0.2142331 0.1157765 -0.9698969 
1.093453 -15.02682 -1.841874 -0.0322731 0.04843736 0.9983047 
1.452875 -13.62697 -1.841874 0.1746239 0.09755785 -0.9797903 
0.80374 -15.26649 -1.841874 -0.02236166 0.06439027 0.9976742 
0.463526 -15.42659 -1.841874 -0.01755482 0.1510055 0.988377 
0.094186 -15.49704 -1.841874 -0.01716343 0.1622344 0.986603 
-0.281072 -15.47343 -1.841874 -0.01107701 0.08273989 0.9965096 
-0.638669 -15.35724 -1.841874 -0.005770079 0.06642738 0.9977746 
-0.956136 -15.15577 -1.841874 -0.001821436 0.05032154 0.9987314 
-1.213526 -14.88168 -1.841874 -0.01842094 0.01546092 -0.9997108 
-1.394665 -14.55219 -1.841874 -0.05475357 0.03162847 -0.9979988 
-1.488172 -14.188 -1.841874 -0.07612206 0.04441069 -0.996109 
-1.488172 -13.812 -1.841874 -0.1641848 0.09206201 -0.9821242 
-1.394665 -13.44781 -1.841874 -0.1729385 0.1044451 -0.9793791 
-1.213526 -13.11832 -1.841874 -0.1888887 0.1166247 -0.9750486 
-0.956136 -12.84423 -1.841874 -0.08597583 0.1175206 -0.9893417 
-0.638669 -12.64276 -1.841874 -0.05904324 0.1248887 -0.9904124 
-0.281072 -12.52657 -1.841874 -0.02180831 0.1156072 -0.9930556 
6.448746 -0.814666 -1.841874 -0.9464799 0.1180062 0.3004169 
6.5 0 -1.841874 -0.9533244 -0.0003443934 0.3019479 
6.295791 -1.616484 -1.841874 -0.9237579 0.2359499 0.3016605 
6.043547 -2.39281 -1.841874 -0.8864892 0.3503329 0.3023306 
5.695993 -3.131399 -1.841874 -0.8352399 0.4592422 0.3024416 
5.25861 -3.820604 -1.841874 -0.7706606 0.5608667 0.3025075 
4.738296 -4.449556 -1.841874 -0.6937634 0.6535835 0.3025241 
4.143256 -5.008336 -1.841874 -0.608435 0.7336806 0.3025222 
3.482874 -5.488132 -1.841874 -0.5110693 0.8045582 0.3024803 
2.767565 -5.881376 -1.841874 -0.4055918 0.862586 0.3023916 
2.00861 -6.181867 -1.841874 -0.2936847 0.9068564 0.3022594 
1.217979 -6.384867 -1.841874 -0.1773302 0.9370103 0.3009413 
0.408138 -6.487174 -1.841874 -0.05820181 0.9521405 0.3000685 
-0.408138 -6.487174 -1.841874 0.05820181 0.9521405 0.3000685 
-1.217979 -6.384867 -1.841874 0.1773302 0.9370103 0.3009413 
-2.767565 -5.881376 -1.841874 0.4055918 0.862586 0.3023916 
-2.00861 -6.181867 -1.841874 0.2936847 0.9068564 0.3022594 
-3.482874 -5.488132 -1.841874 0.5110693 0.8045582 0.3024803 
-4.143256 -5.008336 -1.841874 0.608435 0.7336806 0.3025222 
-4.738296 -4.449556 -1.841874 0.6937634 0.6535835 0.3025241 
-5.25861 -3.820604 -1.841874 0.7706606 0.5608667 0.3025075 
-5.695993 -3.131399 -1.841874 0.8352399 0.4592422 0.3024416 
-6.043547 -2.39281 -1.841874 0.8864892 0.3503329 0.3023306 
-6.295791 -1.616484 -1.841874 0.9237579 0.2359499 0.3016605 
-6.448746 -0.814666 -1.841874 0.9464799 0.1180062 0.3004169 
-6.5 0 -1.841874 0.9533244 -0.0003443934 0.3019479 
-6.448746 0.814666 -1.841874 0.9464799 -0.1180062 0.3004169 
-6.295791 1.616484 -1.841874 0.9237579 -0.2359499 0.3016605 
-6.043547 2.39281 -1.841874 0.8864892 -0.3503329 0.3023306 
-5.695993 3.131399 -1.841874 0.8352399 -0.4592422 0.3024416 
-5.25861 3.820604 -1.841874 0.7706606 -0.5608667 0.3025075 
-4.738296 4.449556 -1.841874 0.6937634 -0.6535835 0.3025241 
-4.143256 5.008336 -1.841874 0.608435 -0.7336806 0.3025222 
-3.482874 5.488132 -1.841874 0.5110693 -0.8045582 0.3024803 
-2.00861 6.181867 -1.841874 0.2936847 -0.9068564 0.3022594 
-2.767565 5.881376 -1.841874 0.4055918 -0.862586 0.3023916 
-0.408138 6.487174 -1.841874 0.05820181 -0.9521405 0.3000685 
-1.217979 6.384867 -1.841874 0.1773302 -0.9370103 0.3009413 
1.217979 6.384867 -1.841874 -0.1773302 -0.9370103 0.3009413 
0.408138 6.487174 -1.841874 -0.05820181 -0.9521405 0.3000685 
2.00861 6.181867 -1.841874 -0.2936847 -0.9068564 0.3022594 
2.767565 5.881376 -1.841874 -0.4055918 -0.862586 0.3023916 
3.482874 5.488132 -1.841874 -0.5110693 -0.8045582 0.3024803 
4.143256 5.008336 -1.841874 -0.608435 -0.7336806 0.3025222 
4.738296 4.449556 -1.841874 -0.6937634 -0.6535835 0.3025241 
5.25861 3.820604 -1.841874 -0.7706606 -0.5608667 0.3025075 
5.695993 3.131399 -1.841874 -0.8352399 -0.4592422 0.3024416 
6.043547 2.39281 -1.841874 -0.8864892 -0.3503329 0.3023306 
6.295791 1.616484 -1.841874 -0.9237579 -0.2359499 0.3016605 
6.448746 0.814666 -1.841874 -0.9464799 -0.1180062 0.3004169 
0.094186 15.49704 -1.841874 0.01920458 -0.1652247 0.986069 
0.463526 15.42659 -1.841874 0.01006576 -0.07837239 0.9968733 
0.80374 15.26649 -1.841874 0.003257813 -0.06053365 0.9981608 
1.452875 13.62697 -1.841874 0.1622418 -0.09798969 -0.9818735 
1.5 14 -1.841874 0.08571136 -0.05321465 -0.9948978 
1.31446 13.27737 -1.841874 0.2031548 -0.1154889 -0.9723119 
1.093453 15.02682 -1.841874 0.01477693 -0.01880843 -0.9997139 
1.31446 14.72263 -1.841874 0.02167742 -0.01529052 -0.9996481 
1.093453 12.97318 -1.841874 0.1712681 -0.1188161 -0.9780337 
1.452875 14.37303 -1.841874 0.06430943 -0.03734706 -0.9972309 
0.80374 12.73351 -1.841874 0.07468171 -0.1224057 -0.9896663 
0.463526 12.57341 -1.841874 0.03565066 -0.1134789 -0.9929006 
0.094186 12.50296 -1.841874 0.007272029 -0.1163254 -0.9931845 
-0.281072 12.52657 -1.841874 -0.02180831 -0.1156072 -0.9930556 
-0.638669 12.64276 -1.841874 -0.05904324 -0.1248887 -0.9904124 
-0.956136 12.84423 -1.841874 -0.1556194 -0.1203345 -0.9804602 
-1.213526 13.11832 -1.841874 -0.1938111 -0.1169227 -0.9740464 
-1.394665 13.44781 -1.841874 -0.1754299 -0.1040845 -0.9789743 
-1.488172 13.812 -1.841874 -0.1686712 -0.09150463 -0.9814157 
-1.488172 14.188 -1.841874 -0.1272769 -0.06578907 -0.989683 
-1.394665 14.55219 -1.841874 -0.05490096 -0.02563843 -0.9981626 
-1.213526 14.88168 -1.841874 0.03679795 -0.04163984 0.9984548 
-0.956136 15.15577 -1.841874 0.02658328 -0.05812166 0.9979555 
-0.638669 15.35724 -1.841874 0.02067187 -0.1447895 0.9892465 
-0.281072 15.47343 -1.841874 0.01573595 -0.1665538 0.9859068 
-12.44804 -20.04307 -1.841874 0.08460061 0.1785968 -0.9802785 
12.69134 -13.44763 -1.841874 0.004136322 0.07144167 -0.9974362 
17.70189 -5.304776 -1.841874 -0.04531326 0.05407576 -0.9975082 
4.263457 -17.99916 -1.841874 0.2523104 0.7108015 0.6565826 
17.97602 4.229321 -1.841874 -0.06642657 0.02371305 -0.9975095 
-5.318118 -17.71622 -1.841874 0.06148506 0.1994262 0.977982 
5.146812 -5.455302 -1.841874 -0.6637093 0.7032708 0.2547553 
5.745333 -4.820907 -1.841874 -0.7405009 0.6219552 0.2546176 
4.47869 -6.015924 -1.841874 -0.5781077 0.7752389 0.2545508 
6.266159 -4.121317 -1.841874 -0.8073508 0.5322787 0.2546843 
3.75 -6.495191 -1.841874 -0.4846613 0.8367622 0.2548182 
6.702245 -3.365994 -1.841874 -0.8633411 0.4353154 0.2552306 
2.970598 -6.886621 -1.841874 -0.3846692 0.8870863 0.2551615 
7.047695 -2.565151 -1.841874 -0.9119345 0.3319732 0.2411831 
2.151024 -7.184921 -1.841874 -0.2786979 0.9296674 0.2409277 
7.297836 -1.729619 -1.841874 -0.9442708 0.2245026 0.2407306 
1.302361 -7.386058 -1.841874 -0.1686845 0.9632882 0.2088571 
7.449288 -0.870697 -1.841874 -0.9639672 0.1137162 0.2404909 
0.436086 -7.487311 -1.841874 0.006292962 0.07778274 -0.9969504 
7.5 0 -1.841874 -0.9707332 0.00123456 0.2401574 
-0.436086 -7.487311 -1.841874 0.004344488 0.1157677 -0.9932668 
7.449288 0.870697 -1.841874 -0.9639672 -0.1137162 0.2404909 
-1.302361 -7.386058 -1.841874 0.1683796 0.9630659 0.2101247 
7.297836 1.729619 -1.841874 -0.9442708 -0.2245026 0.2407306 
-2.151024 -7.184921 -1.841874 0.2786979 0.9296674 0.2409277 
7.047695 2.565151 -1.841874 -0.9119345 -0.3319732 0.2411831 
-2.970598 -6.886621 -1.841874 0.3846692 0.8870863 0.2551615 
6.702245 3.365994 -1.841874 -0.8633411 -0.4353154 0.2552306 
-3.75 -6.495191 -1.841874 0.4846613 0.8367622 0.2548182 
13.47363 12.61258 -1.841874 -0.05110657 -0.01391031 -0.9985963 
6.266159 4.121317 -1.841874 -0.8073508 -0.5322787 0.2546843 
5.745333 4.820907 -1.841874 -0.7405009 -0.6219552 0.2546176 
5.146812 5.455302 -1.841874 -0.6637093 -0.7032708 0.2547553 
-13.46461 -12.67332 -1.841874 0.05130099 0.01494077 -0.9985715 
-4.47869 -6.015924 -1.841874 0.5781077 0.7752389 0.2545508 
-5.146812 -5.455302 -1.841874 0.6637093 0.7032708 0.2547553 
-5.745333 -4.820907 -1.841874 0.7405009 0.6219552 0.2546176 
4.47869 6.015924 -1.841874 -0.5781077 -0.7752389 0.2545508 
-6.266159 -4.121317 -1.841874 0.8073508 0.5322787 0.2546843 
3.75 6.495191 -1.841874 -0.4846613 -0.8367622 0.2548182 
-6.702245 -3.365994 -1.841874 0.8633411 0.4353154 0.2552306 
2.151024 7.184921 -1.841874 -0.2786979 -0.9296674 0.2409277 
2.970598 6.886621 -1.841874 -0.3846692 -0.8870863 0.2551615 
1.302361 7.386058 -1.841874 -0.1686845 -0.9632882 0.2088571 
0.436086 7.487311 -1.841874 -0.006205823 -0.09360535 -0.99559 
5.411438 17.6379 -1.841874 -0.06406321 -0.184994 0.9806494 
-0.436086 7.487311 -1.841874 0.004344488 -0.1157677 -0.9932668 
-1.302361 7.386058 -1.841874 0.1683796 -0.9630659 0.2101247 
-17.98577 -4.243752 -1.841874 0.06695575 -0.02372343 -0.9974739 
-7.449288 -0.870697 -1.841874 0.9639672 0.1137162 0.2404909 
-7.5 0 -1.841874 0.9707332 0.00123456 0.2401574 
-7.297836 -1.729619 -1.841874 0.9442708 0.2245026 0.2407306 
-7.047695 -2.565151 -1.841874 0.9119345 0.3319732 0.2411831 
-2.151024 7.184921 -1.841874 0.2786979 -0.9296674 0.2409277 
-2.970598 6.886621 -1.841874 0.3846692 -0.8870863 0.2551615 
-3.75 6.495191 -1.841874 0.4846613 -0.8367622 0.2548182 
-4.353207 17.91806 -1.841874 -0.2634708 -0.7217531 0.6400434 
-6.702245 3.365994 -1.841874 0.8633411 -0.4353154 0.2552306 
-6.266159 4.121317 -1.841874 0.8073508 -0.5322787 0.2546843 
-17.69145 5.294992 -1.841874 0.04420641 -0.05419477 -0.9975514 
-7.047695 2.565151 -1.841874 0.9119345 -0.3319732 0.2411831 
-7.297836 1.729619 -1.841874 0.9442708 -0.2245026 0.2407306 
-7.449288 0.870697 -1.841874 0.9639672 -0.1137162 0.2404909 
-12.69318 13.39773 -1.841874 -0.005475404 -0.0712963 -0.9974402 
-4.47869 6.015924 -1.841874 0.5781077 -0.7752389 0.2545508 
-5.146812 5.455302 -1.841874 0.6637093 -0.7032708 0.2547553 
-5.745333 4.820907 -1.841874 0.7405009 -0.6219552 0.2546176 
-8.572834 -19.8303 2.841875 -0.05067992 0.1294295 -0.9902927 
-17.3401 -12.88081 2.841875 0.1543148 0.1077998 -0.9821233 
-0.744416 -23.58228 -1.841874 -0.1638676 0.1104387 0.9802809 
-20.80432 -11.13105 -1.841874 0.2523045 0.1484895 -0.9561868 
2.503936 -21.45844 2.841875 -0.1935255 0.1445457 0.9703888 
-21.45057 -2.495134 2.841875 0.1819793 0.01628562 -0.9831675 
11.15889 -20.7894 -1.841874 -0.05001013 0.1828741 -0.9818636 
-23.58463 0.746515 -1.841874 0.2899564 -0.004272243 -0.9570304 
12.90402 -17.32284 2.841875 -0.06571825 0.009914143 -0.997789 
-19.83077 8.533175 2.841875 0.1691615 -0.07901368 -0.982416 
20.0607 -12.42419 -1.841874 -0.2371416 0.1445037 -0.9606678 
-20.07365 12.40661 -1.841874 0.2353752 -0.1430391 -0.9613211 
19.83055 -8.549972 2.841875 -0.1699934 0.07950967 -0.9822324 
-12.94448 17.27062 2.841875 0.06577323 -0.009079192 -0.9977933 
23.58635 -0.748044 -1.841874 -0.2811882 0.008850773 -0.9596118 
-11.23399 20.75441 -1.841874 0.05476717 -0.2003298 -0.9781966 
21.44483 2.488683 2.841875 -0.1818863 -0.01620647 -0.983186 
-2.548256 21.41851 2.793754 0.2538975 -0.2052529 0.9452022 
20.82143 11.10928 -1.841874 -0.2498431 -0.1404309 -0.9580488 
0.743305 23.58105 -1.841874 0.1788476 -0.08631475 0.9800833 
17.34797 12.84063 2.841875 -0.1535617 -0.1068043 -0.9823501 
8.655698 19.76799 2.841875 0.04863131 -0.1372587 -0.9893407 
12.52981 19.99985 -1.841874 -0.08537397 -0.1883235 -0.9783893 
6.5 0 0.1581255 -0.975629 -0.0006225461 -0.2194256 
6.448746 0.814666 0.1581255 -0.9675501 -0.1232014 -0.2206087 
6.295791 1.616484 0.1581255 -0.9375583 -0.2412124 -0.2506014 
6.043547 2.39281 0.1581255 -0.8996171 -0.3570396 -0.2514194 
5.695993 3.131399 0.1581255 -0.8480284 -0.4673887 -0.2497914 
5.25861 3.820604 0.1581255 -0.7823908 -0.5700981 -0.2507048 
4.738296 4.449556 0.1581255 -0.7150886 -0.6705157 -0.1976283 
4.143256 5.008336 0.1581255 -0.6249982 -0.755187 -0.1976612 
3.482874 5.488132 0.1581255 -0.5197842 -0.8168375 -0.2502019 
2.767565 5.881376 0.1581255 -0.4130198 -0.8755409 -0.2506846 
2.00861 6.181867 0.1581255 -0.2996558 -0.9201315 -0.2521198 
1.217979 6.384867 0.1581255 -0.1839137 -0.9578732 -0.2205781 
0.408138 6.487174 0.1581255 -0.06085786 -0.9736143 -0.2199355 
-0.408138 6.487174 0.1581255 0.06085786 -0.9736143 -0.2199355 
-1.217979 6.384867 0.1581255 0.1839137 -0.9578732 -0.2205781 
-2.00861 6.181867 0.1581255 0.2996558 -0.9201315 -0.2521198 
-2.767565 5.881376 0.1581255 0.4130198 -0.8755409 -0.2506846 
-3.482874 5.488132 0.1581255 0.5197842 -0.8168375 -0.2502019 
-4.143256 5.008336 0.1581255 0.6249982 -0.755187 -0.1976612 
-4.738296 4.449556 0.1581255 0.7150886 -0.6705157 -0.1976283 
-5.25861 3.820604 0.1581255 0.7823908 -0.5700981 -0.2507048 
-5.695993 3.131399 0.1581255 0.8480284 -0.4673887 -0.2497914 
-6.043547 2.39281 0.1581255 0.8996171 -0.3570396 -0.2514194 
-6.295791 1.616484 0.1581255 0.9375583 -0.2412124 -0.2506014 
-6.448746 0.814666 0.1581255 0.9675501 -0.1232014 -0.2206087 
-6.5 0 0.1581255 0.975629 -0.0006225461 -0.2194256 
-6.448746 -0.814666 0.1581255 0.9675501 0.1232014 -0.2206087 
-6.295791 -1.616484 0.1581255 0.9375583 0.2412124 -0.2506014 
-6.043547 -2.39281 0.1581255 0.8996171 0.3570396 -0.2514194 
-5.695993 -3.131399 0.1581255 0.8480284 0.4673887 -0.2497914 
-5.25861 -3.820604 0.1581255 0.7823908 0.5700981 -0.2507048 
-4.738296 -4.449556 0.1581255 0.7150886 0.6705157 -0.1976283 
-4.143256 -5.008336 0.1581255 0.6249982 0.755187 -0.1976612 
-3.482874 -5.488132 0.1581255 0.5197842 0.8168375 -0.2502019 
-2.767565 -5.881376 0.1581255 0.4130198 0.8755409 -0.2506846 
-2.00861 -6.181867 0.1581255 0.2996558 0.9201315 -0.2521198 
-1.217979 -6.384867 0.1581255 0.1839137 0.9578732 -0.2205781 
-0.408138 -6.487174 0.1581255 0.06199969 0.9733623 -0.2207305 
0.408138 -6.487174 0.1581255 -0.06085786 0.9736143 -0.2199355 
1.217979 -6.384867 0.1581255 -0.1839137 0.9578732 -0.2205781 
2.00861 -6.181867 0.1581255 -0.2996558 0.9201315 -0.2521198 
2.767565 -5.881376 0.1581255 -0.4130198 0.8755409 -0.2506846 
3.482874 -5.488132 0.1581255 -0.5197842 0.8168375 -0.2502019 
4.143256 -5.008336 0.1581255 -0.6249982 0.755187 -0.1976612 
4.738296 -4.449556 0.1581255 -0.7150886 0.6705157 -0.1976283 
5.25861 -3.820604 0.1581255 -0.7823908 0.5700981 -0.2507048 
5.695993 -3.131399 0.1581255 -0.8480284 0.4673887 -0.2497914 
6.043547 -2.39281 0.1581255 -0.8996171 0.3570396 -0.2514194 
6.295791 -1.616484 0.1581255 -0.9375583 0.2412124 -0.2506014 
6.448746 -0.814666 0.1581255 -0.9675501 0.1232014 -0.2206087 
-8.88308 -18.87965 2.841875 -0.08528715 0.0582726 -0.9946509 
1.759521 -20.79072 2.841875 -0.4635725 0.3573381 0.8108082 
-17.13446 -11.90219 2.841875 0.132986 0.09222764 -0.9868175 
11.92512 -17.11851 2.841875 -0.09192035 0.04862625 -0.9945784 
-20.7852 -1.748619 2.841875 0.1624952 0.009971484 -0.9866589 
18.88129 -8.864481 2.841875 -0.1416202 0.0674892 -0.9876178 
-18.88255 8.850801 2.841875 0.1409738 -0.06708982 -0.9877375 
20.78119 1.740638 2.841875 -0.1625555 -0.009911001 -0.9866496 
-11.96359 17.07607 2.841875 0.09457291 -0.04861595 -0.9943302 
17.14753 11.86093 2.841875 -0.1343314 -0.09248158 -0.9866115 
-1.804951 20.74956 2.793754 0.4666114 -0.3628989 0.8065842 
8.970624 18.81887 2.841875 0.08675809 -0.06288486 -0.9942427 
7.5 0 0.1581255 -0.96607 0.000871092 -0.2582788 
7.449288 0.870697 0.1581255 -0.9570924 -0.1129311 -0.266872 
7.297836 1.729619 0.1581255 -0.9444708 -0.225549 -0.2389615 
7.047695 2.565151 0.1581255 -0.9149299 -0.3341232 -0.2264176 
6.702245 3.365994 0.1581255 -0.8617964 -0.4361361 -0.2590217 
6.266159 4.121317 0.1581255 -0.8149974 -0.5352913 -0.2219066 
5.745333 4.820907 0.1581255 -0.7469508 -0.6264102 -0.2228782 
5.146812 5.455302 0.1581255 -0.6688361 -0.7090593 -0.2233678 
4.47869 6.015924 0.1581255 -0.5818448 -0.7823036 -0.222391 
3.75 6.495191 0.1581255 -0.4851036 -0.8327231 -0.2669208 
2.970598 6.886621 0.1581255 -0.3852977 -0.8853016 -0.2603588 
2.151024 7.184921 0.1581255 -0.2800409 -0.9298122 -0.2388021 
1.302361 7.386058 0.1581255 -0.1684339 -0.9490281 -0.2664126 
0.436086 7.487311 0.1581255 -0.05217699 -0.9220631 -0.3835064 
-0.436086 7.487311 0.1581255 0.05254752 -0.9216259 -0.3845056 
-1.302361 7.386058 0.1581255 0.1684339 -0.9490281 -0.2664126 
-2.151024 7.184921 0.1581255 0.2800409 -0.9298122 -0.2388021 
-2.970598 6.886621 0.1581255 0.3852977 -0.8853016 -0.2603588 
-3.75 6.495191 0.1581255 0.4851036 -0.8327231 -0.2669208 
-4.47869 6.015924 0.1581255 0.5818448 -0.7823036 -0.222391 
-5.146812 5.455302 0.1581255 0.6688361 -0.7090593 -0.2233678 
-5.745333 4.820907 0.1581255 0.7469508 -0.6264102 -0.2228782 
-6.266159 4.121317 0.1581255 0.8149974 -0.5352913 -0.2219066 
-6.702245 3.365994 0.1581255 0.8617964 -0.4361361 -0.2590217 
-7.047695 2.565151 0.1581255 0.9149299 -0.3341232 -0.2264176 
-7.297836 1.729619 0.1581255 0.9444708 -0.225549 -0.2389615 
-7.449288 0.870697 0.1581255 0.9568608 -0.1108903 -0.2685529 
-7.5 0 0.1581255 0.96607 0.000871092 -0.2582788 
-7.449288 -0.870697 0.1581255 0.9568608 0.1108903 -0.2685529 
-7.297836 -1.729619 0.1581255 0.9444708 0.225549 -0.2389615 
-7.047695 -2.565151 0.1581255 0.9149299 0.3341232 -0.2264176 
-6.702245 -3.365994 0.1581255 0.8617964 0.4361361 -0.2590217 
-6.266159 -4.121317 0.1581255 0.8149974 0.5352913 -0.2219066 
-5.745333 -4.820907 0.1581255 0.7469508 0.6264102 -0.2228782 
-5.146812 -5.455302 0.1581255 0.6688361 0.7090593 -0.2233678 
-4.47869 -6.015924 0.1581255 0.5818448 0.7823036 -0.222391 
-3.75 -6.495191 0.1581255 0.4851036 0.8327231 -0.2669208 
-2.970598 -6.886621 0.1581255 0.3852977 0.8853016 -0.2603588 
-2.151024 -7.184921 0.1581255 0.2800409 0.9298122 -0.2388021 
-1.302361 -7.386058 0.1581255 0.1684339 0.9490281 -0.2664126 
-0.436086 -7.487311 0.1581255 0.05254752 0.9216259 -0.3845056 
0.436086 -7.487311 0.1581255 -0.05217699 0.9220631 -0.3835064 
1.302361 -7.386058 0.1581255 -0.1684339 0.9490281 -0.2664126 
2.151024 -7.184921 0.1581255 -0.2800409 0.9298122 -0.2388021 
2.970598 -6.886621 0.1581255 -0.3852977 0.8853016 -0.2603588 
4.47869 -6.015924 0.1581255 -0.5818448 0.7823036 -0.222391 
3.75 -6.495191 0.1581255 -0.4851036 0.8327231 -0.2669208 
5.146812 -5.455302 0.1581255 -0.6688361 0.7090593 -0.2233678 
5.745333 -4.820907 0.1581255 -0.7469508 0.6264102 -0.2228782 
6.266159 -4.121317 0.1581255 -0.8149974 0.5352913 -0.2219066 
6.702245 -3.365994 0.1581255 -0.8617964 0.4361361 -0.2590217 
7.047695 -2.565151 0.1581255 -0.9149299 0.3341232 -0.2264176 
7.297836 -1.729619 0.1581255 -0.9444708 0.225549 -0.2389615 
7.449288 -0.870697 0.1581255 -0.9568608 0.1108903 -0.2685529 
3 0 1 2 
3 3 4 1 
3 5 6 0 
3 7 0 6 
3 8 5 0 
3 9 0 7 
3 10 0 11 
3 10 8 0 
3 12 1 0 
3 12 0 9 
3 13 10 11 
3 14 1 12 
3 15 1 14 
3 16 17 3 
3 18 19 13 
3 18 20 19 
3 18 21 20 
3 18 13 11 
3 22 21 18 
3 23 22 18 
3 24 23 18 
3 25 26 1 
3 27 1 26 
3 28 1 15 
3 28 25 1 
3 29 3 1 
3 29 1 27 
3 30 15 31 
3 30 28 15 
3 32 3 29 
3 33 30 31 
3 33 31 34 
3 35 3 32 
3 36 33 34 
3 36 34 37 
3 38 3 35 
3 39 36 37 
3 39 37 40 
3 41 16 3 
3 41 3 38 
3 42 39 40 
3 42 40 43 
3 44 16 41 
3 45 42 43 
3 45 43 46 
3 47 16 44 
3 48 45 46 
3 48 46 49 
3 50 16 47 
3 51 48 49 
3 51 49 52 
3 53 16 50 
3 54 51 52 
3 54 52 55 
3 56 57 16 
3 56 16 53 
3 56 58 59 
3 56 53 58 
3 60 18 61 
3 60 54 55 
3 60 55 24 
3 60 62 54 
3 60 24 18 
3 63 62 60 
3 64 56 59 
3 65 63 60 
3 66 56 64 
3 67 65 60 
3 68 69 70 
3 71 68 70 
3 71 70 72 
3 73 69 68 
3 73 56 66 
3 73 66 69 
3 74 71 72 
3 74 72 75 
3 76 56 73 
3 77 74 75 
3 77 75 78 
3 79 77 78 
3 79 78 80 
3 81 79 80 
3 81 80 82 
3 83 56 76 
3 83 84 85 
3 83 86 84 
3 83 87 56 
3 83 76 86 
3 88 60 89 
3 88 67 60 
3 88 90 67 
3 88 91 90 
3 88 92 91 
3 88 93 92 
3 94 81 82 
3 94 82 95 
3 96 83 85 
3 97 94 95 
3 97 95 98 
3 99 83 96 
3 100 97 98 
3 101 83 99 
3 102 83 101 
3 103 93 88 
3 103 104 93 
3 103 105 104 
3 103 106 105 
3 103 107 106 
3 108 109 110 
3 108 111 109 
3 108 112 111 
3 108 113 112 
3 108 114 113 
3 108 115 114 
3 116 102 115 
3 116 83 102 
3 116 115 108 
3 117 103 88 
3 118 110 100 
3 118 100 98 
3 118 108 110 
3 118 107 103 
3 118 119 107 
3 118 120 119 
3 118 121 120 
3 118 98 121 
3 122 118 103 
3 123 108 118 
3 124 61 125 
3 60 124 126 
3 60 61 124 
3 125 61 18 
3 127 125 18 
3 128 89 60 
3 126 128 60 
3 127 18 129 
3 130 129 11 
3 129 18 11 
3 131 89 128 
3 88 131 132 
3 88 89 131 
3 130 0 133 
3 11 0 130 
3 117 88 132 
3 117 132 134 
3 135 2 136 
3 0 135 133 
3 0 2 135 
3 137 117 134 
3 103 137 138 
3 103 117 137 
3 136 2 1 
3 139 136 1 
3 122 103 138 
3 122 138 140 
3 141 4 142 
3 1 141 139 
3 1 4 141 
3 143 122 140 
3 118 143 144 
3 118 122 143 
3 142 3 145 
3 4 3 142 
3 123 118 144 
3 123 144 146 
3 147 17 148 
3 3 147 145 
3 3 17 147 
3 149 123 146 
3 108 149 150 
3 108 123 149 
3 17 16 151 
3 17 151 148 
3 116 108 150 
3 116 150 152 
3 153 57 154 
3 16 153 151 
3 16 57 153 
3 155 83 156 
3 152 156 116 
3 156 83 116 
3 154 56 157 
3 57 56 154 
3 87 83 155 
3 87 155 158 
3 159 87 158 
3 56 159 157 
3 56 87 159 
3 160 40 37 
3 161 160 37 
3 161 37 34 
3 162 161 34 
3 163 164 9 
3 165 163 9 
3 164 12 9 
3 162 34 31 
3 166 162 31 
3 165 9 7 
3 167 166 15 
3 166 31 15 
3 168 165 6 
3 165 7 6 
3 167 15 14 
3 169 167 14 
3 164 169 14 
3 170 168 5 
3 164 14 12 
3 168 6 5 
3 171 170 8 
3 172 171 8 
3 170 5 8 
3 172 8 10 
3 173 172 13 
3 172 10 13 
3 174 173 19 
3 173 13 19 
3 175 174 20 
3 176 175 20 
3 174 19 20 
3 176 20 21 
3 177 176 22 
3 176 21 22 
3 177 22 23 
3 178 177 23 
3 179 178 23 
3 179 23 24 
3 179 24 55 
3 180 179 55 
3 181 180 55 
3 181 55 52 
3 181 52 49 
3 182 181 49 
3 182 49 46 
3 183 182 46 
3 183 46 43 
3 184 183 43 
3 184 43 40 
3 160 184 40 
3 185 186 41 
3 185 41 38 
3 187 185 38 
3 187 38 35 
3 188 187 35 
3 188 35 32 
3 189 188 32 
3 189 32 29 
3 190 189 29 
3 190 29 27 
3 191 190 27 
3 191 27 26 
3 192 191 26 
3 192 26 25 
3 193 192 25 
3 193 25 28 
3 194 193 28 
3 195 194 30 
3 194 28 30 
3 196 195 33 
3 195 30 33 
3 197 196 36 
3 196 33 36 
3 198 197 39 
3 197 36 39 
3 198 39 42 
3 199 198 45 
3 198 42 45 
3 200 201 48 
3 201 199 48 
3 199 45 48 
3 200 48 51 
3 202 200 54 
3 200 51 54 
3 203 202 62 
3 202 54 62 
3 204 203 63 
3 203 62 63 
3 205 204 65 
3 204 63 65 
3 206 205 67 
3 205 65 67 
3 207 206 90 
3 206 67 90 
3 208 207 91 
3 207 90 91 
3 208 91 92 
3 209 208 92 
3 209 92 93 
3 210 209 93 
3 210 93 104 
3 211 210 104 
3 211 104 105 
3 212 211 105 
3 212 105 106 
3 213 212 106 
3 214 213 107 
3 213 106 107 
3 215 214 119 
3 214 107 119 
3 216 215 120 
3 215 119 120 
3 217 216 121 
3 216 120 121 
3 218 217 98 
3 217 121 98 
3 219 220 95 
3 220 218 95 
3 218 98 95 
3 219 95 82 
3 221 222 80 
3 222 219 80 
3 219 82 80 
3 221 80 78 
3 223 224 75 
3 224 221 75 
3 221 78 75 
3 225 223 72 
3 223 75 72 
3 226 225 70 
3 225 72 70 
3 227 226 69 
3 226 70 69 
3 228 227 66 
3 227 69 66 
3 229 228 64 
3 228 66 64 
3 230 229 59 
3 229 64 59 
3 231 230 58 
3 230 59 58 
3 232 231 53 
3 231 58 53 
3 233 232 50 
3 232 53 50 
3 234 233 47 
3 233 50 47 
3 234 47 44 
3 186 234 41 
3 234 44 41 
3 235 102 101 
3 236 235 101 
3 236 101 99 
3 237 236 99 
3 238 239 76 
3 240 238 76 
3 239 86 76 
3 237 99 96 
3 241 237 96 
3 240 76 73 
3 242 241 85 
3 241 96 85 
3 243 240 68 
3 240 73 68 
3 242 85 84 
3 244 242 84 
3 239 244 84 
3 245 243 71 
3 239 84 86 
3 243 68 71 
3 246 245 74 
3 247 246 74 
3 245 71 74 
3 247 74 77 
3 248 247 79 
3 247 77 79 
3 249 248 81 
3 248 79 81 
3 250 249 94 
3 251 250 94 
3 249 81 94 
3 251 94 97 
3 252 251 100 
3 251 97 100 
3 252 100 110 
3 253 252 110 
3 254 253 110 
3 254 110 109 
3 254 109 111 
3 255 254 111 
3 256 255 111 
3 256 111 112 
3 256 112 113 
3 257 256 113 
3 257 113 114 
3 258 257 114 
3 258 114 115 
3 259 258 115 
3 259 115 102 
3 235 259 102 
3 125 260 124 
3 135 261 133 
3 261 139 262 
3 139 141 262 
3 133 261 263 
3 263 168 170 
3 168 263 165 
3 263 170 171 
3 165 263 163 
3 129 263 172 
3 263 171 172 
3 263 261 164 
3 163 263 164 
3 129 172 173 
3 164 261 169 
3 262 145 264 
3 145 147 264 
3 173 174 127 
3 174 175 127 
3 129 173 127 
3 175 176 265 
3 176 177 265 
3 177 178 265 
3 127 175 265 
3 265 178 179 
3 265 179 180 
3 266 261 267 
3 261 266 268 
3 261 262 269 
3 267 261 269 
3 167 169 270 
3 169 261 270 
3 261 268 270 
3 269 262 271 
3 167 270 272 
3 166 167 272 
3 271 262 273 
3 166 272 274 
3 162 166 274 
3 273 262 275 
3 161 162 276 
3 162 274 276 
3 275 262 277 
3 160 161 278 
3 161 276 278 
3 277 262 279 
3 262 264 279 
3 184 160 280 
3 160 278 280 
3 279 264 281 
3 182 183 282 
3 183 184 282 
3 184 280 282 
3 281 264 283 
3 182 282 284 
3 181 182 284 
3 283 264 285 
3 181 284 286 
3 285 264 287 
3 180 181 288 
3 181 286 288 
3 264 151 289 
3 151 153 289 
3 287 264 289 
3 290 287 289 
3 291 290 289 
3 124 265 126 
3 291 289 292 
3 265 180 293 
3 126 265 293 
3 180 288 293 
3 294 295 293 
3 288 294 293 
3 293 295 296 
3 292 289 297 
3 293 296 298 
3 297 289 299 
3 293 298 300 
3 301 302 243 
3 301 243 245 
3 303 301 245 
3 243 302 240 
3 302 299 240 
3 303 245 246 
3 304 303 246 
3 240 299 238 
3 299 289 238 
3 289 157 305 
3 157 159 305 
3 238 289 305 
3 304 246 247 
3 306 304 247 
3 238 305 239 
3 307 306 248 
3 306 247 248 
3 239 305 244 
3 307 248 249 
3 244 305 242 
3 131 293 132 
3 132 293 308 
3 309 310 308 
3 311 309 308 
3 312 311 308 
3 300 312 308 
3 293 300 308 
3 307 249 250 
3 313 307 250 
3 242 305 241 
3 314 313 251 
3 315 314 251 
3 313 250 251 
3 305 155 237 
3 241 305 237 
3 315 251 252 
3 237 155 236 
3 253 254 316 
3 254 255 316 
3 255 256 316 
3 256 257 316 
3 257 258 316 
3 258 259 316 
3 259 235 156 
3 235 236 156 
3 236 155 156 
3 316 259 156 
3 317 318 319 
3 320 317 319 
3 321 320 319 
3 322 321 319 
3 310 322 319 
3 308 310 319 
3 308 319 138 
3 308 138 137 
3 319 318 323 
3 316 150 323 
3 252 253 323 
3 315 252 323 
3 324 315 323 
3 325 324 323 
3 326 325 323 
3 318 326 323 
3 253 316 323 
3 319 323 144 
3 323 150 149 
3 319 144 143 
3 327 125 127 
3 328 128 126 
3 130 329 129 
3 128 330 131 
3 331 130 133 
3 332 134 132 
3 136 333 135 
3 134 334 137 
3 136 139 335 
3 336 140 138 
3 142 337 141 
3 140 338 143 
3 339 142 145 
3 146 144 340 
3 148 341 147 
3 342 149 146 
3 148 151 343 
3 152 150 344 
3 154 345 153 
3 152 346 156 
3 154 157 347 
3 348 158 155 
3 349 159 158 
3 234 186 350 
3 234 350 351 
3 233 234 351 
3 233 351 352 
3 232 233 352 
3 232 352 353 
3 231 232 353 
3 231 353 354 
3 230 231 354 
3 230 354 355 
3 229 230 355 
3 229 355 356 
3 228 229 356 
3 228 356 357 
3 228 357 358 
3 227 228 358 
3 226 227 358 
3 226 358 359 
3 226 359 360 
3 225 226 360 
3 223 225 360 
3 223 360 361 
3 223 361 362 
3 224 223 362 
3 224 362 363 
3 221 224 363 
3 222 221 363 
3 222 363 364 
3 219 222 364 
3 219 364 365 
3 220 365 366 
3 220 219 365 
3 220 366 367 
3 218 220 367 
3 217 367 368 
3 217 218 367 
3 216 368 369 
3 216 369 370 
3 216 217 368 
3 215 216 370 
3 214 370 371 
3 214 215 370 
3 213 371 372 
3 213 214 371 
3 212 372 373 
3 212 213 372 
3 211 373 374 
3 211 374 375 
3 211 212 373 
3 210 211 375 
3 210 375 376 
3 209 210 376 
3 208 209 376 
3 208 376 377 
3 208 377 378 
3 207 208 378 
3 206 207 378 
3 206 378 379 
3 205 206 379 
3 205 379 380 
3 204 205 380 
3 204 380 381 
3 203 204 381 
3 203 381 382 
3 202 203 382 
3 202 382 383 
3 200 202 383 
3 200 383 384 
3 201 200 384 
3 201 384 385 
3 199 201 385 
3 199 385 386 
3 198 199 386 
3 198 386 387 
3 197 198 387 
3 197 387 388 
3 196 197 388 
3 196 388 389 
3 195 196 389 
3 195 389 390 
3 194 195 390 
3 194 390 391 
3 193 194 391 
3 193 391 392 
3 193 392 393 
3 192 193 393 
3 191 192 393 
3 191 393 394 
3 190 191 394 
3 190 394 395 
3 189 190 395 
3 189 395 396 
3 189 396 397 
3 188 189 397 
3 187 188 397 
3 187 397 398 
3 187 398 399 
3 185 399 350 
3 185 187 399 
3 186 185 350 
3 124 260 400 
3 124 400 265 
3 125 327 400 
3 125 400 260 
3 327 127 265 
3 327 265 400 
3 129 329 401 
3 263 129 401 
3 401 133 263 
3 331 133 401 
3 328 126 293 
3 328 293 402 
3 403 135 333 
3 403 261 135 
3 131 330 402 
3 131 402 293 
3 403 139 261 
3 335 139 403 
3 332 132 308 
3 332 308 404 
3 141 337 405 
3 262 141 405 
3 308 334 404 
3 137 334 308 
3 339 145 262 
3 339 262 405 
3 406 138 319 
3 336 138 406 
3 407 264 147 
3 407 147 341 
3 143 338 406 
3 319 143 406 
3 407 343 264 
3 264 343 151 
3 408 340 144 
3 323 408 144 
3 409 289 153 
3 409 153 345 
3 408 149 342 
3 408 323 149 
3 347 157 289 
3 347 289 409 
3 410 150 316 
3 344 150 410 
3 305 349 411 
3 159 349 305 
3 410 156 346 
3 410 316 156 
3 411 348 155 
3 305 411 155 
3 412 279 281 
3 413 412 281 
3 413 281 283 
3 414 413 283 
3 414 283 285 
3 415 414 285 
3 415 285 287 
3 416 415 287 
3 416 287 290 
3 417 416 290 
3 417 290 291 
3 418 417 291 
3 418 291 292 
3 419 418 292 
3 419 292 297 
3 420 419 297 
3 420 297 299 
3 421 420 299 
3 422 421 299 
3 422 299 302 
3 422 302 301 
3 423 422 301 
3 423 301 303 
3 424 423 303 
3 425 424 304 
3 424 303 304 
3 426 425 304 
3 426 304 306 
3 427 426 307 
3 428 427 307 
3 426 306 307 
3 428 307 313 
3 429 428 314 
3 430 429 314 
3 428 313 314 
3 430 314 315 
3 431 430 324 
3 430 315 324 
3 432 431 325 
3 433 432 325 
3 431 324 325 
3 433 325 326 
3 434 433 318 
3 433 326 318 
3 434 318 317 
3 435 434 317 
3 435 317 320 
3 436 435 320 
3 437 436 320 
3 437 320 321 
3 437 321 322 
3 438 437 322 
3 438 322 310 
3 439 438 310 
3 440 439 310 
3 440 310 309 
3 440 309 311 
3 441 440 311 
3 441 311 312 
3 442 441 312 
3 443 442 312 
3 443 312 300 
3 443 300 298 
3 444 443 298 
3 444 298 296 
3 445 444 296 
3 446 445 296 
3 446 296 295 
3 446 295 294 
3 447 446 294 
3 447 294 288 
3 448 447 288 
3 448 288 286 
3 449 448 286 
3 449 286 284 
3 450 449 284 
3 450 284 282 
3 451 450 282 
3 451 282 280 
3 452 451 280 
3 452 280 278 
3 453 452 278 
3 454 453 278 
3 454 278 276 
3 454 276 274 
3 455 454 274 
3 455 274 272 
3 456 455 272 
3 457 458 270 
3 456 272 270 
3 458 456 270 
3 457 270 268 
3 459 457 266 
3 457 268 266 
3 460 459 267 
3 459 266 267 
3 461 460 269 
3 460 267 269 
3 462 461 271 
3 463 462 271 
3 461 269 271 
3 463 271 273 
3 464 463 275 
3 463 273 275 
3 465 464 277 
3 464 275 277 
3 412 465 279 
3 465 277 279 
3 128 328 402 
3 128 402 330 
3 329 331 401 
3 130 331 329 
3 134 332 404 
3 134 404 334 
3 333 335 403 
3 136 335 333 
3 140 336 406 
3 140 406 338 
3 337 339 405 
3 142 339 337 
3 342 146 340 
3 408 342 340 
3 341 148 343 
3 407 341 343 
3 152 344 410 
3 152 410 346 
3 154 347 409 
3 154 409 345 
3 349 158 348 
3 411 349 348 
3 459 460 394 
3 459 394 393 
3 457 459 393 
3 394 460 395 
3 460 461 395 
3 457 393 392 
3 458 457 392 
3 395 461 396 
3 461 462 396 
3 458 392 391 
3 456 458 391 
3 396 462 397 
3 462 463 397 
3 456 391 390 
3 455 456 390 
3 397 463 398 
3 463 464 398 
3 454 455 389 
3 455 390 389 
3 398 464 399 
3 464 465 399 
3 454 389 388 
3 453 454 388 
3 412 413 350 
3 465 412 350 
3 399 465 350 
3 453 388 387 
3 451 452 387 
3 452 453 387 
3 350 413 351 
3 351 413 414 
3 451 387 386 
3 451 386 450 
3 351 414 352 
3 352 414 415 
3 450 386 385 
3 450 385 449 
3 352 415 353 
3 353 415 416 
3 449 385 384 
3 449 384 448 
3 353 416 354 
3 354 416 417 
3 448 384 383 
3 448 383 447 
3 354 417 355 
3 355 417 418 
3 447 383 382 
3 447 382 446 
3 355 418 356 
3 446 382 381 
3 356 418 419 
3 356 419 357 
3 446 381 445 
3 445 381 380 
3 357 419 420 
3 357 420 358 
3 445 380 444 
3 444 380 379 
3 358 420 421 
3 358 421 359 
3 444 379 443 
3 443 379 378 
3 359 421 422 
3 359 422 360 
3 443 378 442 
3 442 378 377 
3 360 422 423 
3 360 423 361 
3 442 377 441 
3 441 377 376 
3 361 423 424 
3 362 361 424 
3 441 376 440 
3 376 375 440 
3 362 424 425 
3 363 362 425 
3 440 375 439 
3 363 425 426 
3 439 375 438 
3 375 374 438 
3 364 363 427 
3 363 426 427 
3 374 373 437 
3 438 374 437 
3 365 364 428 
3 364 427 428 
3 373 372 436 
3 437 373 436 
3 366 365 429 
3 365 428 429 
3 372 371 435 
3 436 372 435 
3 366 429 430 
3 367 366 430 
3 435 371 434 
3 371 370 434 
3 367 430 431 
3 368 367 431 
3 434 370 433 
3 370 369 433 
3 369 368 432 
3 433 369 432 
3 368 431 432 
