ply
format ascii 1.0
comment VCGLIB generated
element vertex 509
property float x
property float y
property float z
property float nx
property float ny
property float nz
element face 1034
property list uchar int vertex_indices
end_header
-51.74952 -0.376 -1 0.8957927 0.1128243 -0.4299142 
-51.5625 -1.104371 -1 0.8396645 0.3328097 -0.4291868 
-58.77317 -46.882 -1 0.3283701 0.05427862 0.9429883 
-51.74952 0.376 -1 0.8957927 -0.1128249 -0.429914 
-39.00003 39 -1 -0.1560824 0.09693215 0.9829763 
-46.14425 1.445258 -1 0.7915817 0.4355627 0.4285832 
-46.58627 2.053641 -1 0.6593905 0.6187434 0.4270372 
-47.16569 2.53298 -1 0.4839347 0.7631935 0.4281856 
-47.84612 2.853168 -1 0.2787554 0.8590166 0.4294018 
-48.5848 2.994078 -1 0.05635257 0.9010729 0.4299907 
-49.33531 2.946859 -1 -0.1688599 0.8869999 0.4297878 
-2.749516 49.376 -1 -0.8957886 0.1128244 0.4299226 
-2.749516 48.624 -1 -0.8957886 -0.1128241 0.4299227 
-2.562504 47.89563 -1 -0.8399273 -0.3321854 0.4291562 
-2.200223 47.23664 -1 -0.7314416 -0.5310051 0.4278163 
-1.685445 46.68846 -1 -0.5759991 -0.6967977 0.4274319 
-1.050516 46.28552 -1 -0.3849335 -0.8172287 0.4289096 
-47.16569 46.46702 -1 -0.4839352 0.7631927 -0.4281865 
-46.58627 46.94636 -1 -0.6593908 0.6187426 -0.4270379 
-46.14425 47.55474 -1 0.7915816 -0.4355626 0.4285835 
-47.84612 46.14683 -1 -0.2787544 0.8590125 -0.4294106 
-45.86742 48.25393 -1 0.8745405 -0.2248932 0.4296533 
-48.5848 46.00592 -1 -0.05702598 0.901023 -0.4300065 
-45.77317 49 -1 0.9028193 -0.0003376982 0.43002 
-49.33531 46.05314 -1 0.169521 0.8868632 -0.4298095 
-50.05051 46.28552 -1 0.3849328 0.8172333 -0.4289016 
-50.05051 2.71448 -1 -0.3843279 0.817537 0.4288652 
-50.68544 2.311539 -1 -0.5765032 0.6963413 0.427496 
-50.68544 46.68846 -1 0.5765057 0.696344 -0.4274884 
-51.20023 1.763352 -1 -0.7314388 0.5310022 0.4278247 
-39.00003 59 -1 0.1560806 0.09693354 -0.9829765 
-45.86742 49.74607 -1 0.8745445 0.224894 0.4296447 
-46.14425 50.44526 -1 0.7915816 0.4355626 0.4285835 
-46.58627 51.05364 -1 0.6593909 0.6187426 0.4270377 
-0.3353125 51.94687 -1 -0.1688584 0.8869957 0.4297971 
-1.050516 51.71448 -1 -0.3843322 0.8175395 0.4288566 
-1.685445 51.31154 -1 -0.5765037 0.6963406 0.4274966 
-2.200223 50.76336 -1 -0.7310184 0.5315365 0.4278796 
-2.562504 50.10437 -1 -0.8399308 0.3321882 0.4291472 
-51.20023 47.23664 -1 0.7310179 0.5315372 -0.4278795 
-46.81313 -51.05359 -1 -0.6589152 0.6192059 -0.4271004 
-41.57441 -55.6978 -1 -0.4353389 0.3993918 0.8068248 
-42.31611 -56.4381 -1 -0.4031971 0.4451676 0.799536 
-40.91425 -54.8839 -1 -0.40218 0.2939969 0.8670739 
-47.16569 51.53299 -1 0.4839329 0.7631897 0.4281945 
-51.5625 47.89563 -1 0.8399271 0.3321855 -0.4291564 
-51.5625 1.104371 -1 -0.839927 0.3321866 0.4291558 
-47.84612 51.85317 -1 0.2787556 0.8590163 0.4294022 
51.18687 46.94636 -1 -0.6589054 0.6192203 -0.4270948 
56.43142 42.3087 -1 -0.4312891 0.3856225 0.81565 
55.69127 41.56855 -1 -0.3766847 0.4213293 0.8249789 
57.09015 43.12215 -1 -0.4937533 0.3587327 0.7921606 
-48.5848 51.99408 -1 0.05702579 0.901023 0.4300067 
-47.39256 -51.533 -1 -0.4844984 0.762807 -0.4282368 
-44.01079 -57.6665 -1 -0.2943836 0.5096352 0.8084617 
-44.94515 -58.141 -1 -0.2315162 0.5354397 0.812222 
-43.13123 -57.09669 -1 -0.3430654 0.4771864 0.8090731 
50.60744 46.46702 -1 -0.4839327 0.7631893 -0.4281952 
53.99997 40.33975 -1 -0.2158541 0.3659165 0.9052691 
53.06733 39.86455 -1 -0.1697844 0.366928 0.914624 
54.87782 40.90983 -1 -0.3152149 0.4256886 0.8481915 
-46.37112 -50.4453 -1 -0.7919267 0.4349849 -0.4285327 
-40.34289 -54.0054 -1 -0.366465 0.2162474 0.9049533 
-39.8666 -53.0719 -1 -0.3623305 0.1762193 0.9152395 
-58.77317 59 -1 -0.01603956 0.2350753 -0.9718448 
-49.33531 51.94687 -1 -0.1688592 0.8869957 0.4297967 
-50.05051 51.71448 -1 -0.3843279 0.8175368 0.4288655 
51.62889 47.55474 -1 -0.7919249 0.4349779 -0.4285431 
-50.68544 51.31154 -1 0.5765035 -0.6963408 -0.4274965 
-51.20023 50.76336 -1 0.7310186 -0.5315365 -0.4278794 
57.66022 44 -1 -0.5094638 0.2950975 0.8083094 
58.13541 44.93263 -1 -0.5338255 0.242037 0.8102151 
-51.5625 50.10437 -1 0.8399268 -0.332187 -0.4291559 
-51.74952 49.376 -1 0.8957886 -0.1128244 -0.4299228 
-51.74952 48.624 -1 0.8957925 0.1128246 -0.4299143 
-39.00003 -49 -1 -0.2468991 0.1177692 0.9618582 
-45.77317 0 -1 0.9028194 -0.0003377781 0.4300198 
-45.86742 0.7460703 -1 0.8745447 0.2248939 0.4296445 
-48.07298 -51.8532 -1 -0.2787573 0.8590121 -0.4294096 
-45.86742 -0.7460703 -1 -0.8745447 0.2248937 -0.4296446 
48.99997 39 -1 -0.1230668 0.3110248 0.9424002 
0.4151953 46.00592 -1 -0.0570253 0.9010228 -0.4300071 
1.153883 46.14683 -1 -0.2793944 0.8587877 -0.4294444 
-0.3353125 46.05314 -1 0.168858 0.8869956 -0.4297973 
48.99997 59 -1 -0.1230666 -0.3110243 0.9424004 
0.4151953 51.99408 -1 0.05702545 0.9010268 0.4299986 
1.153883 51.85317 -1 -0.2793944 -0.8587877 -0.4294445 
-45.92404 -58.51519 -1 -0.1784738 0.559569 0.809339 
-46.93671 -58.7848 -1 -0.1258553 0.5691465 0.8125471 
49.92702 46.14683 -1 -0.2787579 0.8590157 -0.429402 
52.09014 39.48943 -1 -0.1550492 0.3745092 0.9141677 
51.07907 39.21852 -1 -0.1231638 0.2999064 0.9459846 
-46.09428 -49.74609 -1 -0.87454 0.224896 -0.4296529 
-39.49062 -52.0937 -1 -0.3563223 0.1392376 0.9239303 
-39.21907 -51.08151 -1 -0.3010103 0.1239722 0.9455283 
-39.05495 -50.04649 -1 -0.3340387 0.1109501 0.9360065 
51.90572 48.25393 -1 -0.8745441 0.2248947 -0.4296453 
58.51054 45.90983 -1 -0.559893 0.1794271 0.8089041 
58.78144 46.92088 -1 -0.5758493 0.123182 0.8082226 
58.94518 47.95472 -1 -0.5808259 0.05541648 0.8121393 
-48.81166 -51.9941 -1 -0.05702686 0.9010218 -0.4300089 
-49.01867 -59 -1 -0.001414855 0.5875022 0.8092213 
-50.06507 -58.9431 -1 0.06621756 0.582271 0.8102936 
-47.97204 -58.947 -1 -0.0598798 0.5855483 0.8084229 
49.18833 46.00592 -1 -0.05702567 0.9010268 -0.4299986 
50.04526 39.05478 -1 -0.1086144 0.3292343 0.9379807 
-46.00003 -49 -1 0.9028189 -0.0003363972 0.430021 
51.99997 49 -1 -0.9028192 0.000337708 -0.4300202 
58.99997 49 -1 -0.5876476 -0.002415553 0.8091134 
58.94518 50.04528 -1 -0.5808261 -0.05541674 0.8121392 
-49.56218 -51.9469 -1 0.1695224 0.8868634 -0.4298088 
-51.0998 -58.7771 -1 0.1242053 0.5751479 0.8085653 
-52.11145 -58.5036 -1 0.189627 0.579805 0.7923811 
48.43782 46.05314 -1 -0.1695202 -0.8868631 0.4298103 
-46.09428 -48.2539 -1 0.8747233 0.2242506 0.4296171 
51.90572 49.74607 -1 -0.8745441 -0.2248944 -0.4296452 
58.78144 51.07912 -1 -0.5758497 -0.1231819 0.8082223 
58.51054 52.09017 -1 -0.5598937 -0.1794274 0.8089035 
58.13541 53.06737 -1 -0.5338259 -0.242037 0.8102148 
-50.27737 -51.7145 -1 0.3849376 0.8172264 -0.4289103 
-53.08894 -58.1258 -1 0.2396159 0.5372494 0.8086701 
-54.02152 -57.6478 -1 0.2904257 0.5084643 0.8106275 
47.72262 46.28552 -1 -0.3849346 -0.817228 0.4289099 
-46.37112 -47.5547 -1 0.7915791 0.4355679 0.4285827 
51.62889 50.44526 -1 -0.791925 -0.4349779 -0.428543 
57.66022 54 -1 -0.5094702 -0.295101 0.8083041 
57.09015 54.87785 -1 -0.4937533 -0.3587325 0.7921608 
-50.9123 -51.3115 -1 0.5760099 0.6967857 -0.4274369 
-54.89896 -57.0748 -1 0.3484888 0.4733593 0.8090034 
-55.71162 -56.4131 -1 0.3942588 0.4369189 0.8084936 
47.08769 46.68846 -1 -0.5759969 -0.696794 0.4274409 
-46.81313 -46.9464 -1 0.6589134 0.6192071 0.4271014 
51.18687 51.05364 -1 -0.6593875 -0.6187403 -0.4270462 
56.43142 55.6913 -1 -0.4314822 -0.3857952 0.8154662 
46.57292 47.23664 -1 -0.7314414 -0.5310048 0.427817 
55.69127 56.43145 -1 -0.3766844 -0.421329 0.8249792 
-56.45057 -55.67009 -1 0.4383483 0.3852245 0.812067 
-51.42709 -50.7634 -1 0.731442 0.5310082 -0.4278117 
-47.39256 -46.467 -1 0.4844986 0.7628057 0.428239 
50.60744 51.53299 -1 -0.4839324 -0.7631899 -0.4281946 
46.21064 47.89563 -1 -0.8396643 -0.3328089 0.4291878 
54.87782 57.09017 -1 -0.3152147 -0.4256883 0.8481917 
-57.10769 -54.85369 -1 0.4688712 0.3434236 0.813769 
53.99997 57.66026 -1 -0.2158537 -0.365916 0.9052694 
-57.67577 -53.9731 -1 0.4929022 0.2825276 0.8229371 
-51.78937 -50.1044 -1 0.8396649 0.332812 -0.429184 
53.06733 58.13545 -1 -0.1697839 -0.3669275 0.9146243 
49.92702 51.85317 -1 -0.2787579 -0.8590156 -0.4294021 
-58.14858 -53.0379 -1 0.4832952 0.2206972 0.8471826 
52.09014 58.51057 -1 -0.1550486 -0.3745081 0.9141683 
-58.5209 -52.0583 -1 0.4699927 0.1497712 0.869871 
51.07907 58.78148 -1 -0.1231635 -0.299906 0.9459848 
49.18833 51.99408 -1 0.05702548 0.9010268 0.4299987 
-58.78869 -51.04509 -1 0.3942804 0.08917785 0.9146531 
-51.97638 -49.376 -1 0.8957897 0.1128242 -0.4299203 
50.04526 58.94522 -1 -0.1086141 -0.3292339 0.9379808 
-58.94895 -50.0095 -1 0.3983169 0.07255375 0.9143739 
48.43782 51.94687 -1 -0.1695205 0.8868631 0.42981 
47.72262 51.71448 -1 -0.3843322 0.8175392 0.4288571 
47.08769 51.31154 -1 -0.5765048 0.6963395 0.4274967 
46.57292 50.76336 -1 -0.7310182 0.5315362 0.4278804 
46.21064 50.10437 -1 -0.8396602 0.3328087 0.4291958 
-58.99997 -48.9627 -1 0.3190252 0.05460115 0.9461721 
-51.97638 -48.624 -1 -0.8957897 0.1128231 0.4299206 
-58.94115 -47.9164 -1 0.3020016 0.03554389 0.9526446 
-50.27737 -46.2855 -1 -0.3843328 0.8175334 0.4288677 
-50.9123 -46.6885 -1 -0.5765135 0.6963286 0.4275029 
-51.42709 -47.2366 -1 -0.7314421 0.5310076 0.4278123 
-51.78937 -47.89561 -1 -0.8396657 0.3328096 0.4291843 
-49.56218 -46.0531 -1 -0.1695205 0.8868625 0.4298113 
-47.16569 -2.53298 -1 -0.4839348 0.7631932 -0.428186 
-46.58627 -2.053641 -1 -0.6593904 0.6187432 -0.4270375 
1.834309 46.46702 -1 -0.4839356 0.7631922 -0.4281868 
2.413734 46.94636 -1 -0.6593893 0.6187388 -0.4270457 
-46.14425 -1.445258 -1 -0.7915817 0.4355625 -0.4285834 
2.855742 47.55474 -1 -0.7915782 0.4355603 -0.4285921 
-47.84612 -2.853172 -1 -0.278754 0.8590128 -0.4294102 
-48.07298 -46.1468 -1 0.2787586 0.8590102 0.4294125 
3.132574 48.25393 -1 -0.8745449 0.2248939 -0.429644 
46.02362 48.624 -1 -0.8957887 -0.1128239 0.4299225 
-48.5848 -2.994078 -1 -0.05702577 0.9010228 -0.4300069 
-48.81166 -46.0059 -1 0.05702861 0.9010205 0.4300114 
3.226824 49 -1 -0.9028196 0.0003376923 -0.4300194 
46.02362 49.376 -1 -0.8957887 0.1128241 0.4299224 
-49.33531 -2.946859 -1 0.1695203 0.8868593 -0.4298179 
3.132574 49.74607 -1 -0.874545 -0.2248936 -0.4296439 
-50.05051 -2.71448 -1 0.3843275 0.817537 -0.4288656 
2.855742 50.44526 -1 -0.7915782 -0.4355603 -0.428592 
-50.68544 -2.311539 -1 0.5765029 0.6963412 -0.4274966 
2.413734 51.05364 -1 -0.6593887 -0.6187393 -0.427046 
-51.20023 -1.763359 -1 0.7314378 0.5310037 -0.4278245 
1.834309 51.53299 -1 -0.4839353 -0.7631927 -0.4281863 
-49.62473 -1.809652 0 0.3240669 0.7000451 -0.6363313 
-49.14794 -1.96457 0 0.139519 0.7562433 -0.6392421 
-48.64759 -1.996047 0 -0.05276032 0.7659571 -0.6407231 
-48.15514 -1.902109 0 -0.2334615 0.7338782 -0.6379017 
-46.77317 0 0 0.7678666 0.004562213 0.6405936 
-46.836 0.4973828 0 0.7464416 0.186816 0.6386898 
-47.70152 -1.68866 0 -0.409985 0.6553187 -0.634405 
-47.02056 0.9635078 0 0.6789979 0.3676914 0.635425 
-47.31524 -1.369098 0 -0.5593199 0.5319414 -0.6357669 
-47.31524 1.369098 0 0.55932 0.5319417 0.6357666 
-47.02056 -0.9635078 0 -0.6718581 0.374699 -0.6389111 
-47.70152 1.68866 0 0.4099852 0.655319 0.6344046 
-46.836 -0.4973789 0 -0.7465053 0.1868178 -0.6386149 
-48.15514 1.902109 0 0.2334542 0.7338154 0.6379766 
-48.64759 1.996051 0 0.0527603 0.7659582 0.6407217 
-49.14794 1.96457 0 -0.1395189 0.7562438 0.6392416 
-49.62473 1.809652 0 -0.3240673 0.7000454 0.6363307 
-50.04802 1.541031 0 -0.4891048 0.599065 0.6339539 
-50.39121 1.17557 0 -0.6205033 0.4567242 0.6374783 
-50.63272 0.73625 0 -0.7183982 0.2792746 0.6371105 
-50.75741 0.2506719 0 0.7630062 -0.09174468 -0.6398472 
-50.75741 -0.2506719 0 0.7630062 0.09174415 -0.6398473 
-50.63272 -0.73625 0 0.718398 0.2792742 -0.6371108 
-50.39121 -1.17557 0 0.6205031 0.4567238 -0.6374788 
-50.04802 -1.541031 0 0.4891044 0.5990648 -0.6339545 
-49.01867 -59 1 0.006778381 0.6743953 0.7383394 
-47.97204 -58.947 1 -0.07663479 0.6665632 0.7414989 
-46.93671 -58.7848 1 -0.1381068 0.6634648 0.7353509 
-45.92404 -58.51519 1 -0.2001214 0.6171692 0.7609558 
-58.77317 -46.882 1 0.3255419 0.05417713 0.9439742 
-58.94115 -47.9164 1 0.3736203 0.01481662 0.9274634 
-44.94515 -58.141 1 -0.2766075 0.6185576 0.7354419 
-58.99997 -48.9627 1 0.3970748 0.03412952 0.9171515 
-44.01079 -57.6665 1 -0.3285359 0.5855998 0.7410378 
-58.94895 -50.0095 1 0.4206399 0.06122398 0.9051595 
-43.13123 -57.09669 1 -0.4002913 0.5423833 0.7386388 
-58.78869 -51.04509 1 0.4419295 0.1013447 0.8913066 
-58.5209 -52.0583 1 0.4683522 0.1494965 0.8708025 
-42.31611 -56.4381 1 -0.4310129 0.4703528 0.7700624 
-41.57441 -55.6978 1 -0.4446498 0.4033647 0.7997396 
-58.14858 -53.0379 1 0.507408 0.2217823 0.8326763 
-57.67577 -53.9731 1 0.5250264 0.3114731 0.7920429 
-40.91425 -54.8839 1 -0.4420652 0.3227778 0.8368948 
-40.34289 -54.0054 1 -0.4410702 0.2580962 0.85956 
-39.8666 -53.0719 1 -0.4089108 0.1919824 0.8921518 
-57.10769 -54.85369 1 0.5261271 0.379681 0.760942 
-56.45057 -55.67009 1 0.5033506 0.4535323 0.7354907 
-55.71162 -56.4131 1 0.4562115 0.4930036 0.7408229 
-39.49062 -52.0937 1 -0.3891195 0.149708 0.9089409 
-39.21907 -51.08151 1 -0.382021 0.1139566 0.9171008 
-39.05495 -50.04649 1 -0.3298578 0.1117203 0.9373966 
-39.00003 -49 1 -0.3120617 0.1228267 0.9420887 
-54.89896 -57.0748 1 0.3927332 0.5476363 0.7388201 
-54.02152 -57.6478 1 0.3428299 0.5832801 0.7363775 
-53.08894 -58.1258 1 0.2795019 0.6191721 0.7338287 
-52.11145 -58.5036 1 0.2107828 0.6444718 0.7350011 
-51.0998 -58.7771 1 0.1403965 0.6647167 0.733785 
-50.06507 -58.9431 1 0.06805499 0.6727395 0.7367429 
-58.77317 59 1 0.05590098 -0.206422 0.9768649 
-39.00003 39 1 -0.134213 0.1265868 0.982834 
-39.00003 59 1 0.134211 0.1265883 -0.982834 
48.99997 39 1 -0.1227749 0.307576 0.9435694 
48.99997 59 1 -0.1227748 -0.3075757 0.9435695 
58.13541 53.06737 1 -0.619566 -0.2716846 0.7364275 
57.66022 54 1 -0.5896142 -0.337974 0.7335726 
50.04526 39.05478 1 -0.114869 0.3789677 0.918253 
57.09015 54.87785 1 -0.5487084 -0.3986597 0.7348397 
56.43142 55.6913 1 -0.4740658 -0.4272682 0.7698724 
51.07907 39.21852 1 -0.1116392 0.3784651 0.9188585 
55.69127 56.43145 1 -0.4131253 -0.4485751 0.7925326 
54.87782 57.09017 1 -0.3207914 -0.4483342 0.8343197 
52.09014 39.48943 1 -0.1490849 0.3996497 0.9044633 
53.06733 39.86455 1 -0.1916146 0.4108137 0.8913562 
53.99997 57.66026 1 -0.2428402 -0.4253041 0.871863 
53.06733 58.13545 1 -0.1916142 -0.4108134 0.8913565 
53.99997 40.33975 1 -0.2428406 0.4253045 0.8718626 
54.87782 40.90983 1 -0.3207916 0.4483344 0.8343195 
52.09014 58.51057 1 -0.1490843 -0.3996485 0.9044639 
55.69127 41.56855 1 -0.4131255 0.4485754 0.7925323 
51.07907 58.78148 1 -0.1116389 -0.3784643 0.9188588 
56.43142 42.3087 1 -0.474066 0.4272681 0.7698723 
50.04526 58.94522 1 -0.1148687 -0.3789672 0.9182532 
57.09015 43.12215 1 -0.5487085 0.3986599 0.7348396 
57.66022 44 1 -0.5896139 0.337974 0.7335728 
58.13541 44.93263 1 -0.6195657 0.2716847 0.7364277 
58.51054 45.90983 1 -0.6396093 0.2138047 0.7383681 
58.78144 46.92088 1 -0.6582636 0.1321971 0.741089 
58.94518 47.95472 1 -0.6738808 0.07274349 0.7352504 
58.99997 49 1 -0.6789541 0.000182702 0.7341807 
58.94518 50.04528 1 -0.6738812 -0.07274384 0.7352499 
58.78144 51.07912 1 -0.6582813 -0.1321977 0.7410733 
58.51054 52.09017 1 -0.6396095 -0.2138047 0.738368 
-49.85159 -50.8097 0 0.3315322 0.6936437 -0.6394879 
-49.3748 -50.9646 0 0.1483091 0.7532054 -0.6408479 
-48.87445 -50.9961 0 -0.0527447 0.7659023 -0.6407899 
-48.382 -50.9021 0 -0.2416784 0.7289916 -0.6404395 
-47.00003 -49 0 0.7679289 0.004576727 0.6405187 
-47.06287 -48.5026 0 0.7465035 0.1868253 0.6386148 
-47.92838 -50.68869 0 -0.4099865 0.655323 -0.6343995 
-47.24742 -48.0365 0 0.6789986 0.3676855 0.6354275 
-47.5421 -50.3691 0 -0.5665569 0.5252602 -0.6349134 
-47.5421 -47.6309 0 0.5665555 0.5252585 0.6349161 
-47.24742 -49.96349 0 -0.6790621 0.3676994 -0.6353517 
-47.92838 -47.3114 0 0.4099728 0.6552387 0.6344955 
-47.06287 -49.49741 0 -0.746441 0.1868212 -0.638689 
-48.382 -47.0979 0 0.2417106 0.7290452 0.6403664 
-48.87445 -47.00391 0 0.05274743 0.7658988 0.6407939 
-49.3748 -47.03539 0 -0.1483064 0.7532056 0.6408483 
-49.85159 -47.1903 0 -0.3314925 0.6935922 0.6395644 
-50.27488 -47.459 0 -0.4891407 0.5991068 0.6338868 
-50.61806 -47.8244 0 -0.6289007 0.4507186 0.6335114 
-50.85958 -48.26381 0 -0.7126744 0.287086 0.6400601 
-50.98426 -48.7493 0 0.7630068 -0.09175725 -0.6398447 
-50.98426 -49.2507 0 0.7630072 0.0917564 -0.6398443 
-50.85958 -49.7363 0 0.7183353 0.2792765 -0.6371806 
-50.61806 -50.1756 0 0.6289017 0.4507185 -0.6335105 
-50.27488 -50.541 0 0.4891425 0.599107 -0.6338851 
-49.62473 47.19035 0 0.3240672 0.7000442 -0.6363322 
-49.14794 47.03543 0 0.1483081 0.7532026 -0.6408514 
-48.64759 47.00395 0 -0.05276052 0.7659579 -0.6407222 
-48.15514 47.09789 0 -0.2334542 0.7338154 -0.6379766 
-46.77317 49 0 0.7678664 0.004561966 0.6405938 
-46.836 49.49738 0 0.7465051 0.1868179 0.638615 
-47.70152 47.31134 0 -0.4099851 0.655319 -0.6344047 
-47.02056 49.96351 0 0.6790584 0.3677094 0.6353498 
-47.31524 47.63091 0 -0.5592842 0.5318866 -0.6358442 
-47.31524 50.36909 0 0.5592839 0.5318877 0.6358436 
-47.02056 48.03649 0 0.6790581 -0.3677105 0.6353496 
-47.70152 50.68866 0 0.4099856 0.6553177 0.6344056 
-46.836 48.50262 0 0.7464415 -0.1868152 0.6386902 
-48.15514 50.90211 0 0.2334541 0.7338157 0.6379762 
-48.64759 50.99606 0 0.05276039 0.7659583 0.6407216 
-49.14794 50.96457 0 -0.1395188 0.7562438 0.6392416 
-49.62473 50.80966 0 -0.3240674 0.7000452 0.636331 
-50.04802 50.54103 0 0.4891055 -0.5990629 -0.6339554 
-50.39121 50.17557 0 0.6205034 -0.4567229 -0.6374792 
-50.63272 49.73625 0 0.7126684 -0.2871101 -0.640056 
-50.75741 49.25067 0 0.7630697 -0.09173822 -0.6397724 
-50.75741 48.74933 0 0.763006 0.09174392 -0.6398475 
-50.63272 48.26375 0 0.7183353 0.2792631 -0.6371865 
-50.39121 47.82443 0 0.6289588 0.4507397 -0.6334387 
-50.04802 47.45897 0 0.4891046 0.5990642 -0.6339549 
0.3524063 47.00395 0 -0.05276008 0.7659575 -0.6407226 
-0.1479336 47.03543 0 0.148308 0.7532023 -0.6408519 
2.226824 49 0 -0.7678671 -0.004561976 -0.6405929 
0.8448672 47.09789 0 -0.2334561 0.7338148 -0.6379765 
2.163992 49.49738 0 -0.7425243 -0.1953497 -0.6406998 
1.298477 47.31134 0 -0.4164366 0.64741 -0.6383109 
1.979441 49.96351 0 -0.6718594 -0.3746975 -0.6389106 
1.684766 47.63091 0 -0.5592852 0.5318859 -0.6358439 
1.684766 50.36909 0 -0.5592849 -0.5318871 -0.6358432 
1.979441 48.03649 0 -0.6789983 0.367691 -0.6354248 
1.298477 50.68866 0 -0.416437 -0.647409 -0.6383117 
2.163992 48.50262 0 -0.7425816 0.1953781 -0.6406246 
0.8448672 50.90211 0 -0.2334561 -0.7338152 -0.6379761 
0.3524063 50.99606 0 0.05275993 0.765958 0.640722 
-0.1479336 50.96457 0 -0.1483082 0.7532032 0.6408507 
-0.6247265 50.80966 0 -0.3314909 0.6935862 0.6395717 
-1.048023 50.54103 0 -0.4952606 0.5910932 0.636652 
-1.391207 50.17557 0 -0.6205038 0.4567226 0.637479 
-1.632727 49.73625 0 -0.7126684 0.28711 0.640056 
-1.757406 49.25067 0 -0.7610036 0.1007165 0.640882 
-1.757406 48.74933 0 -0.761064 -0.1007379 0.6408069 
-1.632727 48.26375 0 -0.7183981 -0.2792743 0.6371107 
-1.391207 47.82443 0 -0.6205034 -0.4567229 0.6374791 
-1.048023 47.45897 0 -0.4952598 -0.5910944 0.6366515 
-0.6247265 47.19035 0 -0.3314908 -0.6935852 0.6395729 
49.12554 47.00395 0 -0.05274333 0.7658958 -0.6407977 
48.62521 47.03543 0 -0.1483308 -0.7532613 0.6407772 
49.618 47.09789 0 -0.2416723 0.7289976 -0.640435 
50.99997 49 0 -0.7678658 -0.004561981 -0.6405945 
50.93714 49.49738 0 -0.7425244 -0.1953499 -0.6406995 
50.07161 47.31134 0 -0.4164355 0.6474107 -0.638311 
50.75257 49.96351 0 -0.6789962 -0.3676915 -0.6354267 
50.4579 47.63091 0 -0.5592838 0.5318868 -0.6358444 
50.4579 50.36909 0 -0.5592835 -0.5318878 -0.6358438 
50.75257 48.03649 0 -0.6789958 0.3676925 -0.6354266 
50.07161 50.68866 0 -0.416436 -0.6474094 -0.6383119 
50.93714 48.50262 0 -0.7425818 0.1953783 -0.6406243 
49.618 50.90211 0 -0.2416723 -0.7289979 -0.6404347 
49.12554 50.99606 0 0.05274316 0.7658963 0.6407972 
48.62521 50.96457 0 -0.1483071 0.753203 0.6408511 
48.14841 50.80966 0 -0.3314914 0.6935858 0.6395719 
47.72511 50.54103 0 -0.4891041 0.5990626 0.6339568 
47.38193 50.17557 0 -0.6205053 0.4567214 0.6374784 
47.14042 49.73625 0 -0.7183344 0.2792627 0.6371877 
47.01574 49.25067 0 -0.7610629 0.1007366 0.6408085 
47.01574 48.74933 0 -0.7630048 -0.09174382 0.6398491 
47.14042 48.26375 0 -0.7183341 -0.2792631 0.6371877 
47.38193 47.82443 0 -0.6204619 -0.456675 0.6375539 
47.72511 47.45897 0 -0.4891034 -0.5990636 0.6339564 
48.14841 47.19035 0 -0.3314913 -0.6935847 0.6395732 
-48.15514 -1.902109 1 -0.2148068 0.6721216 -0.7085975 
-48.64759 -1.996047 1 -0.04083629 0.7021796 -0.7108278 
-47.70152 -1.68866 1 -0.3775925 0.6015408 -0.7039691 
-46.836 0.4973828 1 0.6814368 0.1784518 0.7097879 
-46.77317 0 1 0.7032201 -0.00333119 0.7109644 
-47.31524 -1.369098 1 -0.5234026 0.486586 -0.6994882 
-47.02056 0.9635078 1 0.6229268 0.3385079 0.7052479 
-47.02056 -0.9635078 1 -0.6228886 0.338467 -0.7053013 
-47.31524 1.369098 1 0.5234028 0.4865862 0.699488 
-46.836 -0.4973789 1 -0.6814926 0.1784466 -0.7097357 
-47.70152 1.68866 1 0.3775927 0.6015401 0.7039697 
-48.15514 1.902109 1 0.2148069 0.6721221 0.7085971 
-48.64759 1.996051 1 0.04083617 0.7021809 0.7108265 
-49.14794 1.96457 1 -0.128655 0.6923282 0.7100208 
-49.62473 1.809652 1 -0.2982322 0.6418355 0.7064735 
-50.04802 1.541031 1 -0.4518319 0.5517496 0.7010138 
-50.39121 1.17557 1 -0.5778276 0.4154632 0.7024995 
-50.63272 0.73625 1 -0.6582174 0.2569235 0.70763 
-50.75741 0.2506719 1 0.6985495 -0.0848813 -0.7105095 
-50.75741 -0.2506719 1 0.6985495 0.0848809 -0.7105095 
-50.63272 -0.73625 1 0.6582172 0.2569231 -0.7076303 
-50.39121 -1.17557 1 0.5778276 0.4154629 -0.7024997 
-50.04802 -1.541031 1 0.4518318 0.5517492 -0.7010142 
-49.62473 -1.809652 1 0.2982319 0.6418359 -0.7064732 
-49.14794 -1.96457 1 0.1286552 0.6923278 -0.7100211 
1.684766 50.36909 1 -0.5179147 -0.4912512 -0.7003118 
1.298477 50.68866 1 -0.3775917 -0.6015389 -0.7039711 
0.8448672 50.90211 1 -0.2148423 -0.6721663 -0.7085444 
-1.757406 48.74933 1 -0.6985496 -0.0848798 0.7105096 
-1.757406 49.25067 1 -0.6985496 0.08487842 0.7105097 
-1.632727 48.26375 1 -0.6582602 -0.2569585 0.7075775 
-1.391207 47.82443 1 -0.5730813 -0.4207014 0.7032697 
-1.048023 47.45897 1 -0.456792 -0.5466191 0.7018181 
-0.6247265 47.19035 1 -0.30417 -0.6383677 0.7070837 
-47.31524 47.63091 1 -0.5233767 0.4865342 -0.6995436 
-47.70152 47.31134 1 -0.3831304 0.5972358 -0.7046421 
-47.02056 48.03649 1 0.6229264 -0.3385089 0.7052478 
-48.15514 47.09789 1 -0.2148071 0.6721213 -0.7085978 
-46.836 48.50262 1 0.6814368 -0.1784502 0.7097883 
-48.64759 47.00395 1 -0.04083639 0.7021805 -0.7108269 
-46.77317 49 1 0.703167 -0.0033494 0.7110169 
-49.14794 47.03543 1 0.1286547 0.6923279 -0.7100211 
-49.62473 47.19035 1 0.298232 0.6418347 -0.7064742 
-50.04802 47.45897 1 0.4518318 0.5517485 -0.7010148 
-47.5421 -50.3691 1 -0.5233795 0.4865339 -0.6995418 
-0.6247265 50.80966 1 -0.3041701 0.6383688 0.7070826 
-0.1479336 50.96457 1 -0.1286279 0.6922795 0.7100732 
-1.048023 50.54103 1 -0.4518321 0.5517469 0.7010157 
-1.391207 50.17557 1 -0.5777947 0.4154173 0.7025537 
-1.632727 49.73625 1 -0.6582175 0.2569224 0.7076303 
-46.836 49.49738 1 0.6814925 0.1784458 0.7097359 
-47.02056 49.96351 1 0.6229267 0.3385077 0.7052482 
-47.31524 50.36909 1 0.5179137 0.4912517 0.7003122 
50.4579 47.63091 1 -0.5233758 0.4865345 -0.6995441 
-50.39121 47.82443 1 0.5777944 0.4154181 -0.7025535 
-47.70152 50.68866 1 0.3775932 0.6015387 0.7039706 
-47.92838 -50.68869 1 -0.3831313 0.5972422 -0.7046362 
-48.15514 50.90211 1 0.2148071 0.6721218 0.7085973 
50.07161 47.31134 1 -0.37759 0.6015404 -0.7039708 
-48.64759 50.99606 1 0.0474987 0.7016115 0.7109748 
-47.24742 -49.96349 1 -0.6190175 0.3442271 -0.7059214 
50.75257 48.03649 1 -0.6229256 0.3385094 -0.7052482 
-48.382 -50.9021 1 -0.2211336 0.6695767 -0.7090607 
-49.14794 50.96457 1 -0.1286549 0.6923287 0.7100204 
-49.62473 50.80966 1 -0.304167 0.6383128 0.7071346 
-50.04802 50.54103 1 0.4518327 -0.551747 -0.7010154 
-50.39121 50.17557 1 0.5777948 -0.4154175 -0.7025535 
-50.63272 49.73625 1 0.6552555 -0.2630869 -0.708114 
-50.75741 49.25067 1 0.6985495 -0.08487846 -0.7105098 
-50.75741 48.74933 1 0.6985493 0.0848798 -0.7105098 
-50.63272 48.26375 1 0.6551996 0.263084 -0.7081668 
49.618 47.09789 1 -0.2148056 0.6721212 -0.7085984 
0.3524063 47.00395 1 -0.04748455 0.7016644 -0.7109236 
0.8448672 47.09789 1 -0.2148424 0.6721658 -0.7085449 
-0.1479336 47.03543 1 0.1351814 0.6907905 -0.7103059 
-47.06287 -49.49741 1 -0.6835291 0.1720303 -0.7093614 
0.3524063 50.99606 1 0.04748442 0.7016651 0.7109229 
50.93714 48.50262 1 -0.6835309 0.1720235 -0.7093613 
-48.87445 -50.9961 1 -0.04081583 0.7021368 -0.7108713 
49.12554 47.00395 1 -0.04748398 0.7016643 -0.7109237 
-47.00003 -49 1 0.7031671 -0.003347433 0.7110167 
50.99997 49 1 -0.7031669 0.003349423 -0.711017 
-49.3748 -50.9646 1 0.1351829 0.6907945 -0.7103017 
48.62521 47.03543 1 -0.1351819 -0.6907904 0.7103059 
-47.06287 -48.5026 1 0.6835279 0.1720314 0.7093622 
50.93714 49.49738 1 -0.683484 -0.1719928 -0.7094139 
-49.85159 -50.8097 1 0.3041735 0.638378 -0.7070729 
48.14841 47.19035 1 -0.3041638 -0.6383119 0.7071368 
-47.24742 -48.0365 1 0.6190143 0.3442332 0.7059212 
50.75257 49.96351 1 -0.6229258 -0.3385084 -0.7052485 
-50.27488 -50.541 1 0.4518396 0.5517351 -0.7010202 
47.72511 47.45897 1 -0.4567943 -0.546618 0.7018174 
-47.5421 -47.6309 1 0.5233773 0.4865353 0.6995425 
50.4579 50.36909 1 -0.517913 -0.4912522 -0.7003124 
47.38193 47.82443 1 -0.5730821 -0.4207002 0.7032697 
-47.92838 -47.3114 1 0.3776455 0.6015545 0.703929 
50.07161 50.68866 1 -0.3775904 -0.6015392 -0.7039717 
-50.61806 -50.1756 1 0.573028 0.4206913 -0.7033191 
47.14042 48.26375 1 -0.6582576 -0.2569586 0.7075798 
-48.382 -47.0979 1 0.2211351 0.6695752 0.7090616 
-50.85958 -49.7363 1 0.6582585 0.2569735 -0.7075736 
49.618 50.90211 1 -0.2148055 -0.6721218 -0.7085978 
49.12554 50.99606 1 0.04748385 0.701665 0.710923 
-50.98426 -49.2507 1 0.6985492 0.08489373 -0.7105084 
48.62521 50.96457 1 -0.1286251 0.6922796 0.7100736 
48.14841 50.80966 1 -0.3041708 0.6383684 0.7070827 
47.72511 50.54103 1 -0.4518316 0.5517467 0.7010163 
47.38193 50.17557 1 -0.5730826 0.4206996 0.7032697 
47.14042 49.73625 1 -0.6551979 0.2630833 0.7081687 
-50.98426 -48.7493 1 0.6985492 -0.08489232 -0.7105085 
-49.85159 -47.1903 1 -0.3041708 0.6383772 0.7070747 
-49.3748 -47.03539 1 -0.128625 0.6922829 0.7100704 
-50.27488 -47.459 1 -0.4518372 0.5517349 0.701022 
-50.61806 -47.8244 1 -0.5778256 0.4154709 0.7024966 
-50.85958 -48.26381 1 -0.6552601 0.2630637 0.7081184 
1.684766 47.63091 1 -0.517915 0.49125 -0.7003124 
1.298477 47.31134 1 -0.3831301 0.5972356 -0.7046424 
1.979441 48.03649 1 -0.6189591 0.3442281 -0.7059722 
2.163992 48.50262 1 -0.6814368 0.17845 -0.7097883 
47.01574 48.74933 1 -0.6974636 -0.09149341 0.7107555 
-48.87445 -47.00391 1 0.04081867 0.7021335 0.7108744 
2.226824 49 1 -0.7031674 0.003349405 -0.7110165 
47.01574 49.25067 1 -0.6974637 0.09149206 0.7107556 
2.163992 49.49738 1 -0.6814926 -0.1784457 -0.7097359 
1.979441 49.96351 1 -0.6189594 -0.3442268 -0.7059725 
3 0 1 2 
3 3 0 2 
3 4 5 6 
3 4 6 7 
3 4 7 8 
3 4 8 9 
3 4 9 10 
3 4 11 12 
3 4 12 13 
3 4 13 14 
3 4 14 15 
3 4 15 16 
3 17 18 4 
3 19 4 18 
3 20 17 4 
3 21 4 19 
3 22 20 4 
3 23 4 21 
3 24 4 10 
3 24 22 4 
3 25 10 26 
3 25 26 27 
3 25 24 10 
3 28 27 29 
3 28 25 27 
3 30 23 31 
3 30 31 32 
3 30 32 33 
3 30 4 23 
3 30 34 35 
3 30 35 36 
3 30 36 37 
3 30 37 38 
3 30 38 11 
3 30 11 4 
3 39 28 29 
3 40 41 42 
3 40 43 41 
3 44 30 33 
3 45 29 46 
3 45 39 29 
3 47 30 44 
3 48 49 50 
3 48 51 49 
3 52 30 47 
3 53 40 42 
3 53 54 55 
3 53 56 54 
3 53 42 56 
3 57 48 50 
3 57 58 59 
3 57 60 58 
3 57 50 60 
3 61 43 40 
3 61 62 43 
3 61 63 62 
3 64 46 3 
3 64 52 65 
3 64 65 66 
3 67 51 48 
3 64 66 68 
3 64 68 69 
3 67 70 51 
3 64 30 52 
3 67 71 70 
3 64 69 72 
3 64 72 73 
3 64 73 74 
3 64 74 45 
3 64 45 46 
3 2 64 3 
3 4 75 76 
3 4 76 77 
3 4 77 5 
3 78 53 55 
3 76 75 79 
3 80 4 81 
3 80 81 82 
3 81 4 83 
3 83 4 16 
3 30 84 85 
3 30 85 34 
3 85 84 86 
3 78 87 88 
3 78 55 87 
3 89 57 59 
3 89 90 91 
3 89 59 90 
3 92 93 63 
3 92 94 93 
3 92 95 94 
3 92 63 61 
3 96 97 71 
3 96 98 97 
3 96 99 98 
3 96 71 67 
3 100 78 88 
3 100 101 102 
3 100 103 101 
3 100 88 103 
3 104 105 80 
3 104 91 105 
3 104 89 91 
3 106 75 95 
3 106 95 92 
3 107 99 96 
3 107 108 99 
3 107 109 108 
3 110 100 102 
3 110 111 112 
3 110 102 111 
3 113 104 80 
3 114 75 106 
3 115 109 107 
3 115 116 109 
3 115 117 116 
3 115 118 117 
3 119 110 112 
3 119 120 121 
3 119 112 120 
3 122 113 80 
3 123 75 114 
3 124 118 115 
3 124 125 118 
3 124 126 125 
3 127 119 121 
3 127 128 129 
3 127 121 128 
3 130 122 80 
3 131 75 123 
3 132 126 124 
3 132 133 126 
3 134 130 80 
3 135 133 132 
3 136 137 127 
3 136 127 129 
3 138 75 131 
3 139 135 132 
3 140 134 80 
3 141 135 139 
3 142 137 136 
3 143 141 139 
3 144 145 137 
3 144 137 142 
3 146 139 147 
3 146 143 139 
3 148 145 144 
3 149 146 147 
3 150 145 148 
3 151 147 152 
3 151 149 147 
3 153 145 150 
3 153 154 145 
3 155 151 152 
3 156 154 153 
3 84 152 157 
3 84 157 158 
3 84 158 159 
3 84 159 160 
3 84 160 161 
3 84 155 152 
3 162 163 154 
3 162 154 156 
3 164 163 162 
3 2 165 166 
3 2 166 167 
3 2 167 168 
3 2 168 163 
3 2 163 164 
3 2 169 165 
3 170 75 138 
3 170 171 75 
3 172 173 80 
3 174 75 171 
3 175 80 173 
3 175 140 80 
3 176 170 138 
3 176 138 177 
3 82 172 80 
3 79 75 174 
3 178 140 175 
3 178 179 140 
3 180 176 177 
3 180 177 181 
3 182 179 178 
3 182 183 179 
3 184 180 181 
3 184 169 2 
3 184 181 169 
3 185 183 182 
3 185 161 183 
3 186 184 2 
3 187 84 161 
3 187 161 185 
3 188 186 2 
3 189 84 187 
3 190 188 2 
3 191 84 189 
3 1 190 2 
3 86 84 191 
3 186 192 193 
3 180 184 194 
3 176 180 194 
3 184 193 194 
3 176 194 195 
3 76 196 197 
3 77 76 197 
3 170 176 198 
3 176 195 198 
3 5 77 199 
3 77 197 199 
3 171 170 200 
3 170 198 200 
3 6 5 201 
3 7 6 201 
3 5 199 201 
3 174 171 202 
3 171 200 202 
3 8 7 203 
3 7 201 203 
3 79 174 204 
3 174 202 204 
3 76 79 196 
3 79 204 196 
3 8 203 205 
3 9 8 206 
3 8 205 206 
3 10 9 207 
3 9 206 207 
3 26 10 208 
3 27 26 208 
3 10 207 208 
3 27 208 209 
3 29 27 210 
3 27 209 210 
3 29 210 211 
3 46 29 211 
3 46 211 212 
3 3 46 212 
3 0 3 212 
3 0 212 213 
3 1 0 213 
3 1 213 214 
3 1 214 215 
3 190 1 215 
3 188 190 216 
3 190 215 216 
3 186 188 192 
3 188 216 192 
3 184 186 193 
3 217 101 103 
3 218 217 103 
3 218 103 88 
3 219 218 88 
3 220 219 88 
3 220 88 87 
3 221 2 164 
3 222 221 164 
3 220 87 55 
3 223 220 55 
3 224 222 162 
3 222 164 162 
3 225 223 54 
3 223 55 54 
3 226 224 156 
3 224 162 156 
3 227 225 56 
3 228 226 153 
3 225 54 56 
3 229 228 153 
3 226 156 153 
3 230 227 42 
3 227 56 42 
3 229 153 150 
3 231 230 41 
3 232 229 148 
3 233 232 148 
3 230 42 41 
3 229 150 148 
3 234 231 43 
3 235 234 43 
3 231 41 43 
3 233 148 144 
3 235 43 62 
3 236 235 62 
3 233 144 142 
3 237 233 142 
3 236 62 63 
3 237 142 136 
3 238 237 136 
3 239 238 136 
3 240 236 93 
3 236 63 93 
3 239 136 129 
3 241 240 94 
3 240 93 94 
3 242 241 95 
3 243 242 95 
3 239 129 128 
3 244 239 128 
3 241 94 95 
3 243 95 75 
3 244 128 121 
3 245 244 121 
3 246 245 121 
3 246 121 120 
3 247 246 120 
3 247 120 112 
3 247 112 111 
3 248 247 111 
3 249 248 111 
3 249 111 102 
3 249 102 101 
3 217 249 101 
3 64 2 221 
3 64 221 250 
3 75 4 251 
3 75 251 243 
3 252 30 64 
3 250 252 64 
3 251 4 80 
3 253 251 80 
3 84 30 252 
3 84 252 254 
3 255 117 118 
3 256 255 118 
3 257 253 80 
3 256 118 125 
3 258 256 125 
3 258 125 126 
3 257 80 105 
3 259 258 126 
3 260 257 91 
3 259 126 133 
3 261 259 133 
3 257 105 91 
3 262 261 135 
3 263 260 90 
3 261 133 135 
3 264 263 90 
3 260 91 90 
3 265 262 141 
3 262 135 141 
3 264 90 59 
3 266 265 143 
3 265 141 143 
3 267 264 58 
3 268 267 58 
3 264 59 58 
3 269 266 146 
3 266 143 146 
3 270 268 60 
3 268 58 60 
3 271 269 149 
3 269 146 149 
3 272 270 50 
3 270 60 50 
3 271 149 151 
3 273 271 155 
3 271 151 155 
3 272 50 49 
3 273 155 84 
3 254 273 84 
3 272 49 51 
3 274 272 51 
3 275 274 51 
3 275 51 70 
3 276 275 70 
3 276 70 71 
3 277 276 71 
3 277 71 97 
3 278 277 97 
3 278 97 98 
3 279 278 98 
3 279 98 99 
3 280 279 99 
3 280 99 108 
3 281 280 108 
3 281 108 109 
3 282 281 109 
3 282 109 116 
3 282 116 117 
3 283 282 117 
3 255 283 117 
3 119 284 285 
3 100 110 286 
3 78 100 286 
3 110 285 286 
3 78 286 287 
3 106 288 289 
3 114 106 289 
3 53 78 290 
3 78 287 290 
3 123 114 291 
3 114 289 291 
3 40 53 292 
3 53 290 292 
3 131 123 293 
3 138 131 293 
3 123 291 293 
3 61 40 294 
3 40 292 294 
3 177 138 295 
3 138 293 295 
3 92 61 296 
3 61 294 296 
3 106 92 288 
3 92 296 288 
3 177 295 297 
3 181 177 298 
3 177 297 298 
3 169 181 299 
3 181 298 299 
3 165 169 300 
3 166 165 300 
3 169 299 300 
3 166 300 301 
3 167 166 302 
3 166 301 302 
3 167 302 303 
3 168 167 303 
3 168 303 304 
3 163 168 304 
3 154 163 304 
3 154 304 305 
3 145 154 305 
3 145 305 306 
3 145 306 307 
3 137 145 307 
3 127 137 308 
3 137 307 308 
3 119 127 284 
3 127 308 284 
3 110 119 285 
3 25 309 310 
3 22 24 311 
3 20 22 311 
3 24 310 311 
3 20 311 312 
3 23 313 314 
3 31 23 314 
3 17 20 315 
3 20 312 315 
3 32 31 316 
3 31 314 316 
3 18 17 317 
3 17 315 317 
3 33 32 318 
3 44 33 318 
3 32 316 318 
3 19 18 319 
3 18 317 319 
3 47 44 320 
3 44 318 320 
3 21 19 321 
3 19 319 321 
3 23 21 313 
3 21 321 313 
3 47 320 322 
3 52 47 323 
3 47 322 323 
3 65 52 324 
3 52 323 324 
3 66 65 325 
3 68 66 325 
3 65 324 325 
3 68 325 326 
3 69 68 327 
3 68 326 327 
3 69 327 328 
3 72 69 328 
3 72 328 329 
3 73 72 329 
3 74 73 329 
3 74 329 330 
3 45 74 330 
3 45 330 331 
3 45 331 332 
3 39 45 332 
3 28 39 333 
3 39 332 333 
3 25 28 309 
3 28 333 309 
3 24 25 310 
3 81 83 334 
3 83 335 334 
3 185 182 336 
3 82 81 337 
3 81 334 337 
3 187 185 338 
3 185 336 338 
3 172 82 339 
3 82 337 339 
3 189 187 340 
3 187 338 340 
3 173 172 341 
3 172 339 341 
3 189 340 342 
3 175 173 343 
3 178 175 343 
3 191 189 344 
3 173 341 343 
3 189 342 344 
3 178 343 345 
3 182 178 336 
3 86 191 346 
3 178 345 336 
3 85 86 346 
3 191 344 346 
3 85 346 347 
3 34 85 348 
3 85 347 348 
3 35 34 349 
3 34 348 349 
3 36 35 350 
3 35 349 350 
3 37 36 351 
3 36 350 351 
3 37 351 352 
3 38 37 352 
3 38 352 353 
3 11 38 353 
3 12 11 353 
3 12 353 354 
3 13 12 354 
3 13 354 355 
3 13 355 356 
3 14 13 356 
3 15 14 357 
3 14 356 357 
3 16 15 357 
3 16 357 358 
3 16 358 335 
3 83 16 335 
3 104 113 359 
3 89 104 359 
3 113 360 359 
3 89 359 361 
3 107 362 363 
3 115 107 363 
3 57 89 364 
3 89 361 364 
3 124 115 365 
3 115 363 365 
3 48 57 366 
3 57 364 366 
3 132 124 367 
3 139 132 367 
3 124 365 367 
3 67 48 368 
3 48 366 368 
3 147 139 369 
3 96 67 370 
3 139 367 369 
3 67 368 370 
3 107 96 362 
3 96 370 362 
3 147 369 371 
3 152 147 372 
3 147 371 372 
3 157 152 373 
3 158 157 373 
3 152 372 373 
3 159 158 374 
3 158 373 374 
3 160 159 375 
3 159 374 375 
3 161 160 376 
3 160 375 376 
3 161 376 377 
3 161 377 378 
3 183 161 378 
3 179 183 378 
3 179 378 379 
3 140 179 379 
3 140 379 380 
3 140 380 381 
3 134 140 381 
3 130 134 382 
3 134 381 382 
3 122 130 383 
3 130 382 383 
3 113 122 360 
3 122 383 360 
3 195 194 384 
3 194 385 384 
3 198 195 386 
3 195 384 386 
3 197 196 387 
3 196 388 387 
3 200 198 389 
3 198 386 389 
3 199 197 390 
3 202 200 391 
3 197 387 390 
3 200 389 391 
3 201 199 392 
3 204 202 393 
3 203 201 392 
3 196 204 393 
3 199 390 392 
3 202 391 393 
3 196 393 388 
3 203 392 394 
3 205 203 395 
3 206 205 395 
3 203 394 395 
3 206 395 396 
3 207 206 397 
3 208 207 397 
3 206 396 397 
3 208 397 398 
3 209 208 399 
3 210 209 399 
3 208 398 399 
3 210 399 400 
3 211 210 401 
3 210 400 401 
3 211 401 402 
3 212 211 402 
3 212 402 403 
3 213 212 403 
3 214 213 403 
3 214 403 404 
3 215 214 405 
3 214 404 405 
3 216 215 406 
3 215 405 406 
3 192 216 407 
3 193 192 407 
3 216 406 407 
3 193 407 408 
3 194 193 385 
3 193 408 385 
3 409 254 410 
3 221 405 404 
3 410 254 411 
3 221 404 403 
3 221 403 402 
3 412 413 251 
3 414 412 251 
3 415 414 251 
3 416 415 251 
3 417 416 251 
3 390 387 251 
3 392 390 251 
3 394 392 251 
3 395 394 251 
3 396 395 251 
3 397 396 251 
3 398 397 251 
3 251 418 419 
3 418 251 420 
3 251 419 421 
3 420 251 422 
3 251 421 423 
3 422 251 424 
3 251 423 425 
3 398 251 426 
3 251 425 426 
3 399 398 427 
3 400 399 427 
3 398 426 427 
3 230 231 428 
3 231 234 428 
3 429 430 252 
3 424 251 252 
3 431 429 252 
3 432 431 252 
3 433 432 252 
3 413 433 252 
3 434 424 252 
3 435 434 252 
3 436 435 252 
3 270 272 437 
3 251 413 252 
3 272 274 437 
3 400 427 438 
3 436 252 439 
3 223 225 440 
3 225 227 440 
3 227 230 440 
3 230 428 440 
3 439 252 441 
3 264 267 442 
3 267 268 442 
3 268 270 442 
3 270 437 442 
3 441 252 443 
3 234 235 444 
3 428 234 444 
3 235 236 444 
3 437 274 445 
3 274 275 445 
3 275 276 445 
3 401 400 250 
3 402 401 250 
3 400 438 250 
3 443 252 250 
3 219 220 446 
3 447 443 250 
3 220 223 446 
3 448 447 250 
3 449 448 250 
3 223 440 446 
3 450 449 250 
3 451 450 250 
3 452 451 250 
3 453 452 250 
3 454 453 250 
3 438 454 250 
3 260 263 455 
3 221 402 250 
3 263 264 455 
3 264 442 455 
3 388 243 251 
3 387 388 251 
3 393 243 388 
3 456 251 253 
3 457 456 253 
3 458 251 456 
3 236 240 459 
3 417 251 458 
3 240 241 459 
3 460 254 252 
3 241 242 459 
3 430 460 252 
3 411 254 460 
3 444 236 459 
3 445 276 461 
3 276 277 461 
3 277 278 461 
3 278 279 461 
3 249 217 462 
3 217 218 462 
3 218 219 462 
3 219 446 462 
3 253 257 463 
3 257 260 463 
3 260 455 463 
3 459 242 464 
3 242 243 464 
3 461 279 465 
3 279 280 465 
3 280 281 465 
3 247 248 466 
3 248 249 466 
3 249 462 466 
3 253 463 467 
3 464 243 468 
3 465 281 469 
3 281 282 469 
3 282 283 469 
3 283 255 469 
3 245 246 470 
3 246 247 470 
3 247 466 470 
3 253 467 471 
3 468 243 472 
3 469 255 473 
3 255 256 473 
3 256 258 473 
3 239 244 474 
3 244 245 474 
3 245 470 474 
3 253 471 475 
3 472 243 476 
3 473 258 477 
3 258 259 477 
3 253 475 478 
3 476 243 479 
3 477 259 261 
3 480 477 261 
3 239 474 238 
3 474 481 238 
3 253 478 482 
3 479 243 483 
3 480 261 262 
3 238 481 237 
3 480 262 265 
3 237 481 233 
3 481 484 233 
3 485 480 266 
3 480 265 266 
3 233 484 232 
3 485 266 269 
3 232 484 229 
3 486 485 271 
3 485 269 271 
3 229 484 228 
3 484 487 228 
3 486 271 273 
3 228 487 226 
3 486 273 254 
3 488 486 254 
3 489 488 254 
3 490 489 254 
3 491 490 254 
3 492 491 254 
3 487 493 224 
3 226 487 224 
3 224 493 222 
3 494 495 221 
3 496 494 221 
3 497 496 221 
3 498 497 221 
3 493 498 221 
3 222 493 221 
3 243 389 386 
3 253 499 500 
3 389 243 391 
3 499 253 501 
3 253 482 501 
3 483 243 384 
3 243 386 384 
3 253 500 457 
3 391 243 393 
3 501 482 502 
3 482 503 502 
3 483 384 385 
3 504 483 385 
3 502 503 505 
3 503 506 505 
3 504 385 408 
3 495 504 408 
3 221 495 408 
3 505 506 507 
3 506 492 507 
3 221 408 407 
3 492 254 508 
3 507 492 508 
3 221 407 406 
3 508 254 409 
3 221 406 405 
3 287 286 446 
3 286 462 446 
3 290 287 440 
3 287 446 440 
3 289 288 468 
3 288 464 468 
3 292 290 428 
3 290 440 428 
3 291 289 472 
3 294 292 444 
3 289 468 472 
3 292 428 444 
3 293 291 476 
3 296 294 459 
3 295 293 476 
3 288 296 459 
3 291 472 476 
3 294 444 459 
3 288 459 464 
3 295 476 479 
3 297 295 483 
3 298 297 483 
3 295 479 483 
3 298 483 504 
3 299 298 495 
3 300 299 495 
3 298 504 495 
3 300 495 494 
3 301 300 496 
3 302 301 496 
3 300 494 496 
3 302 496 497 
3 303 302 498 
3 302 497 498 
3 303 498 493 
3 304 303 493 
3 304 493 487 
3 305 304 487 
3 306 305 487 
3 306 487 484 
3 307 306 481 
3 306 484 481 
3 308 307 474 
3 307 481 474 
3 284 308 470 
3 285 284 470 
3 308 474 470 
3 285 470 466 
3 286 285 462 
3 285 466 462 
3 312 311 421 
3 311 423 421 
3 315 312 419 
3 312 421 419 
3 314 313 434 
3 313 424 434 
3 317 315 418 
3 315 419 418 
3 316 314 435 
3 319 317 420 
3 314 434 435 
3 317 418 420 
3 318 316 436 
3 321 319 422 
3 320 318 436 
3 313 321 422 
3 316 435 436 
3 319 420 422 
3 313 422 424 
3 320 436 439 
3 322 320 441 
3 323 322 441 
3 320 439 441 
3 323 441 443 
3 324 323 447 
3 325 324 447 
3 323 443 447 
3 325 447 448 
3 326 325 449 
3 327 326 449 
3 325 448 449 
3 327 449 450 
3 328 327 451 
3 327 450 451 
3 328 451 452 
3 329 328 452 
3 329 452 453 
3 330 329 453 
3 331 330 453 
3 331 453 454 
3 332 331 438 
3 331 454 438 
3 333 332 427 
3 332 438 427 
3 309 333 426 
3 310 309 426 
3 333 427 426 
3 310 426 425 
3 311 310 423 
3 310 425 423 
3 337 334 457 
3 334 456 457 
3 339 337 500 
3 337 457 500 
3 338 336 507 
3 336 505 507 
3 341 339 499 
3 339 500 499 
3 340 338 508 
3 343 341 501 
3 338 507 508 
3 341 499 501 
3 342 340 409 
3 345 343 502 
3 344 342 409 
3 336 345 502 
3 340 508 409 
3 343 501 502 
3 336 502 505 
3 344 409 410 
3 346 344 411 
3 347 346 411 
3 344 410 411 
3 347 411 460 
3 348 347 430 
3 349 348 430 
3 347 460 430 
3 349 430 429 
3 350 349 431 
3 351 350 431 
3 349 429 431 
3 351 431 432 
3 352 351 433 
3 351 432 433 
3 352 433 413 
3 353 352 413 
3 353 413 412 
3 354 353 412 
3 355 354 412 
3 355 412 414 
3 356 355 415 
3 355 414 415 
3 357 356 416 
3 356 415 416 
3 358 357 417 
3 335 358 417 
3 357 416 417 
3 335 417 458 
3 334 335 456 
3 335 458 456 
3 361 359 455 
3 359 463 455 
3 364 361 442 
3 361 455 442 
3 363 362 469 
3 362 465 469 
3 366 364 437 
3 364 442 437 
3 365 363 473 
3 368 366 445 
3 363 469 473 
3 366 437 445 
3 367 365 477 
3 370 368 461 
3 369 367 477 
3 362 370 461 
3 365 473 477 
3 368 445 461 
3 362 461 465 
3 369 477 480 
3 371 369 485 
3 372 371 485 
3 369 480 485 
3 372 485 486 
3 373 372 488 
3 374 373 488 
3 372 486 488 
3 374 488 489 
3 375 374 490 
3 376 375 490 
3 374 489 490 
3 376 490 491 
3 377 376 492 
3 376 491 492 
3 377 492 506 
3 378 377 506 
3 378 506 503 
3 379 378 503 
3 380 379 503 
3 380 503 482 
3 381 380 478 
3 380 482 478 
3 382 381 475 
3 381 478 475 
3 383 382 471 
3 360 383 471 
3 382 475 471 
3 360 471 467 
3 359 360 463 
3 360 467 463 
