ply
format ascii 1.0
comment VCGLIB generated
element vertex 499
property float x
property float y
property float z
property float nx
property float ny
property float nz
element face 994
property list uchar int vertex_indices
end_header
42.8 -1.75 -19.25 -0.8472481 -0.04770866 -0.5290506 
42.8 4.25 -20.25 -0.9251127 -0.197628 -0.3242063 
43.2 -1.75 -19.25 -0.8509341 -0.04500165 -0.5233412 
42.8 -13.75 -19.25 -0.8021466 -0.3055111 0.5130535 
43.2 -13.75 -19.25 -0.8201504 -0.4111356 0.3978954 
42.8 -1.75 -19.243 -0.8475597 -0.04761352 -0.5285598 
42.8 4.25 -20.2432 -0.9252369 -0.197618 -0.3238578 
43.2 4.25 -20.25 -0.9235112 -0.205061 -0.324156 
43.2 11.45 -22.25 -0.7312331 -0.6623246 0.1631697 
43.2 4.25 -8.248199 -0.9879009 -0.1546217 -0.01200187 
42.3169 4.25 -8.233398 -0.9943484 -0.1057507 -0.00938433 
42.11591 4.25 -20.2317 -0.704335 -0.113883 0.7006732 
42.3001 -1.75 -9.233305 -0.906692 0.4158358 0.07064113 
42.13269 -1.75 -19.2319 -0.7653766 -0.06097906 -0.6406873 
42.13269 -13.75 -19.2319 -0.8289891 -0.2694142 0.4900948 
42.8 -13.75 -19.243 -0.8024438 -0.30522 0.5127618 
42.2831 -12.25 -10.25 -0.8949413 -0.4459612 -0.01409209 
42.14911 -12.25 -18.25 -0.7991939 -0.337139 0.4976208 
24.8 -13.75 -19.25 -0.8441217 0.4750655 -0.2485384 
43.2 -27.75 -19.25 -0.5327499 -0.2726734 0.8011409 
43.2 -30.75 -22.25 -0.320593 -0.2116922 0.9232587 
24.8 -27.75 -19.25 0.2710957 -0.5406988 0.7963366 
43.2 -27.75 -9.25 -0.699837 0.7116882 -0.06105698 
43.2 -30.75 -14.5 -0.7166111 0.5437527 0.4368083 
24.8 -27.75 -9.25 -0.9016827 0.4172202 -0.1135588 
24.8 -26.75 -18.75 0.387172 -0.5033439 0.7724913 
24.8 -13.75 -9.25 -0.8990593 0.4378103 0.003812361 
42.2999 -15.75 -9.25 -0.958945 -0.2834649 -0.008487887 
24.8 -26.75 -9.55 -0.9338569 0.3517208 -0.06483698 
24.8 -14.25 -18.75 -0.8819883 0.4218208 -0.2101519 
24.7 -26.75 -18.75 0.3916754 -0.5059983 0.7684764 
24.8 -14.25 -9.55 -0.9191356 0.3938868 0.006555414 
24.7 -26.75 -9.55 -0.9333111 0.3531545 -0.06490206 
24.7 -14.25 -9.55 -0.9219386 0.3872864 0.006198145 
24.7 -14.25 -18.75 -0.887778 0.4126758 -0.2038354 
24.8 -13.75 -18.25 -0.8793275 0.4437408 -0.1728502 
24.8 -13.75 -10.25 -0.9005167 0.4344264 0.01852997 
42.2831 -13.75 -10.25 -0.9346724 -0.3548911 -0.02097169 
24.8 -12.25 -10.25 -0.8355274 0.549 0.02220459 
24.8 -12.25 -18.25 -0.7614607 0.5981061 -0.2498935 
42.2999 -13.75 -9.25 -0.9398374 -0.3413999 -0.01231772 
42.14911 -13.75 -18.25 -0.7962255 -0.4146228 0.4405824 
42.3001 -15.75 -9.233305 -0.9589519 -0.2834432 -0.008441131 
43.2 -1.75 -9.248297 -0.93296 0.353399 0.06851801 
43.2 -15.75 -9.248297 -0.9631068 -0.2689733 -0.008870471 
43.2 -15.75 -9.25 -0.9631064 -0.2689746 -0.008875322 
43.2 -27.75 -5 -0.6773015 0.7159795 -0.1692219 
43.2 -13.75 -5 -0.9566023 -0.2913659 0.004238744 
43.2 -1.75 -5 -0.8698277 0.4898836 -0.05842809 
43.2 4.25 -6 -0.9999807 -0.005298666 -0.003229051 
42.8 -1.75 -5 -0.8752226 0.4804085 -0.05650737 
42.8 4.25 -6 -0.9997154 -0.02362293 -0.003324011 
43.2 11.45 22.25 -0.8481547 -0.4316527 -0.3070986 
43.2 4.25 6.001801 -0.9953887 -0.095184 -0.01188239 
42.8 4.25 -5.993203 -0.999707 -0.02398067 -0.003303112 
42.8 -13.75 -5 -0.9536769 -0.3008147 0.003286391 
42.8 -1.75 -4.993 -0.8751904 0.4804712 -0.05647276 
42.3169 4.25 6.016602 -0.9919183 -0.1264275 -0.01068592 
42.11591 4.25 -5.981699 -0.9991127 -0.03846971 -0.01714471 
42.8 -13.75 -4.993 -0.9536672 -0.3008459 0.003256766 
42.13269 -1.75 -4.981898 -0.8741134 0.4797228 -0.07610401 
24.8 -13.75 -5 -0.8943908 0.4471334 0.01169544 
42.13269 -13.75 -4.981898 -0.9484262 -0.3169956 0.00123747 
24.8 -13.75 -4 -0.8911793 0.4536151 0.005733791 
42.14911 -13.75 -4 -0.947035 -0.3211167 -0.002973892 
42.14911 -12.25 -4 -0.9677359 -0.2519505 -0.00285535 
24.8 -12.25 -4 -0.841752 0.5398384 0.005303666 
24.8 -14.25 -4.55 -0.9140191 0.4055556 0.009682789 
24.8 -13.75 4 -0.8906246 0.4546942 -0.006410797 
42.2831 -12.25 4 -0.9441442 -0.3295108 0.003775317 
24.8 -12.25 4 -0.8443111 0.5358357 -0.004340058 
24.8 -13.75 5 -0.8962269 0.4435326 -0.007494023 
42.2831 -13.75 4 -0.9420642 -0.3354108 -0.00384078 
24.8 -14.25 4.65 -0.9073276 0.4202688 -0.01143531 
42.2999 -13.75 5 -0.9434403 -0.331489 -0.00596037 
42.3001 -1.75 5.016699 -0.8652309 0.5007192 0.02560732 
42.3001 -15.75 5.016699 -0.9674046 -0.2525414 -0.01874159 
42.2999 -15.75 5 -0.9673474 -0.2527665 -0.01865909 
43.2 -1.75 5.001699 -0.8733779 0.4859681 0.03234525 
43.2 -1.75 9.25 -0.9413397 0.2611184 -0.2137681 
43.2 4.25 8.25 -0.9831192 -0.1786344 -0.03957699 
43.2 -13.75 9.25 -0.9292763 -0.3687605 -0.02147493 
42.8 -1.75 9.25 -0.9313868 0.2996251 -0.206745 
42.8 4.25 8.25 -0.9897469 -0.1428317 -0.0003020449 
43.2 4.25 20.2518 -0.6621425 -0.1254644 -0.7388003 
42.8 4.25 8.256799 -0.9897426 -0.1428619 -0.0002315596 
42.8 -13.75 9.25 -0.9349011 -0.3548834 -0.004216699 
42.8 -1.75 9.257 -0.9314329 0.2994284 -0.2068221 
42.3169 4.25 20.2666 -0.6437014 -0.03070644 -0.7646604 
42.11591 4.25 8.268301 -0.9880936 -0.1538506 -0.0009918319 
42.8 -13.75 9.257 -0.9348972 -0.3548929 -0.004269601 
42.13269 -1.75 9.2681 -0.9514275 0.1912591 -0.2412584 
24.8 -13.75 9.25 -0.9056863 0.4238766 -0.007807728 
42.13269 -13.75 9.2681 -0.9422218 -0.3349434 -0.005562361 
24.8 -13.75 10.25 -0.9118252 0.4098441 -0.02454745 
42.14911 -13.75 10.25 -0.9418163 -0.3359844 -0.009826669 
42.14911 -12.25 10.25 -0.8681564 -0.4950673 -0.0348268 
42.2831 -12.25 18.25 -0.8733374 -0.3843358 -0.2992787 
24.8 -12.25 10.25 -0.8502006 0.5263162 -0.01225897 
24.8 -12.25 18.25 -0.8220564 0.5335146 0.1989609 
42.2999 -13.75 19.25 -0.9288986 -0.3387587 -0.1496323 
42.3001 -1.75 19.2667 -0.9478224 -0.2354362 0.2149477 
42.2831 -13.75 18.25 -0.9393967 -0.3132416 -0.1393324 
24.8 -13.75 18.25 -0.8971228 0.4141158 0.1538789 
24.8 -13.75 19.25 -0.8417833 0.4724231 0.2611845 
24.8 -14.25 18.75 -0.8971559 0.3984269 0.1907019 
42.3001 -15.75 19.2667 -0.9432573 -0.2239942 -0.2451373 
42.2999 -15.75 19.25 -0.9434141 -0.2237124 -0.244791 
24.8 -27.75 19.25 -0.4363436 0.5950398 0.674931 
24.8 -26.75 18.75 -0.5050635 0.5643058 0.6530465 
24.8 -14.25 9.55 -0.9262665 0.3767502 -0.009466578 
24.7 -14.25 18.75 -0.9026104 0.3890389 0.1842369 
24.8 -26.75 9.55 -0.9377359 0.3413056 -0.06451306 
24.7 -14.25 9.55 -0.9289906 0.3699901 -0.009155901 
24.7 -26.75 9.55 -0.9373335 0.3424067 -0.06452608 
24.7 -26.75 18.75 -0.5109336 0.5662562 0.6467617 
24.8 -27.75 9.25 -0.9333498 0.3529607 -0.06539711 
43.2 -27.75 19.25 -0.7534047 -0.04295886 -0.6561524 
43.2 -27.75 9.25 -0.6797303 0.7330599 0.02428582 
43.2 -27.75 5 -0.6932747 0.7075929 0.1366838 
43.2 -15.75 5.001699 -0.9663524 -0.2572201 0.0009355771 
43.2 -30.75 14.5 -0.4401392 0.6198874 -0.6496285 
43.2 -15.75 5 -0.9663529 -0.257218 0.0009328005 
24.8 -27.75 5 -0.9633439 0.2521083 -0.09170534 
24.8 -26.75 4.65 -0.968489 0.2415436 -0.06071086 
24.8 -27.75 -5 -0.862071 -0.4503795 0.2323617 
24.8 -26.75 -4.55 -0.971514 -0.1858161 0.147081 
24.7 -26.75 4.65 -0.9682217 0.2425611 -0.06091598 
24.7 -26.75 -4.55 -0.9715105 -0.1856223 0.1473488 
24.7 -14.25 4.65 -0.9096006 0.4153275 -0.01139461 
24.7 -14.25 -4.55 -0.9163411 0.4002839 0.009578978 
14.8 -30.75 -14.5 -0.7790348 0.6111718 -0.1399062 
26.69999 -36.75 -14.5 -0.6171752 0.5108737 -0.5984169 
26.69999 -36.75 -20.25 -0.01717386 -0.4634331 0.8859655 
14.8 -36.75 -14.5 -0.3856436 0.9064173 -0.1722985 
22.3 -36.75 -20.25 0.06385298 -0.7176453 0.6934753 
26.69999 -33.75 -20.25 0.04214184 -0.4631924 0.8852553 
26.69999 -36.75 -22.25 -0.0759254 -0.4324125 0.8984736 
22.3 -33.75 -20.25 0.1725764 -0.7442171 0.6452583 
22.3 -33.75 -22.25 0.03721422 -0.6523824 0.7569757 
22.3 -36.75 -22.25 -0.06012699 -0.7120987 0.6995 
18.3 -36.75 -20.25 -0.3290926 0.8745334 -0.3562154 
14.8 -36.75 -20.25 -0.1088307 -0.7553575 0.6462128 
18.3 -36.75 -22.25 0.1907602 -0.8204747 0.5389172 
18.3 -30.75 -20.25 -0.4278781 0.7262134 -0.538084 
14.8 -30.75 -20.25 -0.5647489 0.6717201 -0.4794275 
18.3 -30.75 -22.25 0.343171 -0.6654459 0.6628842 
-17.8 -30.75 -16.85 -0.7432796 0.6636215 0.08450967 
-17.8 -30.75 -22.25 -0.7395679 -0.2663804 0.6181269 
-19.3 -30.75 -3.170004 -0.7788107 0.626511 -0.03062347 
-19.3 -30.75 -16.85 -0.7277215 0.680869 0.08269732 
-19.3 -36.75 -16.85 -0.5184602 0.8531933 0.05709893 
-19.3 -36.75 -3.170004 -0.5353886 0.8445923 -0.004783913 
-38.2 -36.75 -7.8 -0.2221394 -0.9704865 0.09386175 
-34.12 -36.75 -20.15 0.1667858 -0.9081175 0.3840639 
-19.3 -36.75 -22.25 -0.7056554 0.409943 0.5779249 
-38.2 -36.75 -3.170004 -0.258179 -0.965296 0.0393341 
-43.2 -36.75 -7.8 -0.3634362 -0.9278592 0.0836144 
-38.2 -30.75 -6.3 -0.5355611 -0.8371138 0.1114218 
-39.12 -36.75 -20.15 0.6607332 0.1545652 0.7345347 
-38.2 -30.75 -3.170004 -0.5854004 -0.8079138 0.06768822 
-43.2 -30.75 -6.3 -0.7557923 -0.6543571 0.02438803 
-43.2 -30.75 12.1 -0.6218485 -0.5799517 0.5262703 
-38.2 -30.75 9.199998 -0.5464422 -0.6327749 0.5486318 
-43.2 -27.75 -5 -0.9406887 -0.3385866 0.02153852 
-43.2 -27.75 -9.25 -0.9836935 -0.015044 -0.1792229 
-43.2 -27.75 5 -0.9937474 -0.1082308 -0.02742723 
-43.2 -15.75 -9.234902 -0.9485688 0.3155648 0.02522396 
-43.2 -13.75 -5 -0.9338185 0.3576982 0.00591846 
-24.7001 -27.75 -5 -0.7845559 0.6060183 -0.1312014 
-24.7001 -27.75 5 -0.7607844 0.4902472 0.4252819 
-24.7001 -13.75 -5 -0.8854877 -0.4646095 -0.007045991 
-24.7001 -26.75 -4.55 -0.8148245 0.5597669 -0.1507386 
-42.3 -15.75 5 -0.9600105 0.2787904 0.02560734 
-24.7001 -13.75 5 -0.8962061 -0.4416312 0.04214847 
-24.7001 -26.75 4.65 -0.8285656 0.4236622 0.3660457 
-24.7001 -14.25 -4.55 -0.9027011 -0.4302211 -0.006370218 
-24.7001 -14.25 4.65 -0.9106786 -0.4109738 0.04201175 
-42.3 -13.75 5 -0.9413652 0.3370156 0.01587596 
-24.7001 -13.75 4 -0.8899761 -0.4555095 0.02129718 
-24.7001 -13.75 -4 -0.8746814 -0.4846893 0.002957326 
-42.3167 -13.75 4 -0.9480509 0.3179777 0.00947547 
-24.7001 -12.25 4 -0.8741233 -0.4856984 -0.002323624 
-42.3167 -12.25 4 -0.8951304 0.4447081 0.03124599 
-42.3 -1.75 5 -0.9748206 -0.2168538 -0.05195355 
-42.4674 -1.75 -4.998601 -0.9961776 -0.07028149 0.05187151 
-42.4507 -12.25 -4 0.8735836 -0.4864018 0.01627689 
-24.7001 -12.25 -4 -0.8925564 -0.4509237 -0.003290755 
-42.4507 -13.75 -4 -0.9126655 0.4086789 0.004810156 
-42.4674 -13.75 -4.998601 -0.9198363 0.3923 0.001334817 
-43.2 -1.75 -4.986297 -0.9581553 -0.2702748 0.09428683 
-43.2 -13.75 -4.986297 -0.9338594 0.3575926 0.005849228 
-43.2 -1.75 -9.234902 -0.9683668 -0.2037691 -0.1440277 
-43.2 4.25 -5.9865 -0.9910554 0.1319105 0.0202166 
-43.2 4.25 -8.2348 -0.9968618 0.0723173 -0.03219841 
-42.3 -1.75 -9.25 -0.9986451 -0.01999059 -0.04804429 
-42.2833 4.25 -8.250097 -0.9844766 0.1590444 -0.0742347 
-43.2 -15.75 -9.25 -0.9485202 0.3156931 0.02544254 
-42.3 -15.75 -9.25 -0.9399568 0.3356342 0.06189414 
-43.2 -27.75 -19.25 0.8588384 -0.09991512 0.5024077 
-24.7001 -27.75 -9.25 -0.8566006 -0.0306493 0.5150689 
-42.3 -13.75 -9.25 -0.8927656 0.4501755 0.01765341 
-24.7001 -13.75 -9.25 -0.9190408 -0.3938637 0.01534015 
-24.7001 -27.75 -19.25 -0.4289837 -0.3589842 0.828917 
-24.7001 -26.75 -9.55 -0.907814 0.31534 0.2764677 
-24.7001 -26.75 -18.75 -0.4399059 -0.3910636 0.8084257 
-24.7001 -13.75 -10.25 -0.8841024 -0.4672728 -0.004369326 
-24.7001 -14.25 -9.55 -0.8680934 -0.4952242 -0.03415739 
-24.7001 -13.75 -19.25 -0.6521667 -0.4803565 0.5864608 
-24.7001 -14.25 -18.75 -0.6857262 -0.4660066 0.559122 
-43.2 -13.75 -19.25 0.8294842 -0.3114597 0.4636257 
-42.4674 -13.75 -19.2486 0.7451509 -0.2534757 0.616847 
-42.4507 -13.75 -18.25 0.8490266 -0.3098933 0.4279253 
-24.7001 -13.75 -18.25 -0.7028366 -0.5027931 0.5032095 
-24.7001 -12.25 -18.25 -0.726575 -0.6785999 0.1076618 
-24.7001 -12.25 -10.25 -0.9721401 -0.2328064 -0.02729277 
-42.4507 -12.25 -18.25 0.7865508 -0.3848622 0.4829275 
-42.3167 -12.25 -10.25 0.8121074 -0.5833222 -0.01472456 
-42.4674 -1.75 -19.2486 -0.7539288 0.2648775 0.6011915 
-42.3167 -13.75 -10.25 -0.8910154 0.452889 0.03135359 
-42.4842 4.25 -20.2485 0.9553426 -0.2086799 0.2092205 
-43.2 4.25 -20.2365 -0.8983377 0.2239401 0.3779422 
-43.2 -1.75 -19.2363 -0.6156975 0.1588214 0.7718111 
-43.2 11.45 -22.25 0.8323648 -0.5281789 0.1679161 
-43.2 -13.75 -19.2363 0.829908 -0.3110973 0.4631103 
-43.2 -36.75 -22.25 0.8273845 -0.03116028 0.5607709 
-39.12 -36.75 -22.25 0.4954615 -0.619163 0.6092249 
-39.12 -33.75 -22.25 0.5258666 -0.4419979 0.7267064 
-39.12 -33.75 -20.15 0.5714414 -0.5097249 0.6431449 
-34.12 -33.75 -22.25 0.1730192 -0.6821001 0.7104955 
-34.12 -33.75 -20.15 0.1776858 -0.7216464 0.6690697 
-34.12 -36.75 -22.25 0.07931284 -0.8979319 0.4329294 
-22.1 12.75 -22.25 0.8494366 -0.211298 0.4835396 
-29.25 12.75 -22.25 0.8058806 -0.2813411 0.5209641 
26.69999 -33.75 -22.25 -0.07713924 -0.478804 0.8745263 
23.1 12.75 -22.25 -0.6034276 -0.1258438 0.7874252 
30.25 12.75 -22.25 -0.8330779 -0.5110164 0.2117628 
36.8 12.0925 -14.5 -0.2338755 -0.9719242 -0.02580074 
36.37141 12.1355 -16.2409 -0.2173738 -0.9756317 -0.0298559 
36.8 12.0925 -0.25 -0.3246731 -0.9458263 0.0002147722 
35.1837 12.2547 -17.5838 -0.6747257 -0.7336666 -0.08048918 
36.2976 -6.75 -16.375 -0.5847304 0.768538 0.2596916 
36.8 -6.75 -14.5 -0.5495884 0.8037321 0.2279633 
34.925 -6.75 -17.7476 -0.5116348 0.8267835 0.2337921 
33.5082 12.4229 -18.2219 -0.6820289 -0.7166862 -0.1455934 
31.175 -6.75 -17.7476 -0.3820353 0.9092254 0.1654032 
29.80241 -6.75 -16.375 -0.3473557 0.9375403 0.01903205 
33.05 -6.75 -18.25 -0.4488558 0.8927171 0.03980617 
31.728 12.6016 -18.0093 -0.6652745 -0.7243058 -0.1810827 
29.40981 12.75 -15.4008 -0.600962 -0.7822816 -0.1639516 
30.25 12.75 -16.9945 -0.6375302 -0.7515805 -0.1693576 
29.3 -6.75 -14.5 -0.4164597 0.9083258 -0.03880157 
29.40981 12.75 -13.5992 -0.5424052 -0.8317616 -0.1181918 
29.80241 -6.75 -12.625 -0.4011159 0.9146596 -0.05003803 
36.2976 -6.75 -12.625 0.2290748 -0.9414127 0.2475213 
30.25 12.75 -12.0055 -0.4854125 -0.8699998 -0.08645867 
29.40981 12.75 -1.150797 0.001696412 -0.9999728 0.007181368 
31.175 -6.75 -11.2524 -0.3330562 0.9405596 0.06649317 
34.925 -6.75 -11.2524 -0.01229504 -0.9998193 -0.01450069 
36.37141 12.1355 -12.7591 -0.2178125 -0.9758375 -0.01728921 
35.1837 12.2547 -11.4162 -0.1794171 -0.9837044 -0.01162877 
36.37141 12.1355 -1.990902 -0.2705545 -0.9627046 -0.000257916 
33.5082 12.4229 -10.7781 -0.1394351 -0.9901839 -0.009674986 
35.1837 12.2547 -3.333801 -0.189568 -0.9818672 -0.0008621382 
33.05 -6.75 -10.75 0.194506 -0.9726269 -0.1271389 
31.728 12.6016 -10.9907 -0.09818972 -0.9950953 -0.01200168 
33.5082 12.4229 -3.971902 -0.1284397 -0.9917173 -0.0003366953 
31.728 12.6016 -3.759301 -0.0610739 -0.9981294 0.002758232 
36.2976 -6.75 -2.125 -0.4688633 0.8816547 -0.05340619 
34.925 -6.75 -3.497602 0.2911372 -0.9330751 0.2112108 
33.05 -6.75 -4 0.1445794 -0.9893004 0.01953185 
31.175 -6.75 -3.497602 -0.3378441 0.9411987 0.00252563 
30.25 12.75 -2.744504 -0.007922714 -0.9999399 0.007577229 
36.8 -6.75 -0.25 -0.9924079 0.1184132 0.03324035 
29.80241 -6.75 -2.125 -0.4429995 0.8963596 0.01705532 
29.3 -6.75 -0.25 -0.4695401 0.8828962 -0.005135426 
29.40981 12.75 0.6507989 -0.06953714 -0.9975793 -0.0002179667 
29.80241 -6.75 1.625 -0.4661903 0.8844774 -0.01913832 
36.2976 -6.75 1.625 -0.2445715 0.9472145 0.2072909 
30.25 12.75 2.244502 -0.004157504 -0.9999832 -0.004034202 
31.175 -6.75 2.9976 -0.3214939 0.946865 0.00940067 
34.925 -6.75 2.9976 -0.05586909 -0.9972547 -0.04859813 
36.37141 12.1355 1.4909 -0.2852198 -0.9584619 -0.0007125953 
35.1837 12.2547 2.833799 -0.2051664 -0.978727 0.0005258765 
33.05 -6.75 3.5 0.1943679 -0.972762 -0.1263139 
33.5082 12.4229 3.471899 -0.1405365 -0.9900755 0.0002051049 
31.728 12.6016 3.259299 -0.06244818 -0.9980442 -0.002821353 
35.1837 12.2547 10.9162 -0.1883081 -0.982069 -0.008974544 
33.5082 12.4229 10.2781 -0.1387979 -0.9903207 1.582486e-05 
31.728 12.6016 10.4907 -0.4416703 -0.896368 0.03810134 
36.37141 12.1355 12.2591 -0.2226673 -0.9747237 -0.01824829 
36.2976 -6.75 12.125 -0.002282179 -0.8512201 -0.5248039 
34.925 -6.75 10.7524 0.2826875 -0.9370868 0.2048322 
33.05 -6.75 10.25 0.1654794 -0.9861733 0.00887882 
31.175 -6.75 10.7524 -0.3236272 0.9454601 -0.03702104 
30.25 12.75 11.5055 -0.5008548 -0.8637137 0.05606269 
29.80241 -6.75 12.125 -0.4063998 0.9132499 0.02853005 
29.40981 12.75 13.0992 -0.5696235 -0.8192453 0.06607784 
29.3 -6.75 14 -0.4709881 0.8734934 0.1232056 
36.8 -6.75 14 -0.6328696 0.3304248 -0.700211 
29.40981 12.75 14.9008 -0.6423262 -0.762064 0.08170339 
23.1 12.75 22.25 -0.7964697 -0.3198348 -0.5131683 
23.1 27.65 -22.25 -0.6212257 -0.7766574 0.1043168 
12.39749 29.25 -22.25 -0.1989561 -0.7569643 0.6224319 
12.39749 29.25 -11.25 -0.4040616 -0.9073561 0.115927 
23.1 27.65 22.25 -0.578244 -0.7185029 -0.3865068 
12.39749 29.25 -14.25 -0.3902546 -0.9030207 0.1795968 
-22.1 29.25 -22.25 0.4752313 -0.7593733 0.444418 
-12.0974 29.25 -14.25 0.3862939 -0.894382 0.225517 
9.346301 33.2221 -14.25 -0.2603796 -0.9515843 0.1633699 
-9.046297 33.2221 -14.25 0.2464842 -0.9465281 0.208159 
-12.0974 29.25 -11.25 0.4025914 -0.9001113 0.1664925 
-22.1 29.25 22.25 0.4788726 -0.8245898 -0.3012187 
-12.0974 29.25 11.25 0.4022715 -0.9000857 -0.1674019 
-12.0974 29.25 14.25 0.3860987 -0.8945631 -0.2251325 
12.39749 29.25 22.25 -0.213324 -0.7489654 -0.6273305 
-22.1 12.75 22.25 -0.8045422 0.1601261 0.5719016 
12.39749 29.25 14.25 -0.3908545 -0.9025747 -0.1805314 
-9.046297 33.2221 14.25 0.2464519 -0.9457427 -0.211736 
-9.046297 33.2221 11.25 0.2570599 -0.9538556 -0.155176 
12.39749 29.25 11.25 -0.4039589 -0.9072546 -0.1170742 
9.346301 33.2221 11.25 -0.2639911 -0.9585895 -0.1068403 
9.346301 33.2221 -11.25 -0.2640496 -0.9563918 0.1248705 
-9.046297 33.2221 -11.25 0.2572745 -0.9542896 0.1521227 
-4.774899 35.8378 -11.25 0.05564361 -0.9756225 0.212284 
5.074898 35.8378 -11.25 -0.06144191 -0.9717091 0.228049 
5.074898 35.8378 -14.25 -0.006081668 -0.9433907 0.3316278 
-4.774899 35.8378 -14.25 0.05536044 -0.9432205 0.3275214 
0.1500039 36.75 -11.25 -0.03904821 -0.9977963 0.05364523 
0.1500039 36.75 -14.25 -0.04120409 -0.9956748 0.0832706 
9.346301 33.2221 14.25 -0.2606232 -0.9512086 -0.1651598 
5.074898 35.8378 14.25 -0.002332276 -0.9422942 -0.334778 
5.074898 35.8378 11.25 -0.06129386 -0.9711152 -0.2306045 
-4.774899 35.8378 14.25 0.05552084 -0.9416327 -0.3320319 
-4.774899 35.8378 11.25 0.05756922 -0.9760668 -0.2097126 
0.1500039 36.75 14.25 -0.04277015 -0.995495 -0.08461991 
0.1500039 36.75 11.25 -0.0404452 -0.9976771 -0.05481354 
30.25 12.75 22.25 -0.7627522 -0.2543209 -0.5945839 
18.3 -30.75 22.25 -0.500193 0.7420909 0.4462153 
29.80241 -6.75 15.875 -0.2598369 0.9181024 0.2992873 
30.25 12.75 16.4945 -0.6804314 -0.7294289 0.07033148 
31.175 -6.75 17.2476 -0.1767382 0.8604391 0.4779206 
36.2976 -6.75 15.875 -0.4327231 0.03152064 -0.9009757 
34.925 -6.75 17.2476 -0.3708977 0.1179329 -0.9211551 
31.728 12.6016 17.5093 -0.7118003 -0.6993091 0.06562891 
33.05 -6.75 17.75 0.01126747 -0.7974066 -0.6033372 
33.5082 12.4229 17.7219 -0.7237741 -0.688394 0.04758985 
35.1837 12.2547 17.0838 -0.7107829 -0.7023088 0.03936997 
36.37141 12.1355 15.7409 -0.6815786 -0.7309679 0.033714 
43.2 -30.75 22.25 -0.4492787 -0.183619 -0.8743184 
36.8 12.0925 14 -0.2381206 -0.9711903 -0.009386212 
43.2 -1.75 19.2517 -0.9654962 -0.06673043 0.2517221 
43.2 -15.75 19.2517 -0.9732354 -0.1937174 -0.1236386 
43.2 -15.75 19.25 -0.9732445 -0.1936841 -0.1236188 
26.69999 -36.75 22.25 0.002078714 0.6942993 0.7196833 
-17.8 -30.75 22.25 -0.8205292 -0.2530678 -0.5125316 
14.8 -30.75 20.25 -0.4583239 0.7680494 0.4472576 
18.3 -30.75 20.25 -0.4129084 0.7741621 0.4797705 
18.3 -36.75 20.25 -0.2661054 0.8986697 0.3486842 
18.3 -36.75 22.25 -0.2167969 0.8797053 0.4232231 
14.8 -36.75 20.25 -0.1798294 0.7267415 0.6629542 
26.69999 -36.75 14.5 -0.8116791 0.5564302 0.177658 
14.8 -36.75 14.5 -0.4804922 0.8763189 0.03452998 
14.8 -30.75 14.5 -0.6256311 0.7638294 0.1585891 
-19.3 -30.75 9.199998 -0.7178757 0.6961471 0.00580771 
-17.8 -30.75 16.85 -0.7093366 0.3097052 -0.6331857 
-38.2 -30.75 12.1 -0.4505241 -0.5098635 0.7328487 
-19.3 -36.75 9.199998 -0.620124 0.7754908 0.1185758 
-38.2 -36.75 9.199998 -0.3350613 -0.8988521 0.282487 
-38.2 -36.75 13.6 -0.3206087 -0.7766078 0.5423011 
-19.3 -36.75 16.85 0.4617308 -0.8092927 0.3631115 
-43.2 -36.75 13.6 -0.515102 -0.7780077 0.3596859 
-43.2 -36.75 22.25 -0.5495191 -0.4127278 0.726419 
-19.3 -36.75 22.25 -0.4308235 -0.6846142 0.5879579 
-19.3 -30.75 16.85 -0.6620538 0.3321552 -0.6718317 
-43.2 11.45 22.25 0.6625874 -0.7348327 0.14491 
-29.25 12.75 22.25 -0.8309265 0.4059978 0.3804301 
-29.2056 12.75 14.2043 0.569932 -0.8134353 0.1161914 
-29.2056 12.75 13.7958 0.5589725 -0.8211181 0.1153898 
-29.2056 12.75 -0.04569922 0.04440819 -0.9990077 -0.003401147 
-29.2 -6.75 14 -0.341996 -0.9250807 -0.1651192 
-29.25 12.75 14.6103 0.5856764 -0.8012991 0.1220772 
-29.25 12.75 13.3897 0.5489349 -0.8279404 0.1148266 
-29.25 12.75 0.3603008 0.04526576 -0.9989704 -0.003031652 
-29.2056 12.75 -0.4542012 0.04244832 -0.9990923 0.003559998 
-29.2 -6.75 -0.25 -0.4947159 -0.8690223 0.007507686 
-29.7024 -6.75 1.625 -0.4349279 -0.900462 0.002437625 
-29.9871 12.6813 2.048701 0.01444406 -0.9998856 -0.004499098 
-29.7024 -6.75 12.125 -0.4025866 -0.9131834 -0.06340443 
-29.9871 12.6813 11.7013 0.490368 -0.8665667 0.09274372 
-31.075 -6.75 2.9976 -0.3376883 -0.9411954 -0.01085684 
-31.4394 12.546 3.182299 0.049877 -0.9987543 -0.001494827 
-36.1976 -6.75 1.625 -0.3084551 -0.9511293 0.0144383 
-36.7 -6.75 -0.25 0.09585728 -0.995331 0.0112894 
-32.95 -6.75 3.5 -0.1418915 -0.9898543 0.00744023 
-34.825 -6.75 2.9976 -0.2004109 -0.9743063 0.1027744 
-33.2562 12.3767 3.4875 0.1210056 -0.9926513 0.0009690046 
-31.4394 12.546 10.5677 0.1101433 -0.993906 0.00438539 
-34.9991 12.2142 2.890699 0.1860472 -0.9825407 0.0004251026 
-36.2475 12.0979 1.535799 0.2679946 -0.9634145 -0.003383301 
-36.2475 12.0979 12.2142 0.2057079 -0.9786096 0.00276054 
-34.9991 12.2142 10.8593 0.1656764 -0.9861783 0.001901839 
-33.2562 12.3767 10.2625 0.1271675 -0.9918721 0.004256691 
-31.075 -6.75 10.7524 -0.2781458 -0.960374 -0.01779755 
-32.95 -6.75 10.25 -0.3169477 -0.9484166 -0.007077398 
-34.825 -6.75 10.7524 -0.2344886 -0.9653117 -0.1148407 
-36.1976 -6.75 12.125 -0.4385444 -0.8729624 -0.2135777 
-36.7 -6.75 14 -0.5742717 -0.7723275 -0.2715181 
-29.7024 -6.75 15.875 -0.2573659 -0.891836 -0.3720097 
-36.7 12.0557 14 0.2216706 -0.9750387 0.01271438 
-36.2475 12.0979 15.7858 0.2112575 -0.977195 0.02145346 
-36.1976 -6.75 15.875 -0.5826946 -0.6926455 -0.4250991 
-31.075 -6.75 17.2476 0.2308551 -0.259701 0.9376894 
-29.9871 12.6813 16.2987 0.6499339 -0.7425452 0.1619025 
-31.4394 12.546 17.4323 0.6828581 -0.7080708 0.1798347 
-32.95 -6.75 17.75 -0.3397929 -0.7268765 -0.5968177 
-34.825 -6.75 17.2476 -0.410146 -0.637625 -0.6520848 
-34.9991 12.2142 17.1407 0.6357511 -0.761544 0.125981 
-33.2562 12.3767 17.7375 0.6919059 -0.7000909 0.1764623 
-36.7 12.0557 -0.25 0.3402475 -0.9403349 -0.001434248 
-36.2475 12.0979 -2.035797 0.2675678 -0.9635367 0.002117175 
-36.7 12.0557 -14.5 0.2237469 -0.9746436 -0.002663709 
-36.1976 -6.75 -2.125 -0.1406258 -0.9894447 -0.03497934 
-34.825 -6.75 -3.497602 -0.1974874 -0.980082 -0.02092583 
-34.9991 12.2142 -3.390602 0.1860125 -0.9825473 -0.0004536006 
-29.7024 -6.75 -2.125 -0.4429601 -0.8964993 -0.008677442 
-29.25 12.75 -0.8602968 0.04346714 -0.9990497 0.003221942 
-29.9871 12.6813 -2.548703 0.01395405 -0.9998937 0.004226373 
-31.075 -6.75 -3.497602 -0.3166946 -0.948508 0.006087088 
-29.25 12.75 -13.8897 0.6186822 -0.781882 -0.07676508 
-29.9871 12.6813 -12.2013 0.5527999 -0.8310171 -0.06182915 
-29.2056 12.75 -14.2958 0.6117387 -0.7882572 -0.06653063 
-29.2 -6.75 -14.5 -0.4481938 -0.8938755 -0.01043642 
-29.7024 -6.75 -12.625 -0.4122362 -0.9107909 0.02283161 
-31.075 -6.75 -11.2524 -0.2860802 -0.9573126 0.04136126 
-31.4394 12.546 -11.0677 0.1375186 -0.9904992 0.0001195586 
-36.1976 -6.75 -12.625 -0.3536329 -0.9338901 0.05284971 
-36.7 -6.75 -14.5 -0.4963626 -0.8679625 0.01628994 
-32.95 -6.75 -10.75 -0.1260942 -0.9899286 0.06435549 
-34.825 -6.75 -11.2524 -0.1478761 -0.9760743 0.1594102 
-33.2562 12.3767 -10.7625 0.1632068 -0.9865919 0.0001686038 
-31.4394 12.546 -3.682301 0.05009209 -0.9987437 0.001333959 
-34.9991 12.2142 -11.3594 0.1703689 -0.9853792 0.001549026 
-36.2475 12.0979 -12.7142 0.1996103 -0.9798719 0.002590259 
-33.2562 12.3767 -3.9875 0.1209523 -0.992658 -0.0008554913 
-32.95 -6.75 -4 -0.147523 -0.9886858 0.02715202 
-36.2475 12.0979 -16.2858 0.7069395 -0.7049253 -0.05759281 
-36.1976 -6.75 -16.375 -0.4555818 -0.8826513 0.1156369 
-34.9991 12.2142 -17.6406 0.7375107 -0.6716412 -0.07054143 
-34.825 -6.75 -17.7476 -0.5360083 -0.827916 -0.1650761 
-33.2562 12.3767 -18.2375 0.7540438 -0.6512967 -0.08503244 
-32.95 -6.75 -18.25 -0.6278177 -0.6912656 -0.3577663 
-31.075 -6.75 -17.7476 -0.7145899 -0.6303144 -0.3034223 
-29.7024 -6.75 -16.375 -0.3486045 -0.9372132 -0.01030837 
-31.4394 12.546 -17.9323 0.7368407 -0.6694044 -0.09467635 
-29.9871 12.6813 -16.7987 0.7007359 -0.7085524 -0.0832032 
-29.25 12.75 -15.1103 0.6393248 -0.7659094 -0.0681659 
-29.2056 12.75 -14.7043 0.6283152 -0.7748922 -0.06900801 
-43.2 -15.75 19.2651 -0.8906797 0.06610319 0.4498 
-43.2 4.25 20.2652 0.4861296 -0.1698812 0.8572155 
-43.2 4.25 8.25 -0.9898051 0.1415781 0.01554151 
-43.2 4.25 6.015199 -0.9966869 0.07906875 -0.0190633 
-42.2916 4.25 20.25 -0.9525842 0.3038615 0.01585799 
-43.2 -1.75 19.2651 0.6195824 -0.1645851 0.7674825 
-42.2 4.25 20.25 -0.952184 0.3050508 0.01702015 
-42.2 -1.75 19.25 0.6178231 -0.1635513 0.76912 
-42.3 -1.75 19.25 0.6180847 -0.1636469 0.7688894 
-42.2 4.25 8.25 -0.9908971 0.1260537 0.04725932 
-42.3 -15.75 19.25 -0.8420685 0.09036509 0.5317469 
-42.2 -15.75 19.25 -0.8381853 0.09429143 0.5371727 
-43.2 -15.75 19.25 -0.8908048 0.06596538 0.4495724 
-43.2 -27.75 19.25 -0.7394837 -0.1476233 0.6567886 
-42.2 -13.75 19.25 -0.8291353 0.1342596 0.5426868 
-24.7001 -27.75 19.25 -0.5819689 -0.1293018 -0.8028656 
-24.7001 -13.75 19.25 -0.6006593 -0.4331647 -0.6719947 
-43.2 -27.75 9.25 -0.9827889 -0.100654 0.1549023 
-24.7001 -27.75 9.25 -0.7735023 0.07397163 0.629462 
-24.7001 -26.75 18.75 -0.5158401 -0.2239849 -0.8268856 
-24.7001 -13.75 18.25 -0.6434376 -0.4990994 -0.5804204 
-24.7001 -14.25 18.75 -0.6340388 -0.4783304 -0.607614 
-24.7001 -26.75 9.55 -0.7976822 0.04339154 0.6015151 
-24.7001 -13.75 9.25 -0.8865386 -0.4610894 0.03802567 
-24.7001 -14.25 9.55 -0.8669905 -0.4942776 0.06338088 
-24.7001 -13.75 10.25 -0.8903914 -0.4541271 0.03117251 
-43.2 -13.75 9.25 -0.9341765 0.3563647 0.01784656 
-42.2 -13.75 9.25 -0.9004133 0.4350219 0.003438607 
-42.2 -13.75 10.25 -0.9007686 0.4337924 0.02097729 
-24.7001 -12.25 10.25 -0.8839598 -0.4674078 0.01204277 
-24.7001 -12.25 18.25 -0.6459955 -0.6242887 -0.4392646 
-42.2 -12.25 10.25 0.8252611 -0.5647305 -0.004865949 
-42.2 -1.75 9.25 -0.9973381 -0.07093478 0.01688339 
-42.2 -12.25 18.25 -0.8638174 0.4089103 0.294299 
-42.2 -13.75 18.25 -0.8474984 0.1219058 0.5166097 
-43.2 -1.75 9.25 -0.9901698 -0.114117 0.08087724 
-43.2 -1.75 5.015098 -0.974502 -0.2181187 -0.0526314 
-43.2 -15.75 5.015098 -0.9655566 0.2588267 0.02662909 
-42.2833 4.25 5.9999 -0.9860454 0.1655121 -0.01789604 
-42.4842 4.25 -5.9985 -0.994644 0.1018001 0.01789235 
-43.2 -15.75 5 -0.9655436 0.2588767 0.02661747 
3 0 1 2 
3 3 0 4 
3 0 2 4 
3 0 5 6 
3 0 3 5 
3 6 1 0 
3 1 7 2 
3 7 1 6 
3 4 2 7 
3 7 8 4 
3 8 7 9 
3 9 7 6 
3 9 6 10 
3 6 11 10 
3 11 6 5 
3 10 12 9 
3 12 10 13 
3 10 11 13 
3 13 11 5 
3 14 13 15 
3 13 5 15 
3 12 13 16 
3 13 14 17 
3 13 17 16 
3 3 15 5 
3 14 15 3 
3 3 4 18 
3 18 14 3 
3 19 4 20 
3 4 8 20 
3 18 4 21 
3 4 19 21 
3 22 19 23 
3 19 20 23 
3 21 19 22 
3 24 21 22 
3 18 21 25 
3 21 24 25 
3 26 24 27 
3 24 22 27 
3 28 24 26 
3 24 28 25 
3 18 25 29 
3 30 25 28 
3 29 25 30 
3 26 31 28 
3 32 30 28 
3 32 28 33 
3 28 31 33 
3 34 29 30 
3 34 30 32 
3 33 34 32 
3 34 33 29 
3 33 31 29 
3 35 29 36 
3 35 18 29 
3 36 29 31 
3 26 36 31 
3 36 26 37 
3 36 37 38 
3 38 39 36 
3 36 39 35 
3 16 37 40 
3 26 40 37 
3 37 16 38 
3 39 38 17 
3 38 16 17 
3 39 17 35 
3 14 41 17 
3 17 41 35 
3 18 35 14 
3 35 41 14 
3 40 12 16 
3 40 42 12 
3 40 27 42 
3 40 26 27 
3 12 42 43 
3 12 43 9 
3 42 44 43 
3 44 42 45 
3 42 27 45 
3 22 45 27 
3 44 45 22 
3 46 44 22 
3 46 47 44 
3 47 43 44 
3 48 9 43 
3 43 47 48 
3 8 9 49 
3 9 48 49 
3 50 51 48 
3 51 49 48 
3 50 48 47 
3 49 52 8 
3 52 49 53 
3 53 49 54 
3 49 51 54 
3 54 51 50 
3 55 50 47 
3 50 56 54 
3 50 55 56 
3 53 54 57 
3 54 58 57 
3 58 54 56 
3 55 59 56 
3 60 56 59 
3 60 58 56 
3 55 47 61 
3 61 62 55 
3 62 59 55 
3 62 60 59 
3 61 63 62 
3 63 64 62 
3 60 62 65 
3 62 64 65 
3 65 64 63 
3 66 65 63 
3 63 67 68 
3 63 61 67 
3 68 66 63 
3 60 65 69 
3 66 70 65 
3 70 69 65 
3 70 66 68 
3 68 71 72 
3 68 72 70 
3 71 68 73 
3 68 67 73 
3 72 69 70 
3 74 75 69 
3 75 60 69 
3 69 72 74 
3 71 74 72 
3 74 76 75 
3 74 77 76 
3 74 71 77 
3 75 76 78 
3 57 75 53 
3 75 78 53 
3 75 57 60 
3 57 58 60 
3 79 53 78 
3 79 80 53 
3 80 52 53 
3 78 81 79 
3 82 83 79 
3 83 80 79 
3 82 79 81 
3 52 80 84 
3 84 80 85 
3 80 83 85 
3 85 83 82 
3 86 82 81 
3 82 87 85 
3 82 86 87 
3 84 85 88 
3 85 89 88 
3 89 85 87 
3 86 90 87 
3 91 87 90 
3 91 89 87 
3 86 81 92 
3 92 93 86 
3 93 90 86 
3 93 91 90 
3 92 94 93 
3 94 95 93 
3 91 93 96 
3 93 95 96 
3 96 95 94 
3 91 96 97 
3 98 99 96 
3 99 97 96 
3 98 96 94 
3 100 101 97 
3 101 91 97 
3 97 102 100 
3 102 97 99 
3 103 102 99 
3 103 99 98 
3 103 98 94 
3 103 104 102 
3 103 105 104 
3 94 105 103 
3 104 100 102 
3 100 106 101 
3 100 107 106 
3 107 100 104 
3 104 108 107 
3 108 104 109 
3 104 105 109 
3 94 110 105 
3 111 105 110 
3 109 105 111 
3 110 94 92 
3 92 112 110 
3 113 110 114 
3 110 112 114 
3 113 111 110 
3 115 109 111 
3 111 113 115 
3 113 114 115 
3 115 114 109 
3 114 112 109 
3 92 116 112 
3 116 109 112 
3 116 108 109 
3 108 116 117 
3 116 118 117 
3 92 81 116 
3 81 118 116 
3 119 118 120 
3 121 118 119 
3 121 117 118 
3 118 81 120 
3 81 78 120 
3 120 122 119 
3 76 120 78 
3 120 76 122 
3 76 77 122 
3 119 122 77 
3 71 123 77 
3 123 119 77 
3 71 73 124 
3 124 123 71 
3 123 125 119 
3 125 123 126 
3 123 124 126 
3 127 128 124 
3 128 126 124 
3 127 124 129 
3 124 73 129 
3 129 73 67 
3 130 129 67 
3 129 130 127 
3 130 128 127 
3 130 67 128 
3 67 126 128 
3 61 125 126 
3 61 126 67 
3 61 47 125 
3 47 46 125 
3 125 46 119 
3 23 46 22 
3 23 119 46 
3 119 23 121 
3 121 23 131 
3 132 23 133 
3 23 20 133 
3 131 23 132 
3 134 132 135 
3 132 133 135 
3 134 131 132 
3 136 133 137 
3 136 138 133 
3 138 135 133 
3 20 137 133 
3 138 139 135 
3 139 140 135 
3 134 135 141 
3 135 140 141 
3 141 142 134 
3 131 134 142 
3 140 143 141 
3 144 141 143 
3 144 145 141 
3 145 142 141 
3 143 140 139 
3 146 143 139 
3 146 144 143 
3 144 146 145 
3 131 145 147 
3 146 148 145 
3 145 148 147 
3 145 131 142 
3 131 147 149 
3 147 150 149 
3 151 147 148 
3 147 151 150 
3 151 152 150 
3 152 149 150 
3 153 152 151 
3 151 154 153 
3 151 155 154 
3 155 151 148 
3 153 156 152 
3 152 156 149 
3 153 157 158 
3 154 159 153 
3 159 157 153 
3 156 153 158 
3 160 156 158 
3 156 160 149 
3 157 161 158 
3 160 158 161 
3 160 161 162 
3 162 163 160 
3 163 149 160 
3 164 161 165 
3 164 166 161 
3 166 162 161 
3 165 161 157 
3 165 167 164 
3 167 168 164 
3 169 170 164 
3 170 166 164 
3 169 164 171 
3 164 168 171 
3 170 169 172 
3 169 171 172 
3 166 170 173 
3 170 174 173 
3 174 170 175 
3 170 172 175 
3 171 176 172 
3 176 177 172 
3 177 175 172 
3 174 175 177 
3 174 178 173 
3 174 179 178 
3 177 179 174 
3 179 177 176 
3 180 176 171 
3 179 176 180 
3 179 181 178 
3 180 182 179 
3 182 183 179 
3 183 181 179 
3 178 183 184 
3 184 173 178 
3 178 181 183 
3 183 185 184 
3 183 186 185 
3 182 187 183 
3 187 186 183 
3 180 187 182 
3 188 180 171 
3 180 188 187 
3 188 186 187 
3 186 189 185 
3 186 188 189 
3 189 188 171 
3 171 168 189 
3 185 189 190 
3 189 191 190 
3 168 191 189 
3 168 167 192 
3 168 190 191 
3 192 190 168 
3 185 190 193 
3 193 190 194 
3 190 192 194 
3 195 196 192 
3 196 194 192 
3 195 192 167 
3 165 197 167 
3 198 195 167 
3 167 197 198 
3 199 165 157 
3 165 200 198 
3 198 197 165 
3 200 165 199 
3 195 198 201 
3 200 202 198 
3 202 201 198 
3 203 200 199 
3 202 200 204 
3 200 203 205 
3 200 205 204 
3 202 206 201 
3 202 204 207 
3 207 206 202 
3 207 204 205 
3 203 208 205 
3 208 209 205 
3 209 207 205 
3 203 199 208 
3 199 210 208 
3 211 212 208 
3 212 213 208 
3 208 210 211 
3 213 209 208 
3 206 209 213 
3 206 207 209 
3 213 212 214 
3 213 215 206 
3 213 214 215 
3 216 212 211 
3 212 216 214 
3 215 214 217 
3 214 216 217 
3 215 217 206 
3 201 217 195 
3 217 218 195 
3 217 216 218 
3 201 219 217 
3 217 219 206 
3 216 211 218 
3 220 218 221 
3 218 222 221 
3 218 211 222 
3 218 220 195 
3 220 196 195 
3 220 221 196 
3 194 221 223 
3 221 210 223 
3 221 222 210 
3 221 194 196 
3 222 224 210 
3 211 224 222 
3 210 224 211 
3 225 210 199 
3 210 225 223 
3 199 157 225 
3 226 225 159 
3 225 157 159 
3 223 225 227 
3 225 226 227 
3 226 159 227 
3 159 228 227 
3 159 154 228 
3 223 227 229 
3 227 228 229 
3 228 230 229 
3 154 230 228 
3 155 231 154 
3 154 231 230 
3 231 229 230 
3 229 148 223 
3 231 155 229 
3 229 155 148 
3 232 148 146 
3 233 148 232 
3 223 148 233 
3 234 146 139 
3 146 235 232 
3 146 20 236 
3 234 20 146 
3 146 236 235 
3 234 139 138 
3 234 137 20 
3 136 234 138 
3 234 136 137 
3 20 8 236 
3 237 238 8 
3 8 239 237 
3 52 239 8 
3 238 240 8 
3 240 236 8 
3 241 240 238 
3 238 242 241 
3 238 237 242 
3 241 243 240 
3 243 244 240 
3 240 244 236 
3 245 243 241 
3 241 246 245 
3 246 241 242 
3 244 243 247 
3 245 247 243 
3 247 248 244 
3 244 248 236 
3 235 236 249 
3 236 250 249 
3 248 250 236 
3 247 245 248 
3 245 250 248 
3 250 245 246 
3 246 249 250 
3 246 251 249 
3 251 246 242 
3 251 252 249 
3 235 249 252 
3 252 251 253 
3 254 253 251 
3 251 242 254 
3 253 255 252 
3 252 256 235 
3 252 255 256 
3 253 257 255 
3 254 258 253 
3 258 257 253 
3 254 259 260 
3 254 242 259 
3 260 258 254 
3 242 237 259 
3 260 259 261 
3 261 259 237 
3 258 260 262 
3 263 262 260 
3 260 261 263 
3 264 258 262 
3 264 257 258 
3 264 262 265 
3 263 266 262 
3 266 267 262 
3 267 265 262 
3 268 263 261 
3 268 269 263 
3 269 266 263 
3 270 267 266 
3 266 269 270 
3 270 271 267 
3 271 272 267 
3 267 272 265 
3 271 270 269 
3 271 269 268 
3 261 273 268 
3 268 274 271 
3 274 268 273 
3 272 271 274 
3 274 256 272 
3 255 272 256 
3 272 255 265 
3 274 275 256 
3 275 274 273 
3 275 276 256 
3 256 276 235 
3 276 275 277 
3 278 277 275 
3 275 273 278 
3 277 279 276 
3 277 280 279 
3 278 281 277 
3 281 280 277 
3 278 282 283 
3 278 273 282 
3 283 281 278 
3 284 281 285 
3 281 283 285 
3 284 280 281 
3 286 280 284 
3 280 286 279 
3 284 285 286 
3 287 285 283 
3 287 288 285 
3 288 289 285 
3 289 286 285 
3 283 290 287 
3 283 282 290 
3 291 287 290 
3 291 292 287 
3 292 288 287 
3 293 289 288 
3 288 292 293 
3 293 294 289 
3 294 295 289 
3 289 295 286 
3 295 279 286 
3 296 297 295 
3 295 294 296 
3 276 295 297 
3 276 279 295 
3 294 292 291 
3 294 293 292 
3 291 296 294 
3 296 298 297 
3 298 296 299 
3 296 291 299 
3 298 300 297 
3 297 301 276 
3 297 300 301 
3 276 301 235 
3 235 301 302 
3 232 235 303 
3 235 302 303 
3 304 302 305 
3 304 306 302 
3 306 303 302 
3 301 305 302 
3 307 303 308 
3 303 306 308 
3 307 232 303 
3 309 306 304 
3 306 309 310 
3 310 308 306 
3 307 308 311 
3 311 308 310 
3 312 307 311 
3 232 307 312 
3 313 312 311 
3 313 314 312 
3 314 315 312 
3 316 312 315 
3 316 232 312 
3 317 315 314 
3 317 314 318 
3 318 314 319 
3 314 313 319 
3 305 315 317 
3 316 315 301 
3 315 305 301 
3 305 317 320 
3 320 304 305 
3 311 320 313 
3 311 304 320 
3 313 320 321 
3 321 320 317 
3 322 304 311 
3 309 304 322 
3 311 323 322 
3 310 323 311 
3 323 324 322 
3 324 325 322 
3 322 326 309 
3 326 322 325 
3 309 326 310 
3 310 327 323 
3 326 327 310 
3 327 324 323 
3 328 325 324 
3 328 324 327 
3 329 325 328 
3 329 326 325 
3 329 327 326 
3 328 327 329 
3 330 317 318 
3 321 317 330 
3 330 318 331 
3 330 332 321 
3 330 331 332 
3 318 333 331 
3 333 318 334 
3 318 319 334 
3 333 335 331 
3 336 331 335 
3 331 336 332 
3 321 332 334 
3 332 336 334 
3 319 321 334 
3 319 313 321 
3 335 334 336 
3 335 333 334 
3 300 337 301 
3 301 338 316 
3 301 337 338 
3 339 340 300 
3 300 298 339 
3 340 337 300 
3 339 341 340 
3 342 339 298 
3 342 343 339 
3 343 341 339 
3 341 344 340 
3 340 344 337 
3 344 341 345 
3 345 341 343 
3 345 343 346 
3 347 343 342 
3 343 347 346 
3 342 348 347 
3 342 299 348 
3 298 299 342 
3 52 347 348 
3 52 337 347 
3 337 346 347 
3 345 346 344 
3 344 346 337 
3 337 349 338 
3 337 52 349 
3 349 52 84 
3 348 350 52 
3 350 239 52 
3 299 350 348 
3 290 299 291 
3 290 350 299 
3 350 290 239 
3 261 239 273 
3 273 239 282 
3 290 282 239 
3 239 261 237 
3 349 84 351 
3 88 101 84 
3 101 351 84 
3 351 352 349 
3 101 106 351 
3 106 352 351 
3 101 88 91 
3 88 89 91 
3 352 117 349 
3 352 353 117 
3 352 106 353 
3 349 117 121 
3 349 121 354 
3 349 354 338 
3 108 117 107 
3 117 353 107 
3 106 107 353 
3 355 338 356 
3 338 357 356 
3 357 338 358 
3 338 359 358 
3 354 359 338 
3 338 355 316 
3 356 357 360 
3 357 358 360 
3 358 354 361 
3 358 359 354 
3 358 362 360 
3 361 362 358 
3 360 362 356 
3 362 361 363 
3 362 363 356 
3 121 361 354 
3 361 121 363 
3 363 121 131 
3 364 365 363 
3 363 149 364 
3 363 131 149 
3 365 356 363 
3 149 163 364 
3 162 366 163 
3 364 163 367 
3 163 368 367 
3 368 163 366 
3 366 162 369 
3 369 368 366 
3 367 368 369 
3 370 367 369 
3 364 367 370 
3 162 371 369 
3 370 369 372 
3 369 371 372 
3 372 373 370 
3 374 364 370 
3 370 365 374 
3 370 373 365 
3 373 355 365 
3 373 372 355 
3 364 374 365 
3 365 355 356 
3 372 375 355 
3 375 376 355 
3 355 376 316 
3 316 377 378 
3 316 376 377 
3 316 379 232 
3 378 379 316 
3 378 377 380 
3 377 381 380 
3 376 381 377 
3 378 380 382 
3 382 383 378 
3 378 383 379 
3 384 379 385 
3 379 383 385 
3 232 379 384 
3 383 386 385 
3 386 383 387 
3 387 383 382 
3 380 388 382 
3 388 389 382 
3 387 382 389 
3 390 387 391 
3 390 386 387 
3 389 391 387 
3 386 392 393 
3 386 390 392 
3 393 385 386 
3 391 394 390 
3 394 395 390 
3 390 395 392 
3 394 391 396 
3 396 391 397 
3 391 389 397 
3 395 394 396 
3 395 396 398 
3 398 392 395 
3 393 392 399 
3 392 398 399 
3 399 398 400 
3 401 398 396 
3 398 401 400 
3 402 396 397 
3 402 401 396 
3 403 397 389 
3 403 404 397 
3 404 402 397 
3 405 401 402 
3 402 404 405 
3 405 406 401 
3 406 400 401 
3 405 403 388 
3 405 404 403 
3 388 406 405 
3 389 388 403 
3 406 388 380 
3 400 406 407 
3 407 406 380 
3 381 408 380 
3 407 380 408 
3 409 407 410 
3 407 411 410 
3 409 400 407 
3 408 411 407 
3 412 408 413 
3 408 381 413 
3 408 412 411 
3 413 381 376 
3 412 413 414 
3 414 413 376 
3 414 415 412 
3 415 416 412 
3 412 416 411 
3 417 411 416 
3 411 417 410 
3 416 418 417 
3 416 415 418 
3 415 414 418 
3 418 414 376 
3 417 418 376 
3 417 376 375 
3 410 417 375 
3 409 410 375 
3 419 400 409 
3 409 375 419 
3 419 399 400 
3 419 393 399 
3 419 420 393 
3 419 375 223 
3 419 421 420 
3 223 421 419 
3 420 422 393 
3 393 422 385 
3 423 422 424 
3 422 420 424 
3 425 422 423 
3 422 425 385 
3 384 385 426 
3 385 425 426 
3 427 425 428 
3 425 427 426 
3 423 428 425 
3 426 429 384 
3 430 426 427 
3 430 429 426 
3 384 431 232 
3 384 429 431 
3 431 429 432 
3 429 433 432 
3 433 429 430 
3 434 430 435 
3 434 433 430 
3 427 435 430 
3 433 436 437 
3 433 434 436 
3 437 432 433 
3 435 438 434 
3 438 439 434 
3 434 439 436 
3 438 435 440 
3 427 441 435 
3 441 440 435 
3 439 438 440 
3 439 440 442 
3 442 436 439 
3 437 436 443 
3 436 442 443 
3 443 442 420 
3 442 424 420 
3 424 442 440 
3 441 444 440 
3 444 424 440 
3 428 441 427 
3 428 445 441 
3 445 444 441 
3 423 424 444 
3 444 445 423 
3 423 445 428 
3 420 421 443 
3 421 437 443 
3 421 446 437 
3 223 446 421 
3 446 447 437 
3 437 447 432 
3 447 446 448 
3 448 446 223 
3 193 194 223 
3 193 223 375 
3 448 223 233 
3 449 448 450 
3 449 447 448 
3 450 448 233 
3 450 451 449 
3 449 452 453 
3 449 451 452 
3 453 447 449 
3 451 450 454 
3 454 450 233 
3 452 451 454 
3 452 454 455 
3 455 453 452 
3 432 453 456 
3 453 455 456 
3 447 453 432 
3 233 455 454 
3 233 456 455 
3 457 432 456 
3 457 456 233 
3 457 431 432 
3 232 431 457 
3 457 233 232 
3 458 459 375 
3 375 372 458 
3 460 461 375 
3 461 193 375 
3 375 459 460 
3 460 459 462 
3 459 463 462 
3 458 463 459 
3 464 462 465 
3 462 466 465 
3 464 467 462 
3 467 460 462 
3 463 466 462 
3 466 463 458 
3 468 469 466 
3 469 465 466 
3 468 466 458 
3 468 458 470 
3 372 471 458 
3 471 470 458 
3 470 469 468 
3 469 470 471 
3 465 469 472 
3 471 473 469 
3 473 474 469 
3 474 472 469 
3 372 371 471 
3 371 162 471 
3 162 475 471 
3 473 471 475 
3 476 473 475 
3 474 473 477 
3 473 476 477 
3 474 478 472 
3 478 474 479 
3 474 477 479 
3 476 480 477 
3 479 477 480 
3 476 475 481 
3 480 476 481 
3 481 482 480 
3 482 479 480 
3 478 479 483 
3 483 479 482 
3 481 483 482 
3 475 484 481 
3 483 481 485 
3 481 484 485 
3 486 483 485 
3 483 486 487 
3 487 488 483 
3 483 488 478 
3 486 485 489 
3 489 485 490 
3 485 484 490 
3 486 489 487 
3 488 487 491 
3 487 489 491 
3 488 491 478 
3 490 465 491 
3 465 472 491 
3 472 492 491 
3 491 489 490 
3 491 492 478 
3 478 492 472 
3 493 460 490 
3 460 467 490 
3 490 467 465 
3 484 493 490 
3 467 464 465 
3 494 493 484 
3 494 461 493 
3 461 460 493 
3 484 495 494 
3 495 484 475 
3 184 496 494 
3 496 461 494 
3 184 494 495 
3 193 461 496 
3 497 193 496 
3 497 496 184 
3 173 184 495 
3 185 497 184 
3 497 185 193 
3 495 498 173 
3 166 495 475 
3 166 498 495 
3 475 162 166 
3 173 498 166 
3 265 257 264 
3 257 265 255 
3 206 219 201 
